<?xml version="1.0" encoding="utf-8"?>
<!-- Generator: Adobe Illustrator 28.0.0, SVG Export Plug-In . SVG Version: 6.00 Build 0)  -->
<svg version="1.1" id="Слой_1" xmlns="http://www.w3.org/2000/svg" xmlns:xlink="http://www.w3.org/1999/xlink" x="0px" y="0px"
	 viewBox="0 0 512 512" style="enable-background:new 0 0 512 512;" xml:space="preserve">
<style type="text/css">
	.st0{fill:#013F4E;}
</style>
<path class="st0" d="M399,384.2c-22.1-38.4-63.6-64.2-111-64.2h-64c-47.4,0-88.9,25.8-111,64.2c35.2,39.2,86.2,63.8,143,63.8
	S363.8,423.3,399,384.2z M0,256C0,114.6,114.6,0,256,0s256,114.6,256,256S397.4,512,256,512S0,397.4,0,256z M256,272
	c39.8,0,72-32.2,72-72s-32.2-72-72-72s-72,32.2-72,72S216.2,272,256,272z"/>
</svg>
