<?xml version="1.0" encoding="UTF-8"?>
<svg id="_Слой_1" data-name="Слой 1" xmlns="http://www.w3.org/2000/svg" viewBox="0 0 879 539">
  <defs>
    <style>
      .cls-1 {
        fill: #5098c7;
      }

      .cls-1, .cls-2, .cls-3, .cls-4, .cls-5, .cls-6, .cls-7 {
        stroke-width: 0px;
      }

      .cls-2 {
        fill: #dae0e2;
      }

      .cls-3 {
        fill: #e7ecee;
      }

      .cls-4 {
        fill: #fff;
      }

      .cls-5 {
        fill: #8495a2;
      }

      .cls-6 {
        fill: #85959d;
      }

      .cls-8 {
        fill: none;
        stroke: #85959d;
        stroke-linecap: round;
        stroke-miterlimit: 10;
        stroke-width: 3px;
      }

      .cls-7 {
        fill: #76868c;
      }
    </style>
  </defs>
  <path class="cls-1" d="m846.5,293.5h-96.5c-6.76,0-12.89-2.74-17.32-7.18-4.44-4.43-7.18-10.56-7.18-17.32,0-13.53,10.97-24.5,24.5-24.5h87c7.04,0,13.42-2.86,18.03-7.47,4.61-4.61,7.47-10.99,7.47-18.03,0-14.08-11.42-25.5-25.5-25.5h-9c-7.32,0-13.94-2.96-18.74-7.76-4.8-4.8-7.76-11.42-7.76-18.74,0-14.64,11.86-26.5,26.5-26.5h17.5c7.18,0,13.68-2.91,18.38-7.62,4.71-4.7,7.62-11.2,7.62-18.38,0-14.36-11.64-26-26-26h-423.75c-6.42,0-12.23-2.6-16.44-6.81s-6.81-10.02-6.81-16.44c0-12.84-10.41-23.25-23.25-23.25h-122.71c-12.72,0-23.04,10.32-23.04,23.04h0c0,12.73,10.32,23.05,23.04,23.05h9.76c14.47,0,26.2,11.73,26.2,26.2h0c0,14.48-11.73,26.21-26.2,26.21h-92.72c-14.4,0-26.08,11.68-26.08,26.08v.84c0,14.4,11.68,26.08,26.08,26.08h65.55c12.91,0,23.37,10.46,23.37,23.37v2.26c0,12.91-10.46,23.37-23.37,23.37h-30.85c-14.24,0-25.78,11.54-25.78,25.78v1.44c0,14.24,11.54,25.78,25.78,25.78h7.52c14.19,0,25.7,11.51,25.7,25.7v4.44c0,5.88-2.38,11.19-6.23,15.04-3.85,3.85-9.17,6.23-15.04,6.23-13.11,0-23.73,10.62-23.73,23.73v4.13c0,13.11,10.62,23.73,23.73,23.73h117.96c7.35,0,13.31,5.96,13.31,13.31v5.5c0,11.7,9.49,21.19,21.19,21.19h81.62c11.7,0,21.19-9.49,21.19-21.19v-5.5c0-7.35,5.96-13.31,13.31-13.31h147.43c5.24,0,10,2.13,13.43,5.57,3.44,3.43,5.57,8.19,5.57,13.43,0,10.49,8.51,19,19,19h122.3c5.11,0,9.74-2.07,13.08-5.42,3.35-3.34,5.42-7.97,5.42-13.08,0-10.22-8.28-18.5-18.5-18.5h-7.04c-7.18,0-13.68-2.91-18.38-7.62-4.71-4.7-7.62-11.2-7.62-18.38,0-14.36,11.64-26,26-26h61c7.46,0,14.2-3.02,19.09-7.91,4.89-4.89,7.91-11.63,7.91-19.09,0-14.91-12.09-27-27-27Zm-479-104h-39c-13.81,0-25-11.19-25-25s11.19-25,25-25h39c13.81,0,25,11.19,25,25s-11.19,25-25,25Z"/>
  <g>
    <path class="cls-4" d="m117.15,400.63c.05.55-.06,1.19-.35,2.02-1.71,4.95-7.06,8.43-11.92,7.77-1.14-.16-2.24-.52-3.2-1.03-2.66-1.43-4.45-4.34-4.47-7.25-.02-2.96,1.83-5.84,4.48-7l.75-.32.13-.81c.26-1.58.66-3.25,1.05-4.87.41-1.68.83-3.41,1.11-5.16.14-.84.28-1.69.45-2.53.1-.57.23-1.14.37-1.69.07-.26.15-.52.23-.78.28-.94.62-1.88,1.02-2.95.21-.57.42-1.14.65-1.71.26-.74.54-1.47.83-2.2,4.74-12.51,10.01-24.91,15.66-36.92,2.66.85,5.23,1.99,7.66,3.41-1.26,2.15-2.3,4.34-3.52,6.94l-3.92,8.36c-3.97,8.43-7.93,16.86-11.88,25.3-1.41,3-3.01,6.41-2.85,10.14.04,1.21.29,2.31.74,3.25.84,1.74,2.35,2.9,3.68,3.92l.5.39c1.13.87,2.66,2.21,2.8,3.72Z"/>
    <path class="cls-4" d="m166.61,423.7c-.27.9-.72,1.55-1.21,1.74-.3.11-.75.12-1.16.13l-21.35.47c-2.98.06-6.07.13-8.99-.31-1.65-.25-3.75-.85-4.45-2.31-.31-.64-.35-1.46-.36-2.18-.01-3.33.86-6.56,1.79-9.98.7-2.6,1.44-5.3,1.74-8.07.26-2.32.16-4.27-.32-5.98-.33-1.19-.85-2.29-1.31-3.22-.51-1.04-1.05-2.08-1.61-3.1,2.89.88,5.91,1.46,9.03,1.61.85,1.96,1.69,3.92,2.52,5.88.51,1.22,1.04,2.48,1.21,3.75.33,2.4-.65,4.66-1.53,6.14l-.22.36c-.73,1.2-1.56,2.57-1.51,4.15.01.66.35,1.27.9,1.64.57.38,1.28.46,1.92.22,3.97-1.49,7.33-2.55,10.79-2.84,4.18-.36,7.96.58,10.63,2.64,2.98,2.3,4.42,6.1,3.49,9.26Z"/>
    <path class="cls-4" d="m194.61,423.69c-.27.92-.71,1.56-1.2,1.75-.29.11-.68.12-1.16.13l-21.33.47c-.69.01-1.38.03-2.08.03.27-.45.48-.96.65-1.52,1.27-4.32-.6-9.45-4.54-12.49-1.59-1.22-3.48-2.12-5.57-2.68.56-2.11,1.01-4.1,1.24-6.19.27-2.28.16-4.24-.32-5.99-.33-1.18-.85-2.28-1.31-3.21-.43-.88-.89-1.75-1.36-2.61,2.66-.46,5.17-1.06,7.52-1.79,1.27,2.93,2.53,5.85,3.78,8.79.51,1.22,1.04,2.49,1.21,3.75.33,2.4-.65,4.67-1.53,6.14l-.24.4c-.72,1.19-1.54,2.54-1.49,4.11.02.66.36,1.28.92,1.65.56.38,1.28.45,1.9.21,3.22-1.2,6.98-2.52,10.79-2.84,4.18-.35,7.95.58,10.64,2.64,2.93,2.26,4.4,6.15,3.48,9.25Z"/>
    <path class="cls-4" d="m137.07,389.39c-3.5-.34-6.88-1.26-10.1-2.52-1.83-.71-3.6-1.53-5.32-2.42-.6-.3-1.19-.62-1.78-.94-1.7-.93-3.35-1.92-4.93-2.91.02-.04.04-.08.06-.12.17-.37.34-.72.52-1.09h0c1.66-3.56,3.33-7.12,5-10.68,2.11-4.51,4.23-9.02,6.35-13.53l3.93-8.35c.97-2.08,2.05-4.42,3.33-6.61,2.19,1.6,3.21,3.25,3.05,4.9-.02.28.18.52.45.55h.05c.26,0,.47-.2.5-.46.19-2.05-1.01-4.03-3.58-5.9-.24-.17-.5-.34-.77-.52-.54-.35-1.08-.68-1.64-1-2.52-1.48-5.2-2.67-7.98-3.56-.9-.29-1.81-.55-2.73-.78-1.87-.47-3.78-.8-5.71-.99,3.69-.85,7.48-1.32,11.27-1.39,1.38-.03,2.99-.01,4.51.33,2.63.59,4.95,2.07,7.21,3.51.23.15.54.08.69-.15.15-.24.08-.55-.16-.69-2.21-1.42-4.72-3.02-7.52-3.64-1.63-.37-3.31-.39-4.74-.36-4.48.08-8.94.71-13.26,1.86-.34.09-.55.4-.52.75.04.35.32.62.67.64,2.4.14,4.78.49,7.1,1.06-5.15,10.96-9.98,22.23-14.38,33.62-.51-1.35-.98-2.72-1.42-4.09-.84-2.57-1.57-5.18-2.19-7.81,0-.02-.01-.05-.02-.08-5.26-22.38-2.92-46.49,6.96-67.34.01-.02.02-.04.03-.06.02-.05.04-.11.07-.16.53-1.11,1.08-2.21,1.63-3.31,1.21-2.43,2.45-4.92,3.47-7.51,1.08-2.17,2.01-4.4,2.29-6.79.08-.66.1-1.37-.2-1.97-.27-.55-.75-.93-1.26-1.27t-.01-.02c-.36-.55-.76-1.04-1.15-1.5l-.32-.38c-2.93-3.6-4.23-8.2-3.62-12.19,0,0,0-.02,0-.03.18-1.22.53-2.38,1.09-3.44,2.6-4.97,9.35-7.26,14.45-4.89,1.19.56,2.32,1.34,3.51,2.16,2.08,1.44,4.23,2.92,6.92,3.3,2.12.3,4.14-.16,6.09-.61l.46-.1c9.69-2.19,19.99-2.52,29.79-.96l1.09.17.49-.99c2.08-4.22,7.07-6.66,11.11-5.45,2.06.62,3.86,2.41,4.68,4.68.72,1.97.57,3.97-.41,5.46l-.25.36c-.61.89-1.44,2.1-1.1,3.6.43,1.87,2.26,2.54,3.47,2.99l.21.07c2.11.78,3.91,2.4,5.03,4.38-.31-.02-.62-.03-.93-.03-1.41,0-2.8.2-4.1.6-1.48.45-2.87,1.11-4.21,1.74-.66.31-1.31.62-1.97.9-3.01,1.29-5.87,1.46-9.02.55-2.12-.62-4.24-1.4-6.29-2.15-1.9-.7-3.87-1.42-5.85-2.02-6.17-1.87-11.25-2.06-15.55-.57-1.31.45-2.27.99-3.01,1.7-.8.76-1.32,1.73-1.69,2.49-2.77,5.73-2.63,12.77.38,18.38.35.66.74,1.31,1.14,1.95.7,1.14,1.35,2.22,1.79,3.4.89,2.4.79,5.14.7,7.79l-.02.46c-.18,5.22-.15,11.36,1.41,17.32,1.15,4.42,3.69,10.59,9.18,14.87,6.26,4.87,14.49,5.79,20.96,6.05.96.04,1.98.07,3.03.07.77,0,1.55-.02,2.35-.06.11,1.91.27,3.85.43,5.87,1,12.21,2.02,24.83-6.26,33.81-2.98,3.13-6.61,5.64-10.91,7.56-3.81,1.7-8.16,2.93-13.06,3.69-1.06.18-2.14.32-3.26.44-3.81.43-7.93.59-12.38.51h-.01c-1.12.01-2.22-.04-3.32-.15Z"/>
    <path class="cls-4" d="m220.15,315.48c-1.05,2.31-3.27,3.97-5.42,5.58l-.17.13c-.94.7-1.88,1.42-2.83,2.14-6.64,5.06-13.52,10.3-21.58,11.84-.47.09-.94.16-1.42.22-1,.15-2.01.23-2.99.28-1.83.09-3.59.05-5.2-.02-6.17-.24-14-1.11-19.81-5.63-3.94-3.07-6.95-7.97-8.48-13.8-1.49-5.71-1.52-11.67-1.34-16.74l.02-.46c.1-2.84.2-5.79-.83-8.56-.5-1.35-1.24-2.57-1.96-3.74-.37-.61-.74-1.22-1.08-1.85-2.71-5.06-2.84-11.41-.34-16.57.29-.61.7-1.37,1.27-1.92.53-.49,1.25-.89,2.29-1.25,1.69-.59,3.53-.88,5.55-.88,2.61,0,5.52.49,8.76,1.47,1.93.59,3.87,1.3,5.74,1.99,2.08.76,4.24,1.55,6.42,2.19,3.57,1.04,6.96.83,10.36-.63.69-.29,1.36-.61,2.04-.93,1.34-.63,2.6-1.22,3.94-1.63,1.66-.51,3.52-.63,5.35-.35,1.11.16,2.22.48,3.25.95,2.32,1.03,4.3,2.83,5.36,5.41,1.64,4.01.71,8.48-2.37,11.39-1.77,1.67-4.08,2.91-5.88,3.81-.49.24-.72.78-.56,1.3.16.51.67.82,1.2.74,3.14-.47,6.73,1.1,8.94,3.9,2.03,2.56,3.11,6.16,3.06,10.17-1.46.9-2.96,1.8-4.58,2.37-1.68.6-3.51.84-5.29,1.08-2.02.27-4.12.55-6.06,1.34-3.33,1.37-5.83,4.09-7.63,6.3-.17.21-.14.53.08.7.09.08.2.12.31.12.15,0,.29-.07.39-.19,1.72-2.12,4.11-4.72,7.23-6,1.82-.75,3.76-1,5.82-1.28,1.82-.24,3.71-.49,5.49-1.12,1.49-.53,2.88-1.31,4.21-2.12l.57-.07.33-.05c.68-.1,1.37-.12,2.04.02,1.76.37,3.77,1.41,5.01,3.06,1.53,2.04,1.85,4.97.79,7.29Z"/>
  </g>
  <rect class="cls-4" x="567" y="382" width="38" height="38"/>
  <rect class="cls-4" x="567" y="423" width="38" height="38"/>
  <rect class="cls-4" x="608" y="423" width="38" height="38"/>
  <rect class="cls-4" x="649" y="423" width="38" height="38"/>
  <rect class="cls-4" x="649" y="464" width="38" height="38"/>
  <path class="cls-4" d="m392.5,164.5c0,13.81-11.19,25-25,25h-39c-13.81,0-25-11.19-25-25s11.19-25,25-25h39c13.81,0,25,11.19,25,25Z"/>
  <polygon class="cls-3" points="577 391.6 577 411 567 420 567 382 577 391.6"/>
  <polygon class="cls-2" points="605 382 595.4 391.6 577 391.6 567 382 605 382"/>
  <polygon class="cls-3" points="577 432.6 577 452 567 461 567 423 577 432.6"/>
  <polygon class="cls-2" points="605 423 595.4 432.6 577 432.6 567 423 605 423"/>
  <polygon class="cls-3" points="618 432.6 618 452 608 461 608 423 618 432.6"/>
  <polygon class="cls-2" points="646 423 636.4 432.6 618 432.6 608 423 646 423"/>
  <polygon class="cls-3" points="659 432.6 659 452 649 461 649 423 659 432.6"/>
  <polygon class="cls-2" points="687 423 677.4 432.6 659 432.6 649 423 687 423"/>
  <polygon class="cls-3" points="659 473.6 659 493 649 502 649 464 659 473.6"/>
  <polygon class="cls-2" points="687 464 677.4 473.6 659 473.6 649 464 687 464"/>
  <g>
    <path class="cls-4" d="m414.28,247.91c-2.16-2.17-5.13-3.41-8.13-3.41h-14.65v-93.01c0-10.06-6.22-18.44-15.84-21.35-9.63-2.92-19.45.61-25.04,8.97l-69.42,105.23c-2.95,4.47-3.19,9.94-.66,14.64,2.53,4.71,7.24,7.52,12.58,7.52h73.38v31.5c0,3.33,1.3,6.48,3.66,8.84,2.37,2.36,5.51,3.66,8.84,3.66h.03c6.88-.02,12.47-5.8,12.47-12.9v-31.1h15c2.94,0,5.71-1.14,7.78-3.22,2.07-2.07,3.21-4.82,3.22-7.76.01-2.82-1.14-5.52-3.22-7.61Zm-47.78-3.41h-62.77l1.05-1.56c15.29-22.65,44.11-65.34,59.89-88.7l1.83-2.71v92.97Z"/>
    <rect class="cls-6" x="366.09" y="254.5" width="10.82" height="1" transform="translate(-46.74 422.66) rotate(-56.31)"/>
    <rect class="cls-6" x="382.09" y="254.5" width="10.82" height="1" transform="translate(-39.62 435.97) rotate(-56.31)"/>
    <polygon class="cls-6" points="418.45 254 418.45 255 392.11 255 388.92 259.78 388.08 259.22 394.08 250.22 394.92 250.78 392.77 254 418.45 254"/>
    <path class="cls-6" d="m377,139c0,2.21-1.79,4-4,4-1.81,0-3.33-1.2-3.83-2.84l-1.16.43c-4.06,1.53-7.68,4.09-10.46,7.43l-.67.8-65.62,96.88c-1.11,1.66-1.22,3.71-.27,5.48.94,1.77,2.7,2.82,4.7,2.82h71.87l2.52-3.78.84.56-6,9-.84-.56,2.81-4.22h-71.2c-2.37,0-4.46-1.25-5.58-3.35-1.12-2.1-1-4.53.32-6.51l65.66-96.92.69-.84c2.89-3.47,6.65-6.14,10.88-7.72l1.35-.51s-.01-.1-.01-.15c0-2.21,1.79-4,4-4s4,1.79,4,4Z"/>
    <path class="cls-6" d="m383,299c0,2.21-1.79,4-4,4s-4-1.79-4-4c0-2.04,1.53-3.72,3.5-3.97v-138.06c-1.97-.25-3.5-1.93-3.5-3.97,0-2.21,1.79-4,4-4s4,1.79,4,4c0,2.04-1.53,3.72-3.5,3.97v138.06c1.97.25,3.5,1.93,3.5,3.97Z"/>
    <path class="cls-6" d="m379,312.5c-3.87,0-7.51-1.51-10.26-4.24-2.74-2.75-4.24-6.39-4.24-10.26v-29.5h-71.38c-6.09,0-11.45-3.2-14.34-8.57s-2.61-11.6.75-16.69l69.43-105.24c6.08-9.12,16.79-12.96,27.28-9.78,10.49,3.18,17.26,12.31,17.26,23.27v91.01h12.65c3.53,0,7.01,1.46,9.55,4,2.46,2.46,3.81,5.67,3.8,9.03,0,3.47-1.36,6.72-3.8,9.17-2.45,2.45-5.72,3.8-9.2,3.8h-13v29.1c0,8.2-6.49,14.88-14.46,14.9h-.04Zm-28.38-173.39l-69.43,105.23c-2.94,4.46-3.19,9.93-.65,14.64,2.53,4.71,7.24,7.52,12.58,7.52h73.38v31.5c0,3.33,1.3,6.48,3.66,8.84,2.37,2.36,5.51,3.66,8.84,3.66h.03c6.88-.02,12.47-5.8,12.47-12.9v-31.1h15c2.94,0,5.71-1.14,7.78-3.22,2.07-2.07,3.21-4.83,3.22-7.76,0-2.82-1.14-5.52-3.22-7.61-2.17-2.17-5.13-3.41-8.13-3.41h-14.65v-93.01c0-10.06-6.22-18.44-15.84-21.35s-19.45.61-25.03,8.97h0Z"/>
    <path class="cls-6" d="m366.5,244.5h-62.77l1.05-1.56c15.29-22.65,44.11-65.34,59.89-88.7l1.83-2.71v92.97Zm-59.01-2h57.01v-84.43c-15.72,23.27-42.08,62.31-57.01,84.43Z"/>
  </g>
  <g>
    <path class="cls-4" d="m737.28,247.91c-2.16-2.17-5.13-3.41-8.13-3.41h-14.65v-93.01c0-10.06-6.22-18.44-15.84-21.35-9.63-2.92-19.45.61-25.04,8.97l-69.42,105.23c-2.95,4.47-3.19,9.94-.66,14.64,2.53,4.71,7.24,7.52,12.58,7.52h73.38v31.5c0,3.33,1.3,6.48,3.66,8.84,2.37,2.36,5.51,3.66,8.84,3.66h.03c6.88-.02,12.47-5.8,12.47-12.9v-31.1h15c2.94,0,5.71-1.14,7.78-3.22,2.07-2.07,3.21-4.82,3.22-7.76.01-2.82-1.14-5.52-3.22-7.61Zm-47.78-3.41h-62.77l1.05-1.56c15.29-22.65,44.11-65.34,59.89-88.7l1.83-2.71v92.97Z"/>
    <rect class="cls-6" x="689.09" y="254.5" width="10.82" height="1" transform="translate(97.09 691.41) rotate(-56.31)"/>
    <rect class="cls-6" x="705.09" y="254.5" width="10.82" height="1" transform="translate(104.21 704.72) rotate(-56.31)"/>
    <polygon class="cls-6" points="741.45 254 741.45 255 715.11 255 711.92 259.78 711.08 259.22 717.08 250.22 717.92 250.78 715.77 254 741.45 254"/>
    <path class="cls-6" d="m700,139c0,2.21-1.79,4-4,4-1.81,0-3.33-1.2-3.83-2.84l-1.16.43c-4.06,1.53-7.68,4.09-10.46,7.43l-.67.8-65.62,96.88c-1.11,1.66-1.22,3.71-.27,5.48.94,1.77,2.7,2.82,4.7,2.82h71.87l2.52-3.78.84.56-6,9-.84-.56,2.81-4.22h-71.2c-2.37,0-4.46-1.25-5.58-3.35-1.12-2.1-1-4.53.32-6.51l65.66-96.92.69-.84c2.89-3.47,6.65-6.14,10.88-7.72l1.35-.51s-.01-.1-.01-.15c0-2.21,1.79-4,4-4s4,1.79,4,4Z"/>
    <path class="cls-6" d="m706,299c0,2.21-1.79,4-4,4s-4-1.79-4-4c0-2.04,1.53-3.72,3.5-3.97v-138.06c-1.97-.25-3.5-1.93-3.5-3.97,0-2.21,1.79-4,4-4s4,1.79,4,4c0,2.04-1.53,3.72-3.5,3.97v138.06c1.97.25,3.5,1.93,3.5,3.97Z"/>
    <path class="cls-6" d="m702,312.5c-3.87,0-7.51-1.51-10.26-4.24-2.74-2.75-4.24-6.39-4.24-10.26v-29.5h-71.38c-6.09,0-11.45-3.2-14.34-8.57s-2.61-11.6.75-16.69l69.43-105.24c6.08-9.12,16.79-12.96,27.28-9.78,10.49,3.18,17.26,12.31,17.26,23.27v91.01h12.65c3.53,0,7.01,1.46,9.55,4,2.46,2.46,3.81,5.67,3.8,9.03,0,3.47-1.36,6.72-3.8,9.17-2.45,2.45-5.72,3.8-9.2,3.8h-13v29.1c0,8.2-6.49,14.88-14.46,14.9h-.04Zm-28.38-173.39l-69.43,105.23c-2.94,4.46-3.19,9.93-.65,14.64,2.53,4.71,7.24,7.52,12.58,7.52h73.38v31.5c0,3.33,1.3,6.48,3.66,8.84,2.37,2.36,5.51,3.66,8.84,3.66h.03c6.88-.02,12.47-5.8,12.47-12.9v-31.1h15c2.94,0,5.71-1.14,7.78-3.22,2.07-2.07,3.21-4.83,3.22-7.76,0-2.82-1.14-5.52-3.22-7.61-2.17-2.17-5.13-3.41-8.13-3.41h-14.65v-93.01c0-10.06-6.22-18.44-15.84-21.35s-19.45.61-25.03,8.97h0Z"/>
    <path class="cls-6" d="m689.5,244.5h-62.77l1.05-1.56c15.29-22.65,44.11-65.34,59.89-88.7l1.83-2.71v92.97Zm-59.01-2h57.01v-84.43c-15.72,23.27-42.08,62.31-57.01,84.43Z"/>
  </g>
  <g>
    <polygon class="cls-4" points="196.75 27 150.75 105 105.75 27 196.75 27"/>
    <path class="cls-6" d="m105.75,27l45,78,46-78h-91Zm45.06,3l-20.15,34.17-19.72-34.17h39.87Zm.64,4.81l15.61,27.05h-31.56l15.95-27.05Zm-.67,64.24l-19.73-34.19h39.89l-20.16,34.19Zm1.36-69.05h39.36l-19.9,33.74-19.46-33.74Z"/>
  </g>
  <path class="cls-5" d="m608,420v-41h-44v85h82v41h44v-85h-82Zm-3,41h-38v-38h38v38Zm0-41h-38v-38h38v38Zm3,41v-38h38v38h-38Zm79,41h-38v-38h38v38Zm-38-41v-38h38v38h-38Z"/>
  <g>
    <path class="cls-4" d="m750.5,30.5c-18.11,0-34.57,7.08-46.75,18.63h-.01c-4.94,9.38-7.74,20.06-7.74,31.37,0,37.22,30.28,67.5,67.5,67.5,19.08,0,36.33-7.95,48.61-20.72,4.1-8.74,6.39-18.49,6.39-28.78,0-37.56-30.44-68-68-68Z"/>
    <ellipse class="cls-3" cx="732.7" cy="106.39" rx="13.93" ry="20" transform="translate(110.38 507.49) rotate(-41.06)"/>
    <ellipse class="cls-3" cx="768.7" cy="128.39" rx="9.17" ry="6.39"/>
    <ellipse class="cls-3" cx="729.7" cy="50.39" rx="9.17" ry="6.39" transform="translate(171.27 522.78) rotate(-44.18)"/>
    <ellipse class="cls-3" cx="768.02" cy="107.39" rx="5.39" ry="6.14" transform="translate(203.49 639.08) rotate(-51.24)"/>
    <path class="cls-6" d="m763.5,10c-38.87,0-70.5,31.63-70.5,70.5s31.63,70.5,70.5,70.5,70.5-31.63,70.5-70.5-31.63-70.5-70.5-70.5Zm-67.5,70.5c0-11.31,2.8-21.99,7.74-31.36h.01c11.31-21.48,33.85-36.14,59.75-36.14,37.22,0,67.5,30.28,67.5,67.5,0,18.14-7.2,34.63-18.89,46.78-12.28,12.77-29.53,20.72-48.61,20.72-37.22,0-67.5-30.28-67.5-67.5Z"/>
    <path class="cls-3" d="m812.11,127.28c4.1-8.74,6.39-18.49,6.39-28.78,0-37.56-30.44-68-68-68-18.11,0-34.57,7.08-46.75,18.63,11.31-21.47,33.85-36.13,59.75-36.13,37.22,0,67.5,30.28,67.5,67.5,0,18.14-7.2,34.63-18.89,46.78Z"/>
  </g>
  <path class="cls-8" d="m132.5,523.5l55.17-69.95c.53-.67,1.33-1.05,2.18-1.05h39.65c.88,0,1.7-.41,2.22-1.12l14.49-19.46c1.36-1.83.06-4.43-2.22-4.43H60.5"/>
  <circle class="cls-6" cx="175" cy="283" r="3"/>
  <circle class="cls-6" cx="192" cy="279" r="3"/>
  <circle class="cls-6" cx="196" cy="297" r="1"/>
  <circle class="cls-6" cx="202.5" cy="295.5" r="1"/>
  <path class="cls-3" d="m180.28,293.74c.45-.39.7-.97,1.18-1.31.31-.22.69-.32,1.03-.49.49-.24.92-.6,1.33-.96.72-.62,1.44-1.24,2.16-1.86.51-.44,1.04-.9,1.68-1.12.36-.12.74-.17,1.11-.22,3.28-.37,6.6-.3,9.86.2,0,.37-.03.75-.12,1.11-.01-.1-.02-.21-.03-.31.08.48.14,1.03-.18,1.4-.14.17-.34.28-.54.37-1.65.83-3.39,1.47-5.18,1.91-1.99.49-4.04.73-5.95,1.47-.96.37-1.87.86-2.83,1.23-1.25.49-2.57.79-3.91.96s-2.8.34-4.11.16c-.1-.89.99-1.48,1.73-1.6.92-.15,2.03-.3,2.75-.93Z"/>
  <path class="cls-3" d="m201.09,312.92c.52-.13,1.01-.33,1.52-.47.62-.17,1.25-.24,1.88-.34,1.18-.19,2.36-.48,3.49-.87,1.15-.4,2.27-.91,3.47-1.14,1.05-.2,2.13-.19,3.19-.17.09.52-.23,1.01-.57,1.41-.94,1.11-2.12,1.99-3.32,2.82-1.08.76-2.2,1.5-3.46,1.89-.91.28-1.87.37-2.82.44-.82.06-1.65.09-2.47.06-.42-.02-.85-.05-1.25-.18-.5-.16-.94-.45-1.4-.7-.67-.36-1.39-.62-2.13-.79-.07-.02-.15-.04-.18-.1-.03-.05-.02-.12,0-.18.49-1.56,2.76-1.36,4.05-1.68Z"/>
  <path class="cls-3" d="m139.88,279.89c-.7,2.82,1.01,5.59,2.33,8.18,1.26,2.48,2.22,5.17,2.37,7.95.2,3.65-.99,7.22-1.38,10.85-.41,3.71.01,7.46.43,11.17.29,2.6.59,5.22,1.46,7.68,1.13,3.21,3.17,6.01,5.17,8.76,1.36,1.86,2.74,3.74,4.58,5.12,3.27,2.45,7.54,3.01,11.57,3.73,4.2.76,10.36,1.78,14.43,3.07,1.8.57,3.98,1.13,5.41-.12,2.22-1.93-.25-6.29.07-8.32.22-1.41,2.4-1.47,3.78-1.85,6.18-1.69,11.67-5.23,17.04-8.72,5.54-3.6,11.47-7.72,13.32-14.05-3.07,1.57-4.75,4.97-7.54,7-1.75,1.28-3.86,1.95-5.94,2.58-7.37,2.22-14.95,4.11-22.64,4.05s-15.6-2.24-21.38-7.33c-2.12-1.86-3.9-4.07-5.67-6.26-2.76-3.41-5.59-6.96-6.71-11.21-1.08-4.09-.49-8.61-2.3-12.44-.86-1.83-2.22-3.38-3.24-5.12-1.39-2.37-2.14-5.1-2.19-7.85,0-.37.25-1.4-.23-1.56-.53-.18-.75.75-.95,1.1-.65,1.17-1.47,2.28-1.8,3.6Z"/>
  <path class="cls-6" d="m165.5,380.5c-9.37,0-17-8.52-17-19s7.63-19,17-19,17,8.52,17,19-7.63,19-17,19Zm0-36c-8.27,0-15,7.63-15,17s6.73,17,15,17,15-7.63,15-17-6.73-17-15-17Z"/>
  <path class="cls-6" d="m174.3,369.4c-.16.09-.34.14-.51.14-.34,0-.67-.18-.86-.5-.16-.26-.51-.5-.84-.73l-1.43-.97c-.65.87-1.27,1.76-1.84,2.68-.19.31-.52.48-.85.48-.18,0-.36-.05-.53-.15-.47-.29-.61-.91-.32-1.38.58-.94,1.21-1.86,1.88-2.75l-.69-.47c-.62-.43-1.33-.91-2.02-.99-.54-.06-.94-.56-.87-1.11.06-.55.57-.94,1.11-.87,1.17.14,2.13.79,2.91,1.31l.81.55c.58-.7,1.19-1.37,1.82-2.02.38-.4,1.01-.41,1.41-.03.4.39.41,1.02.02,1.42-.55.57-1.08,1.16-1.59,1.77l1.3.88c.47.32,1.06.72,1.44,1.37.28.48.12,1.09-.35,1.37Z"/>
  <path class="cls-3" d="m118.36,283.21c-6.43,20.26-9.05,41.72-7.67,62.93.06.92.24,3.93.31,4.86.32,4.08.61,6.78,0,8-1.68,3.4-1.73,1.23-2,5-.22,3.09-1.9,6.81-2,7-.74-2.77-4.44-13.08-4.97-15.9,0-.02-.01-.05-.02-.08-4.21-22.48-1.76-46.19,6.96-67.34.01-.02.02-.04.03-.06.02-.05.04-.11.07-.16.53-1.11,1.08-2.21,1.63-3.31,1.21-2.43,2.45-4.92,3.47-7.51,1.08-2.17,2.01-4.4,2.29-6.79.08-.66.1-1.37-.2-1.97-.27-.55-.75-.93-1.26-1.27t-.01-.02c-.36-.55-.76-1.04-1.15-1.5l-.32-.38c-2.93-3.6-4.23-8.2-3.62-12.19,0,0,0-.02,0-.03.89-2.5,2.67-4.67,4.89-6.1.63-.41,3.39-2.21,3.55-.46.06.67-1.04,1.48-1.43,1.95-.57.68-1.11,1.39-1.58,2.15-1.05,1.67-1.78,3.57-1.69,5.57.12,2.98,2.2,5.8,5.02,6.79,1,.35,2.17.56,2.75,1.45.29.45.36,1,.41,1.53.57,6.08-1.62,12.03-3.47,17.84Z"/>
  <path class="cls-3" d="m167.58,385.9c-7.46,3.33-16.96,4.86-28.71,4.64-7.4.09-14.34-2.63-20.52-6.03-1.42-1.32-2.84-2.64-4.25-3.96l-.1-.16h0s-.79-1.27-.79-1.27c.11-1.35,1.21-2.37,1.91-3.52,1.2-1.97,1.51-4.71,3.56-5.76.1-.05.21-.1.32-.13.29-.11.61-.15.91-.07.5.14.84.58,1.13,1,.97,1.42,1.69,3,2.61,4.45,1.38,2.19,3.23,4.09,5.38,5.53,2.81,1.89,6.08,2.98,9.35,3.9,3.84,1.09,7.75,1.99,11.71,2.46,2.32.28,4.7.41,6.97-.16,1.38-.35,2.7-.95,4.11-1.13,2.13-.27,4.31.45,6.41.21Z"/>
  <line class="cls-8" x1="46.66" y1="427.5" x2="37.86" y2="427.5"/>
  <g>
    <path class="cls-4" d="m322.4,402.19c7.81.14,15.49,4.63,17.63,12.46,2.22,10.04,1.77,7.21,2.6-.74.98-8.3,5.74-13.61,13.51-16.24,1.18-.48,2.52-.96,3.49-1.38.96-.43,1.47-.79,1.28-1.06-.14-.23-.75-.4-1.65-.54-5.01-.59-10.56-1.04-14.98-3.8-4.58-2.76-7.76-7.39-10.05-12.17-.74-1.11-1.75-5.14-3.12-4.78-.59.35-.97,1.62-1.2,2.45-2.24,9.15-3.98,20.51-13.58,24.9-.7.4-1.07.6-.63.7.79.09,4.63-.04,6.5.19l.21.02Z"/>
    <path class="cls-6" d="m341.67,422.09c-1.02,0-1.2-.82-2.62-7.23-2.16-7.88-9.93-11.55-16.67-11.67l-.27-.02c-1.13-.14-3.04-.15-4.44-.15-1.11,0-1.75,0-2.1-.05l-.1-.02c-.76-.17-.92-.71-.96-.94-.12-.79.51-1.15,1.23-1.57l.16-.09c8.22-3.75,10.43-13.18,12.38-21.5.22-.92.43-1.84.65-2.73.37-1.28.79-2.54,1.66-3.07l.26-.11c1.81-.47,2.78,1.88,3.56,3.78.24.57.48,1.17.65,1.42l.07.12c2.68,5.6,5.84,9.44,9.66,11.74,3.91,2.45,8.76,3,13.44,3.54l1.14.13c1.43.21,2.07.48,2.39,1,.18.26.24.63.14.98-.19.66-.88,1.09-1.87,1.52-.58.26-1.3.53-2.04.82-.49.19-1,.38-1.48.58-7.67,2.6-11.99,7.78-12.89,15.43-.15,1.44-.26,2.73-.35,3.79-.3,3.48-.36,4.2-1.44,4.27-.06,0-.12,0-.17,0Zm-19.23-20.9c8.98.17,16.44,5.47,18.55,13.19.13.57.27,1.2.41,1.84.07-.74.14-1.55.23-2.42,1-8.49,5.78-14.24,14.18-17.08.43-.18.95-.38,1.46-.57.47-.18.93-.36,1.35-.53l-.63-.07c-4.68-.53-9.98-1.14-14.26-3.82-4.14-2.5-7.54-6.59-10.39-12.53-.26-.41-.51-1.01-.79-1.7-.26-.64-.77-1.85-1.16-2.38-.13.27-.31.75-.54,1.54-.21.85-.42,1.75-.63,2.67-1.88,8.03-3.99,17.05-11.35,21.7,1.23.01,2.53.04,3.43.16h.13Zm37.79-5.26h0Z"/>
  </g>
  <path class="cls-6" d="m220.96,306.99c-1.76-2.34-4.62-3.71-7.52-3.66-.08-4.17-1.31-7.95-3.49-10.71-1.88-2.38-4.53-3.99-7.28-4.53,1.16-.71,2.34-1.55,3.38-2.52,3.69-3.49,4.81-8.83,2.85-13.61-1.5-3.66-4.45-5.98-7.77-7.06-1.21-3.56-4.01-6.55-7.58-7.87l-.22-.08c-.49-.18-1.51-.55-1.57-.83-.05-.23.38-.86.64-1.23.1-.14.19-.28.29-.42,1.5-2.3,1.77-5.26.72-8.14-1.14-3.14-3.69-5.64-6.64-6.52-5.14-1.55-11.14,1.07-14.12,6.02-9.86-1.43-20.17-1.04-29.88,1.15l-.47.11c-1.76.4-3.42.78-5,.56-1.99-.28-3.76-1.5-5.63-2.8-1.25-.86-2.53-1.74-3.96-2.41-6.47-3.01-15.06-.11-18.37,6.22-3.4,6.5-1.01,14.2,2.86,18.94l.34.41c.62.75,1.21,1.46,1.39,2.19.18.72-.01,1.61-.24,2.46-1.03,3.85-2.89,7.56-4.68,11.15-.55,1.12-1.11,2.24-1.65,3.36-12.6,26.41-13.41,57.97-2.31,85.01-.36.93-.71,1.87-1.06,2.81-.35.95-.68,1.84-.96,2.74-4.19-.57-8.78-1.45-12.45-3.86-9.65-6.34-14.45-4-21.09-.75-2.06,1-4.39,2.15-7.21,3.21l-.25.11c-3.19,1.72-6.49,3.49-9.96,4.95-1.25.54-2.4,1.09-3.51,1.61-5.77,2.72-9.94,4.68-20.26,3.38-3.06-.39-5.61-3.04-8.08-5.6l-.14-.15c-2.5-3.07-4.65-5.88-5.76-9.15-2.39-7.15-1.26-17.03,5.5-21.24,4.35-2.56,8.57-3.03,11.88-1.32,3.32,1.71,5.4,5.45,5.85,10.52.09,1.1,1.07,1.91,2.17,1.82,1.1-.09,1.91-1.07,1.81-2.17-.57-6.49-3.41-11.36-8-13.73-4.57-2.36-10.16-1.85-15.78,1.45-8.55,5.33-10.1,17.34-7.22,25.95,1.33,3.92,3.84,7.19,6.5,10.46l.31.33c2.81,2.92,5.99,6.23,10.46,6.79,2.39.31,4.5.44,6.4.44,7.23,0,11.39-1.96,16.06-4.16,1.08-.51,2.2-1.03,3.39-1.55,3.57-1.51,7.07-3.38,10.16-5.05,2.94-1.11,5.33-2.28,7.44-3.31,6.44-3.15,9.39-4.59,17.13.5,4.04,2.66,8.91,3.75,13.71,4.42-.12.64-.23,1.28-.33,1.93-.26,1.58-.66,3.25-1.05,4.87-.35,1.42-.7,2.89-.97,4.33-3.31,1.81-5.55,5.56-5.53,9.4.02,4.03,2.4,7.91,6.05,9.87,1.27.68,2.72,1.15,4.21,1.36.54.07,1.09.11,1.63.11,5.8,0,11.54-4.08,13.54-9.87.27-.79.62-1.98.5-3.27-.26-2.69-2.38-4.61-3.95-5.82l-.52-.4c-1.17-.9-2.27-1.75-2.8-2.84-.27-.56-.42-1.26-.44-2.06-.09-1.98.5-3.97,1.27-5.87,3.48,2.16,7.24,4.28,11.26,5.94,1.21,1.94,2.33,3.95,3.34,6,.4.81.85,1.76,1.11,2.7.37,1.34.45,2.92.23,4.84-.28,2.55-.95,5.02-1.66,7.63-.94,3.46-1.91,7.04-1.89,10.77,0,1,.09,2.29.66,3.47,1.02,2.12,3.27,3.46,6.7,3.98,2.05.31,4.11.39,6.15.39,1.13,0,2.25-.03,3.35-.05l18.18-.4c.11.02.22.04.32.05,2.05.31,4.12.39,6.16.39,1.14,0,2.26-.02,3.38-.04l21.32-.47c.72-.01,1.42-.05,2.17-.33,1.39-.54,2.46-1.85,3.01-3.7,1.27-4.31-.59-9.45-4.54-12.48-3.28-2.51-7.79-3.67-12.71-3.25-3.5.3-6.86,1.32-9.87,2.39.17-.32.37-.65.57-.98l.25-.41c1.12-1.89,2.36-4.82,1.93-8.09-.23-1.64-.87-3.16-1.43-4.5-1.22-2.87-2.45-5.74-3.7-8.61,5.7-2.17,10.41-5.23,14.21-9.22,9.19-9.96,8.06-23.85,7.06-36.1-.16-2.02-.32-3.98-.43-5.89.56-.07,1.13-.16,1.69-.27,8.53-1.62,15.59-7.01,22.43-12.21.94-.72,1.87-1.43,2.81-2.13l.17-.13c2.35-1.76,4.78-3.58,6.04-6.35,1.38-3.01.98-6.67-1.01-9.32Zm-108.68,72.22c-1.41,3-3.01,6.41-2.85,10.14.04,1.21.29,2.31.74,3.25.84,1.74,2.35,2.9,3.68,3.92l.5.39c1.13.87,2.66,2.21,2.8,3.72.05.55-.06,1.19-.35,2.02-1.71,4.95-7.06,8.43-11.92,7.77-1.14-.16-2.24-.52-3.2-1.03-2.66-1.43-4.45-4.34-4.47-7.25-.02-2.96,1.83-5.84,4.48-7l.75-.32.13-.81c.26-1.58.66-3.25,1.05-4.87.41-1.68.83-3.41,1.11-5.16.14-.84.28-1.69.45-2.53.1-.57.23-1.14.37-1.69.07-.26.15-.52.23-.78.28-.94.62-1.88,1.02-2.95.21-.57.42-1.14.65-1.71.26-.74.54-1.47.83-2.2,4.74-12.51,10.01-24.91,15.66-36.92,2.66.85,5.23,1.99,7.66,3.41-1.26,2.15-2.3,4.34-3.52,6.94l-3.92,8.36c-3.97,8.43-7.93,16.86-11.88,25.3Zm54.33,44.49c-.27.9-.72,1.55-1.21,1.74-.3.11-.75.12-1.16.13l-21.35.47c-2.98.06-6.07.13-8.99-.31-1.65-.25-3.75-.85-4.45-2.31-.31-.64-.35-1.46-.36-2.18-.01-3.33.86-6.56,1.79-9.98.7-2.6,1.44-5.3,1.74-8.07.26-2.32.16-4.27-.32-5.98-.33-1.19-.85-2.29-1.31-3.22-.51-1.04-1.05-2.08-1.61-3.1,2.89.88,5.91,1.46,9.03,1.61.85,1.96,1.69,3.92,2.52,5.88.51,1.22,1.04,2.48,1.21,3.75.33,2.4-.65,4.66-1.53,6.14l-.22.36c-.73,1.2-1.56,2.57-1.51,4.15.01.66.35,1.27.9,1.64.57.38,1.28.46,1.92.22,3.97-1.49,7.33-2.55,10.79-2.84,4.18-.36,7.96.58,10.63,2.64,2.98,2.3,4.42,6.1,3.49,9.26Zm-21.49-21.97c-.23-1.67-.87-3.18-1.43-4.51-.66-1.56-1.32-3.12-2-4.67.31.01.62.01.92.01,4.23,0,8.18-.23,11.85-.71h0c.64,1.13,1.25,2.29,1.83,3.46.42.85.85,1.77,1.11,2.7.38,1.36.45,2.94.23,4.85-.22,1.97-.67,3.9-1.22,5.98-1.35-.14-2.75-.15-4.18-.03-3.28.28-6.39,1.15-9.88,2.39.19-.34.4-.69.6-1.02l.22-.37c1.13-1.89,2.38-4.82,1.94-8.08Zm23.81-3.35c.51,1.22,1.04,2.49,1.21,3.75.33,2.4-.65,4.67-1.53,6.14l-.24.4c-.72,1.19-1.54,2.54-1.49,4.11.02.66.36,1.28.92,1.65.56.38,1.28.45,1.9.21,3.22-1.2,6.98-2.52,10.79-2.84,4.18-.35,7.95.58,10.64,2.64,2.93,2.26,4.4,6.15,3.48,9.25-.27.92-.71,1.56-1.2,1.75-.29.11-.68.12-1.16.13l-21.33.47c-.69.01-1.38.03-2.08.03.27-.45.48-.96.65-1.52,1.27-4.32-.6-9.45-4.54-12.49-1.59-1.22-3.48-2.12-5.57-2.68.56-2.11,1.01-4.1,1.24-6.19.27-2.28.16-4.24-.32-5.99-.33-1.18-.85-2.28-1.31-3.21-.43-.88-.89-1.75-1.36-2.61,2.66-.46,5.17-1.06,7.52-1.79,1.27,2.93,2.53,5.85,3.78,8.79Zm11.08-21.04c-2.98,3.13-6.61,5.64-10.91,7.56-3.81,1.7-8.16,2.93-13.06,3.69-1.06.18-2.14.32-3.26.44-3.81.43-7.93.59-12.38.51h-.01c-1.12.01-2.22-.04-3.32-.15-3.5-.34-6.88-1.26-10.1-2.52-1.83-.71-3.6-1.53-5.32-2.42-.6-.3-1.19-.62-1.78-.94-1.7-.93-3.35-1.92-4.93-2.91.02-.04.04-.08.06-.12.17-.37.34-.72.52-1.09h0c1.66-3.56,3.33-7.12,5-10.68,2.11-4.51,4.23-9.02,6.35-13.53l3.93-8.35c.97-2.08,2.05-4.42,3.33-6.61,2.19,1.6,3.21,3.25,3.05,4.9-.02.28.18.52.45.55h.05c.26,0,.47-.2.5-.46.19-2.05-1.01-4.03-3.58-5.9-.24-.17-.5-.34-.77-.52-.54-.35-1.08-.68-1.64-1-2.52-1.48-5.2-2.67-7.98-3.56-.9-.29-1.81-.55-2.73-.78-1.87-.47-3.78-.8-5.71-.99,3.69-.85,7.48-1.32,11.27-1.39,1.38-.03,2.99-.01,4.51.33,2.63.59,4.95,2.07,7.21,3.51.23.15.54.08.69-.15.15-.24.08-.55-.16-.69-2.21-1.42-4.72-3.02-7.52-3.64-1.63-.37-3.31-.39-4.74-.36-4.48.08-8.94.71-13.26,1.86-.34.09-.55.4-.52.75.04.35.32.62.67.64,2.4.14,4.78.49,7.1,1.06-5.15,10.96-9.98,22.23-14.38,33.62-.51-1.35-.98-2.72-1.42-4.09-.84-2.57-1.57-5.18-2.19-7.81,0-.02-.01-.05-.02-.08-5.26-22.38-2.92-46.49,6.96-67.34.01-.02.02-.04.03-.06.02-.05.04-.11.07-.16.53-1.11,1.08-2.21,1.63-3.31,1.21-2.43,2.45-4.92,3.47-7.51,1.08-2.17,2.01-4.4,2.29-6.79.08-.66.1-1.37-.2-1.97-.27-.55-.75-.93-1.26-1.27t-.01-.02c-.36-.55-.76-1.04-1.15-1.5l-.32-.38c-2.93-3.6-4.23-8.2-3.62-12.19,0,0,0-.02,0-.03.18-1.22.53-2.38,1.09-3.44,2.6-4.97,9.35-7.26,14.45-4.89,1.19.56,2.32,1.34,3.51,2.16,2.08,1.44,4.23,2.92,6.92,3.3,2.12.3,4.14-.16,6.09-.61l.46-.1c9.69-2.19,19.99-2.52,29.79-.96l1.09.17.49-.99c2.08-4.22,7.07-6.66,11.11-5.45,2.06.62,3.86,2.41,4.68,4.68.72,1.97.57,3.97-.41,5.46l-.25.36c-.61.89-1.44,2.1-1.1,3.6.43,1.87,2.26,2.54,3.47,2.99l.21.07c2.11.78,3.91,2.4,5.03,4.38-.31-.02-.62-.03-.93-.03-1.41,0-2.8.2-4.1.6-1.48.45-2.87,1.11-4.21,1.74-.66.31-1.31.62-1.97.9-3.01,1.29-5.87,1.46-9.02.55-2.12-.62-4.24-1.4-6.29-2.15-1.9-.7-3.87-1.42-5.85-2.02-6.17-1.87-11.25-2.06-15.55-.57-1.31.45-2.27.99-3.01,1.7-.8.76-1.32,1.73-1.69,2.49-2.77,5.73-2.63,12.77.38,18.38.35.66.74,1.31,1.14,1.95.7,1.14,1.35,2.22,1.79,3.4.89,2.4.79,5.14.7,7.79l-.02.46c-.18,5.22-.15,11.36,1.41,17.32,1.15,4.42,3.69,10.59,9.18,14.87,6.26,4.87,14.49,5.79,20.96,6.05.96.04,1.98.07,3.03.07.77,0,1.55-.02,2.35-.06.11,1.91.27,3.85.43,5.87,1,12.21,2.02,24.83-6.26,33.81Zm40.14-61.86c-1.05,2.31-3.27,3.97-5.42,5.58l-.17.13c-.94.7-1.88,1.42-2.83,2.14-6.64,5.06-13.52,10.3-21.58,11.84-.47.09-.94.16-1.42.22-1,.15-2.01.23-2.99.28-1.83.09-3.59.05-5.2-.02-6.17-.24-14-1.11-19.81-5.63-3.94-3.07-6.95-7.97-8.48-13.8-1.49-5.71-1.52-11.67-1.34-16.74l.02-.46c.1-2.84.2-5.79-.83-8.56-.5-1.35-1.24-2.57-1.96-3.74-.37-.61-.74-1.22-1.08-1.85-2.71-5.06-2.84-11.41-.34-16.57.29-.61.7-1.37,1.27-1.92.53-.49,1.25-.89,2.29-1.25,1.69-.59,3.53-.88,5.55-.88,2.61,0,5.52.49,8.76,1.47,1.93.59,3.87,1.3,5.74,1.99,2.08.76,4.24,1.55,6.42,2.19,3.57,1.04,6.96.83,10.36-.63.69-.29,1.36-.61,2.04-.93,1.34-.63,2.6-1.22,3.94-1.63,1.66-.51,3.52-.63,5.35-.35,1.11.16,2.22.48,3.25.95,2.32,1.03,4.3,2.83,5.36,5.41,1.64,4.01.71,8.48-2.37,11.39-1.77,1.67-4.08,2.91-5.88,3.81-.49.24-.72.78-.56,1.3.16.51.67.82,1.2.74,3.14-.47,6.73,1.1,8.94,3.9,2.03,2.56,3.11,6.16,3.06,10.17-1.46.9-2.96,1.8-4.58,2.37-1.68.6-3.51.84-5.29,1.08-2.02.27-4.12.55-6.06,1.34-3.33,1.37-5.83,4.09-7.63,6.3-.17.21-.14.53.08.7.09.08.2.12.31.12.15,0,.29-.07.39-.19,1.72-2.12,4.11-4.72,7.23-6,1.82-.75,3.76-1,5.82-1.28,1.82-.24,3.71-.49,5.49-1.12,1.49-.53,2.88-1.31,4.21-2.12l.57-.07.33-.05c.68-.1,1.37-.12,2.04.02,1.76.37,3.77,1.41,5.01,3.06,1.53,2.04,1.85,4.97.79,7.29Z"/>
  <g>
    <path class="cls-4" d="m515.54,212.38c-1.44.99-3.06,1.94-4.18,1.62l-4.02-5.26-2.92-3.82,4.21-2.97,5.59-3.96,3.09,5.12,2.62,4.34c-.52.91-.94,2.65-1.89,3.22-.6.33-1.51,1.03-2.5,1.71Z"/>
    <path class="cls-4" d="m520.15,214.74c-.59.59-1.29,1.12-2.04,1.52-2.09,1.12-4.55,1.21-5.98-1.26.98.16,2.55-.81,3.96-1.79,1.01-.7,1.93-1.41,2.5-1.71,1.09-.65,1.44-1.97,1.96-3.02,1.52,1.9,1.73,4.73-.4,6.26Z"/>
    <path class="cls-4" d="m506,127c-38.87,0-70.5,41.5-70.5,92.5s31.63,92.5,70.5,92.5,70.5-41.5,70.5-92.5-31.63-92.5-70.5-92.5Zm0,163c-24.81,0-45-31.63-45-70.5s20.19-70.5,45-70.5,45,31.63,45,70.5-20.19,70.5-45,70.5Z"/>
    <path class="cls-6" d="m564.99,220.06c.01-.19.01-.37.01-.56,0-10.94-1.57-21.39-4.42-30.93,3.15-1.08,5.42-4.07,5.42-7.57,0-4.41-3.59-8-8-8-1.15,0-2.24.24-3.23.69-9.93-20.11-26.19-33.78-44.78-35.5.01-.06.01-.13.01-.19,0-1.66-1.34-3-3-3s-3,1.34-3,3v.06c-31.61,1.45-57,37.43-57,81.44s24.86,79.24,56.01,81.39c-.01.04-.01.07-.01.11,0,1.66,1.34,3,3,3s3-1.34,3-3c0-.04,0-.07-.01-.11,27.11-1.87,49.45-29.14,54.8-64.9.07.01.14.01.21.01,4.41,0,8-3.59,8-8,0-4.07-3.06-7.45-7.01-7.94Zm-6.99-46.06c3.86,0,7,3.14,7,7,0,3.05-1.96,5.66-4.7,6.61-.4-1.29-.82-2.55-1.27-3.8,1.15-.41,1.97-1.51,1.97-2.81,0-1.66-1.34-3-3-3-.41,0-.8.08-1.15.23-.52-1.24-1.07-2.45-1.65-3.64.85-.38,1.8-.59,2.8-.59Zm-1.99,4.76c-.62.54-1.01,1.35-1.01,2.24,0,1.66,1.34,3,3,3h.05c.45,1.27.88,2.56,1.29,3.87-.43.09-.88.13-1.34.13-3.86,0-7-3.14-7-7,0-2.52,1.33-4.73,3.33-5.95.59,1.21,1.15,2.45,1.68,3.71Zm-47.22,121.15c-.43-1.12-1.52-1.91-2.79-1.91s-2.36.79-2.79,1.91c-30.69-2.03-55.21-37.32-55.21-80.41s25.04-79.12,56.19-80.46h.01c.41,1.15,1.51,1.96,2.8,1.96s2.31-.75,2.76-1.83c18.31,1.63,34.34,15.11,44.13,34.97-2.33,1.4-3.89,3.95-3.89,6.86,0,4.41,3.59,8,8,8,.56,0,1.1-.06,1.63-.16,2.82,9.45,4.37,19.81,4.37,30.66v.5c-4.41,0-8,3.59-8,8,0,4,2.95,7.32,6.79,7.91-5.29,35.32-27.31,62.23-54,64Zm52.21-71.91c0,1.46,1.04,2.67,2.41,2.94-.13,1.33-.29,2.66-.48,3.97-3.36-.51-5.93-3.42-5.93-6.91,0-3.86,3.13-6.99,6.99-7-.02,1.34-.06,2.68-.13,4.01-1.59.07-2.86,1.38-2.86,2.99Zm3,7h-.07c.19-1.33.35-2.67.48-4.03,1.46-.2,2.59-1.45,2.59-2.97,0-1.36-.9-2.5-2.14-2.87.07-1.34.11-2.69.12-4.05,3.4.47,6.02,3.39,6.02,6.92,0,3.86-3.14,7-7,7Z"/>
    <path class="cls-6" d="m506,315c-40.53,0-73.5-42.84-73.5-95.5s32.97-95.5,73.5-95.5,73.5,42.84,73.5,95.5-32.97,95.5-73.5,95.5Zm0-188c-38.87,0-70.5,41.5-70.5,92.5s31.63,92.5,70.5,92.5,70.5-41.5,70.5-92.5-31.63-92.5-70.5-92.5Z"/>
    <path class="cls-6" d="m506,290c-24.81,0-45-31.63-45-70.5s20.19-70.5,45-70.5,45,31.63,45,70.5-20.19,70.5-45,70.5Zm0-138c-23.16,0-42,30.28-42,67.5s18.84,67.5,42,67.5,42-30.28,42-67.5-18.84-67.5-42-67.5Z"/>
    <g>
      <path class="cls-4" d="m508.03,187.73c-1.35,2.17-3.25,3.83-5.34,5.25-.09.06-.18.12-.28.18l-57.75-87.76,19.33,9.37,41.04,68c.22.36,2.86,4.72,3,4.96Z"/>
      <path class="cls-3" d="m444.66,105.4l-.46,20.77,49.04,64.13c.21.27.57.75,1,1.31.07.09.15.19.23.3,1.13,1.48,2.6,3.4,3.09,4.04,1.62-.87,3.28-1.76,4.85-2.79l-57.75-87.76Z"/>
      <g>
        <path class="cls-7" d="m515.55,194.64c.77-.52,1.54-1.07,2.17-1.69-.66.53-1.39,1.1-2.17,1.69Zm-.39-9.97c1.88.49,3.52,2.07,3.97,3.95-.31-2.1-2.04-3.55-3.97-3.95Zm-13.36,19.67c1.36-.9,3.53-2.41,5.63-3.89-2,1.37-3.94,2.7-5.63,3.89Zm-9.5-4.03c-.4,1.75.32,3.61,1.62,4.82-1.25-1.25-1.95-3.1-1.62-4.82Z"/>
        <path class="cls-7" d="m522.89,208.49l-3.84-6.37-3.2-5.29c7.5-3.41,7.1-13.65-1.66-14.33-2.19,0-4.14,1-5.43,2.58l-2.04-3.39c-.25-.4-41.11-68.13-41.33-68.46l-22.67-10.99-.54,24.59,49.37,64.55,2.83,3.71c-10.14,5.36.11,18.98,8.41,10.98l2.8,3.66c2.37,2.52,5.87,9.87,10.11,9.35,1.18-.08,2.41-.48,3.55-1.11,3.4-1.89,5.94-5.87,3.64-9.48Zm-29.65-18.19l-49.04-64.13.46-20.77,19.33,9.37,41.04,68c.22.36,2.86,4.72,3,4.96-1.35,2.17-3.25,3.83-5.34,5.25-1.65,1.1-3.42,2.05-5.13,2.97-.72-.94-3.55-4.64-4.32-5.65Zm8.56,14.04c-.65.46-1.26.89-1.82,1.3-2.04,1.42-4.08,1.08-5.56-.07-.17-.13-.34-.27-.5-.44-1.3-1.21-2.02-3.07-1.62-4.82.01-.06.02-.12.04-.18.02-.09.05-.17.07-.25.31-1.06,1.03-2.03,2.3-2.72,0,.16.01.31.03.45,0,.07.01.15.04.21,0,.05,0,.1.03.15.01.06.03.11.05.16.04.11.09.2.14.28h0c.07.11.14.19.22.27.39.37.99.5,1.73.43.07-.01.14-.02.22-.03.02,0,.04,0,.06,0,.07,0,.15-.02.22-.03.39-.07.82-.19,1.26-.35.16-.06.32-.12.49-.19.65-.25,1.34-.59,2.05-.98.2-.11.4-.22.6-.34.84-.49,1.69-1.05,2.52-1.65.17-.12.33-.24.49-.36,1-.74,1.95-1.54,2.8-2.35.22-.21.43-.42.63-.62.22-.21.42-.42.59-.63.19-.2.37-.41.54-.61.26-.31.5-.61.69-.9.21-.3.39-.59.52-.86.08-.14.14-.27.19-.4.12-.27.2-.52.23-.75.03-.18.04-.34.02-.5,0-.03,0-.05-.01-.08,0-.05-.01-.1-.03-.14-.03-.13-.08-.25-.15-.36-.05-.07-.1-.13-.16-.19s-.13-.12-.2-.17c-.04-.03-.09-.07-.13-.09-.05-.03-.1-.06-.15-.08.13-.18.26-.34.4-.48.06-.07.11-.12.17-.16,1.29-1.28,2.89-1.54,4.35-1.13,1.93.4,3.66,1.85,3.97,3.95.02.06.02.11.03.17.25,1.24-.02,2.6-1.09,3.87-.11.09-.23.19-.35.29-.63.62-1.4,1.17-2.17,1.69-.01,0-.02.02-.03.02-.72.55-1.49,1.11-2.29,1.68-.04.03-.09.06-.14.1-.1.07-.22.15-.35.25-.13.09-.27.19-.43.3-.65.49-1.32.96-2,1.43-.44.31-.9.64-1.39.98-.04.02-.07.05-.1.08-.3.2-.59.41-.89.62-.17.11-.33.23-.5.35-2.1,1.48-4.27,2.99-5.63,3.89Zm9.56,9.66l-4.02-5.26-2.92-3.82,4.21-2.97,5.59-3.96,3.09,5.12,2.62,4.34c-.52.91-.94,2.65-1.89,3.22-.6.33-1.51,1.03-2.5,1.71-1.44.99-3.06,1.94-4.18,1.62Zm8.79.74c-.59.59-1.29,1.12-2.04,1.52-2.09,1.12-4.55,1.21-5.98-1.26.98.16,2.55-.81,3.96-1.79,1.01-.7,1.93-1.41,2.5-1.71,1.09-.65,1.44-1.97,1.96-3.02,1.52,1.9,1.73,4.73-.4,6.26Z"/>
        <path class="cls-4" d="m519.19,189.5c.08,1.44-.55,2.53-1.47,3.45-.63.62-1.4,1.17-2.17,1.69-.01,0-.02.02-.03.02-.82.56-1.64,1.1-2.29,1.68-.69.49-2.38,1.7-4.31,3.06-.04.02-.07.05-.1.08-.3.2-.59.41-.89.62-.17.11-.33.23-.5.35-2.1,1.48-4.27,2.99-5.63,3.89-.48.32-.86.56-1.1.7-2.2,2.01-4.59,1.78-6.28.53-.17-.13-.34-.27-.5-.44-1.3-1.21-2.02-3.07-1.62-4.82.01-.06.02-.12.04-.18.02-.09.05-.17.07-.25.34-1.01,1.07-1.97,2.3-2.72-.08,7.4,20.77-8.24,15.53-10.72.13-.17.26-.33.4-.48.06-.07.11-.12.17-.16,1.19-1.15,2.83-1.46,4.35-1.13,1.93.4,3.66,1.85,3.97,3.95.02.06.02.11.03.17.03.23.04.47.03.71Z"/>
      </g>
    </g>
  </g>
</svg>