<svg width="18" height="14" viewBox="0 0 18 14" fill="none" xmlns="http://www.w3.org/2000/svg">
<g clip-path="url(#clip0_290_568)">
<path d="M6.3 7C7.25478 7 8.17045 6.63125 8.84558 5.97487C9.52072 5.3185 9.9 4.42826 9.9 3.5C9.9 2.57174 9.52072 1.6815 8.84558 1.02513C8.17045 0.368749 7.25478 0 6.3 0C5.34522 0 4.42955 0.368749 3.75442 1.02513C3.07928 1.6815 2.7 2.57174 2.7 3.5C2.7 4.42826 3.07928 5.3185 3.75442 5.97487C4.42955 6.63125 5.34522 7 6.3 7ZM5.01469 8.3125C2.24437 8.3125 0 10.4945 0 13.1879C0 13.6363 0.374063 14 0.835312 14H11.7647C11.8153 14 11.8631 13.9945 11.9137 13.9863C9.76781 12.4797 9.10687 10.1309 9.01406 8.51211C8.56125 8.38086 8.08312 8.3125 7.58812 8.3125H5.01469ZM13.6997 6.17148L10.3247 7.48398C10.0687 7.58516 9.9 7.82578 9.9 8.09375C9.9 9.82461 10.6284 12.7094 13.6912 13.9508C13.8572 14.0191 14.0456 14.0191 14.2116 13.9508C17.2716 12.7094 18 9.82461 18 8.09375C18 7.82578 17.8313 7.58516 17.5753 7.48398L14.2003 6.17148C14.04 6.10859 13.86 6.10859 13.6997 6.17148ZM16.6331 8.53125C16.5234 9.91758 15.8681 11.7223 13.95 12.6246V7.48672L16.6331 8.53125Z" fill="#013F4E"/>
</g>
<defs>
<clipPath id="clip0_290_568">
<rect width="18" height="14" fill="white"/>
</clipPath>
</defs>
</svg>
