<?xml version="1.0" encoding="utf-8"?>
<!-- Generator: Adobe Illustrator 28.0.0, SVG Export Plug-In . SVG Version: 6.00 Build 0)  -->
<svg version="1.1" id="Слой_1" xmlns="http://www.w3.org/2000/svg" xmlns:xlink="http://www.w3.org/1999/xlink" x="0px" y="0px"
	 viewBox="0 0 640 640" style="enable-background:new 0 0 640 640;" xml:space="preserve">
<style type="text/css">
	.st0{fill:#FFFFFF;}
</style>
<path class="st0" d="M320,72C183,72,72,183,72,320s111,248,248,248s248-111,248-248S457,72,320,72z M435,240.7
	c-3.7,39.2-19.9,134.4-28.1,178.3c-3.5,18.6-10.3,24.8-16.9,25.4c-14.4,1.3-25.3-9.5-39.3-18.7c-21.8-14.3-34.2-23.2-55.3-37.2
	c-24.5-16.1-8.6-25,5.3-39.5c3.7-3.8,67.1-61.5,68.3-66.7c0.2-0.7,0.3-3.1-1.2-4.4c-1.5-1.3-3.6-0.8-5.1-0.5
	c-2.2,0.5-37.1,23.5-104.6,69.1c-9.9,6.8-18.9,10.1-26.9,9.9c-8.9-0.2-25.9-5-38.6-9.1c-15.5-5-27.9-7.7-26.8-16.3
	c0.6-4.5,6.7-9,18.4-13.7c72.3-31.5,120.5-52.3,144.6-62.3c68.9-28.6,83.2-33.6,92.5-33.8c2.1,0,6.6,0.5,9.6,2.9
	c2,1.7,3.2,4.1,3.5,6.7c0.5,3.2,0.6,6.5,0.4,9.8L435,240.7z"/>
</svg>
