<?xml version="1.0" encoding="utf-8"?>
<!-- Generator: Adobe Illustrator 28.0.0, SVG Export Plug-In . SVG Version: 6.00 Build 0)  -->
<svg version="1.1" id="Слой_1" xmlns="http://www.w3.org/2000/svg" xmlns:xlink="http://www.w3.org/1999/xlink" x="0px" y="0px"
	 viewBox="0 0 640 640" style="enable-background:new 0 0 640 640;" xml:space="preserve">
<style type="text/css">
	.st0{fill:#013F4E;}
</style>
<path class="st0" d="M301,16.5h147.1c15.1,0,29.5,6,40.2,16.7l80.5,80.5c10.7,10.7,16.7,25.1,16.7,40.2v260.9
	c0,31.4-25.5,56.9-56.9,56.9H301c-31.4,0-56.9-25.5-56.9-56.9V73.4C244.1,42,269.6,16.5,301,16.5z M111.3,168.3h94.8v75.9h-75.9
	v303.5h227.6v-37.9h75.9v56.9c0,31.4-25.5,56.9-56.9,56.9H111.3c-31.4,0-56.9-25.5-56.9-56.9V225.2
	C54.4,193.7,79.9,168.3,111.3,168.3z"/>
</svg>
