<?xml version="1.0" encoding="utf-8"?>
<!-- Generator: Adobe Illustrator 28.0.0, SVG Export Plug-In . SVG Version: 6.00 Build 0)  -->
<svg version="1.1" id="Слой_1" xmlns="http://www.w3.org/2000/svg" xmlns:xlink="http://www.w3.org/1999/xlink" x="0px" y="0px"
	 viewBox="0 0 640 640" style="enable-background:new 0 0 640 640;" xml:space="preserve">
<style type="text/css">
	.st0{fill:#013F4E;}
</style>
<path class="st0" d="M573.2,45.1c-25.4-25.4-66.5-25.4-91.9,0l-34.9,34.8L560,193.5l34.9-34.9c25.4-25.4,25.4-66.5,0-91.9
	L573.2,45.1z M226.1,300.3c-7.1,7.1-12.5,15.8-15.7,25.4l-34.3,103c-3.4,10-0.7,21,6.7,28.5s18.5,10.1,28.5,6.7l103-34.3
	c9.5-3.1,18.2-8.6,25.4-15.7l194.1-194.2L420.2,106.1L226.1,300.3z M137.4,94.1C75.9,94.1,26,144,26,205.5v297.1
	C26,564.1,75.9,614,137.4,614h297.1c61.5,0,111.4-49.9,111.4-111.4V391.2c0-20.5-16.6-37.1-37.1-37.1s-37.1,16.6-37.1,37.1v111.4
	c0,20.5-16.6,37.1-37.1,37.1H137.4c-20.5,0-37.1-16.6-37.1-37.1V205.5c0-20.5,16.6-37.1,37.1-37.1h111.4c20.5,0,37.1-16.6,37.1-37.1
	s-16.6-37.1-37.1-37.1H137.4z"/>
</svg>
