<?xml version="1.0" encoding="utf-8"?>
<!-- Generator: Adobe Illustrator 28.0.0, SVG Export Plug-In . SVG Version: 6.00 Build 0)  -->
<svg version="1.1" id="Слой_1" xmlns="http://www.w3.org/2000/svg" xmlns:xlink="http://www.w3.org/1999/xlink" x="0px" y="0px"
	 viewBox="0 0 512 512" style="enable-background:new 0 0 512 512;" xml:space="preserve">
<style type="text/css">
	.st0{fill:#EB5757;}
</style>
<path class="st0" d="M160,0c17.7,0,32,14.3,32,32v32h128V32c0-17.7,14.3-32,32-32s32,14.3,32,32v32h48c26.5,0,48,21.5,48,48v48H32
	v-48c0-26.5,21.5-48,48-48h48V32C128,14.3,142.3,0,160,0z M32,192h448v272c0,26.5-21.5,48-48,48H80c-26.5,0-48-21.5-48-48V192z
	 M96,272v32c0,8.8,7.2,16,16,16h32c8.8,0,16-7.2,16-16v-32c0-8.8-7.2-16-16-16h-32C103.2,256,96,263.2,96,272z M224,272v32
	c0,8.8,7.2,16,16,16h32c8.8,0,16-7.2,16-16v-32c0-8.8-7.2-16-16-16h-32C231.2,256,224,263.2,224,272z M368,256c-8.8,0-16,7.2-16,16
	v32c0,8.8,7.2,16,16,16h32c8.8,0,16-7.2,16-16v-32c0-8.8-7.2-16-16-16H368z M96,400v32c0,8.8,7.2,16,16,16h32c8.8,0,16-7.2,16-16
	v-32c0-8.8-7.2-16-16-16h-32C103.2,384,96,391.2,96,400z M240,384c-8.8,0-16,7.2-16,16v32c0,8.8,7.2,16,16,16h32c8.8,0,16-7.2,16-16
	v-32c0-8.8-7.2-16-16-16H240z M352,400v32c0,8.8,7.2,16,16,16h32c8.8,0,16-7.2,16-16v-32c0-8.8-7.2-16-16-16h-32
	C359.2,384,352,391.2,352,400z"/>
</svg>
