<?xml version="1.0" encoding="utf-8"?>
<!-- Generator: Adobe Illustrator 28.0.0, SVG Export Plug-In . SVG Version: 6.00 Build 0)  -->
<svg version="1.1" id="Слой_1" xmlns="http://www.w3.org/2000/svg" xmlns:xlink="http://www.w3.org/1999/xlink" x="0px" y="0px"
	 viewBox="0 0 15.9 15.9" style="enable-background:new 0 0 15.9 15.9;" xml:space="preserve">
<style type="text/css">
	.st0{fill:#013F4E;}
</style>
<path class="st0" d="M11.7,3.4l3.7,3.7c0.2,0.2,0.4,0.5,0.4,0.9c0,0.3-0.1,0.6-0.4,0.9l-3.7,3.7c-0.2,0.2-0.5,0.3-0.7,0.3
	c-0.6,0-1.1-0.5-1.1-1.1V9.9H6c-0.6,0-1-0.4-1-1V7c0-0.6,0.4-1,1-1h3.9V4.2c0-0.6,0.5-1.1,1.1-1.1C11.2,3.1,11.5,3.2,11.7,3.4z
	 M5,3.1H3.1c-0.6,0-1,0.4-1,1v7.8c0,0.6,0.4,1,1,1H5c0.6,0,1,0.4,1,1s-0.4,1-1,1H3.1c-1.7,0-2.9-1.3-2.9-2.9V4.1
	c0-1.7,1.3-2.9,2.9-2.9H5c0.6,0,1,0.4,1,1S5.6,3.1,5,3.1z"/>
</svg>
