<?xml version="1.0" encoding="utf-8"?>
<!-- Generator: Adobe Illustrator 28.0.0, SVG Export Plug-In . SVG Version: 6.00 Build 0)  -->
<svg version="1.1" id="Слой_1" xmlns="http://www.w3.org/2000/svg" xmlns:xlink="http://www.w3.org/1999/xlink" x="0px" y="0px"
	 viewBox="0 0 16 16" style="enable-background:new 0 0 16 16;" xml:space="preserve">
<style type="text/css">
	.st0{fill:#5098C7;}
</style>
<path class="st0" d="M2.3,2.3L1.3,1.3C0.8,0.8,0,1.1,0,1.8v3.4C0,5.7,0.3,6,0.8,6h3.4c0.7,0,1-0.8,0.5-1.3l-1-1C4.8,2.7,6.3,2,8,2
	c3.3,0,6,2.7,6,6s-2.7,6-6,6c-1.3,0-2.5-0.4-3.4-1.1c-0.5-0.3-1.1-0.2-1.4,0.2S3,14.2,3.4,14.6C4.7,15.5,6.3,16,8,16
	c4.4,0,8-3.6,8-8s-3.6-8-8-8C5.8,0,3.8,0.9,2.3,2.3z M8,4C7.6,4,7.2,4.3,7.2,4.8V8c0,0.2,0.1,0.4,0.2,0.5l2.2,2.2
	c0.3,0.3,0.8,0.3,1.1,0s0.3-0.8,0-1.1l-2-2V4.8C8.7,4.3,8.4,4,8,4L8,4z"/>
</svg>
