<?xml version="1.0" encoding="utf-8"?>
<!-- Generator: Adobe Illustrator 28.0.0, SVG Export Plug-In . SVG Version: 6.00 Build 0)  -->
<svg version="1.1" id="Слой_1" xmlns="http://www.w3.org/2000/svg" xmlns:xlink="http://www.w3.org/1999/xlink" x="0px" y="0px"
	 viewBox="0 0 512 512" style="enable-background:new 0 0 512 512;" xml:space="preserve">
<style type="text/css">
	.st0{fill:#013F4E;}
</style>
<path class="st0" d="M185.2,28c0-13.1-10.5-23.6-23.6-23.6S138.1,14.9,138.1,28v39.3H98.8c-34.7,0-62.9,28.2-62.9,62.9v15.7v47.2
	v251.6c0,34.7,28.2,62.9,62.9,62.9h314.5c34.7,0,62.9-28.2,62.9-62.9V193.1v-47.2v-15.7c0-34.7-28.2-62.9-62.9-62.9h-39.3V28
	c0-13.1-10.5-23.6-23.6-23.6c-13.1,0-23.6,10.5-23.6,23.6v39.3H185.2V28z M83,193.1H429v251.6c0,8.6-7.1,15.7-15.7,15.7H98.8
	c-8.6,0-15.7-7.1-15.7-15.7V193.1z"/>
<path class="st0" d="M231.4,256.5l13.1,22.2H244h-27c-8.3,0-15-6.7-15-15c0-8.3,6.7-15,15-15h0.8
	C223.4,248.7,228.6,251.6,231.4,256.5z M183.9,263.7c0,5.4,1.3,10.5,3.6,15h-15.6c-6.6,0-12,5.4-12,12v24c0,6.6,5.4,12,12,12h168.2
	c6.6,0,12-5.4,12-12v-24c0-6.6-5.4-12-12-12h-15.6c2.3-4.5,3.6-9.6,3.6-15c0-18.2-14.8-33-33-33h-0.8c-12,0-23.1,6.3-29.2,16.7
	l-9,15.4l-9-15.4c-6.1-10.4-17.2-16.7-29.2-16.7H217C198.7,230.7,183.9,245.5,183.9,263.7z M310.1,263.7c0,8.3-6.7,15-15,15h-27
	h-0.5l13.1-22.2c2.9-4.8,8-7.8,13.6-7.8h0.8C303.3,248.7,310.1,255.4,310.1,263.7z M171.9,338.8v66.1c0,9.9,8.1,18,18,18H244v-84.1
	H171.9z M268,422.9h54.1c9.9,0,18-8.1,18-18v-66.1H268V422.9z"/>
</svg>
