<?xml version="1.0" encoding="utf-8"?>
<!-- Generator: Adobe Illustrator 28.0.0, SVG Export Plug-In . SVG Version: 6.00 Build 0)  -->
<svg version="1.1" id="Слой_1" xmlns="http://www.w3.org/2000/svg" xmlns:xlink="http://www.w3.org/1999/xlink" x="0px" y="0px"
	 viewBox="0 0 15 15" style="enable-background:new 0 0 15 15;" xml:space="preserve">
<style type="text/css">
	.st0{fill:#013F4E;}
</style>
<path class="st0" d="M3.8,3.8c0,2.1,1.7,3.7,3.7,3.7s3.7-1.7,3.7-3.7S9.6,0,7.5,0S3.8,1.7,3.8,3.8z M6.5,9.6l0.5,0.9l-1,3.6L5,9.8
	C5,9.6,4.8,9.4,4.5,9.5C2.5,10,1,11.9,1,14.1C1,14.6,1.4,15,1.9,15h3.8c0,0,0,0,0,0h0.2h3.3h0.2c0,0,0,0,0,0h3.8
	c0.5,0,0.9-0.4,0.9-0.9c0-2.2-1.5-4-3.6-4.6C10.2,9.4,10,9.6,10,9.8l-1,4.3l-1-3.6l0.5-0.9c0.2-0.3,0-0.7-0.4-0.7H7.5H6.9
	C6.6,8.9,6.3,9.3,6.5,9.6L6.5,9.6z"/>
</svg>
