<?xml version="1.0" encoding="utf-8"?>
<!-- Generator: Adobe Illustrator 28.0.0, SVG Export Plug-In . SVG Version: 6.00 Build 0)  -->
<svg version="1.1" id="Слой_1" xmlns="http://www.w3.org/2000/svg" xmlns:xlink="http://www.w3.org/1999/xlink" x="0px" y="0px"
	 viewBox="0 0 14 16" style="enable-background:new 0 0 14 16;" xml:space="preserve">
<style type="text/css">
	.st0{fill:#EB5757;}
</style>
<path class="st0" d="M0,2.5C0,1.7,0.7,1,1.5,1h3C5.3,1,6,1.7,6,2.5v3C6,6.3,5.3,7,4.5,7h-3C0.7,7,0,6.3,0,5.5V2.5z M2,3v2h2V3H2z
	 M0,10.5C0,9.7,0.7,9,1.5,9h3C5.3,9,6,9.7,6,10.5v3C6,14.3,5.3,15,4.5,15h-3C0.7,15,0,14.3,0,13.5V10.5z M2,11v2h2v-2H2z M9.5,1h3
	C13.3,1,14,1.7,14,2.5v3C14,6.3,13.3,7,12.5,7h-3C8.7,7,8,6.3,8,5.5v-3C8,1.7,8.7,1,9.5,1z M12,3h-2v2h2V3z M8,9.5
	C8,9.2,8.2,9,8.5,9h2C10.8,9,11,9.2,11,9.5s0.2,0.5,0.5,0.5h1c0.3,0,0.5-0.2,0.5-0.5S13.2,9,13.5,9S14,9.2,14,9.5v3
	c0,0.3-0.2,0.5-0.5,0.5h-2c-0.3,0-0.5-0.2-0.5-0.5S10.8,12,10.5,12S10,12.2,10,12.5v2c0,0.3-0.2,0.5-0.5,0.5h-1
	C8.2,15,8,14.8,8,14.5V9.5z M11.5,15c-0.3,0-0.5-0.2-0.5-0.5s0.2-0.5,0.5-0.5s0.5,0.2,0.5,0.5S11.8,15,11.5,15z M13.5,15
	c-0.3,0-0.5-0.2-0.5-0.5s0.2-0.5,0.5-0.5s0.5,0.2,0.5,0.5S13.8,15,13.5,15z"/>
</svg>
