<?xml version="1.0" encoding="utf-8"?>
<!-- Generator: Adobe Illustrator 28.0.0, SVG Export Plug-In . SVG Version: 6.00 Build 0)  -->
<svg version="1.1" id="Слой_1" xmlns="http://www.w3.org/2000/svg" xmlns:xlink="http://www.w3.org/1999/xlink" x="0px" y="0px"
	 viewBox="0 0 640 640" style="enable-background:new 0 0 640 640;" xml:space="preserve">
<style type="text/css">
	.st0{fill:#013F4E;}
</style>
<path class="st0" d="M433.2,320c0,26.2-1.4,51.4-3.9,75.5H210.6c-2.6-24.1-3.9-49.3-3.9-75.5s1.4-51.4,3.9-75.5h218.7
	C432,268.6,433.2,293.8,433.2,320z M467.2,244.5h145.2c6.3,24.2,9.6,49.4,9.6,75.5s-3.3,51.3-9.6,75.5H467.2
	c2.5-24.3,3.8-49.5,3.8-75.5S469.7,268.8,467.2,244.5z M600.1,206.8H462.4c-11.8-75.4-35.2-138.5-65.2-178.8
	c92.4,24.4,167.5,91.4,202.8,178.8H600.1z M424.2,206.8H215.8c7.2-42.9,18.3-80.9,31.9-111.7c12.4-27.8,26.2-48,39.5-60.8
	C300.4,21.8,311.4,18,320,18c8.6,0,19.6,3.8,32.8,16.3C366.1,47,379.9,67.2,392.3,95C406,125.7,417,163.7,424.2,206.8z M177.6,206.8
	H39.9C75.3,119.3,150.4,52.3,242.8,27.9C212.8,68.3,189.4,131.4,177.6,206.8L177.6,206.8z M27.6,244.5h145.2
	c-2.5,24.3-3.8,49.5-3.8,75.5s1.3,51.2,3.8,75.5H27.6C21.3,371.3,18,346.1,18,320S21.3,268.7,27.6,244.5z M247.7,544.8
	c-13.7-30.7-24.7-68.7-31.9-111.6h208.3c-7.2,42.9-18.3,80.9-31.9,111.6c-12.4,27.8-26.2,48-39.5,60.8
	C339.6,618.2,328.6,622,320,622s-19.6-3.8-32.8-16.3c-13.3-12.7-27.1-32.9-39.5-60.8V544.8z M177.6,433.2
	c11.8,75.4,35.2,138.5,65.2,178.8c-92.5-24.4-167.5-91.4-202.9-178.8H177.6z M600.1,433.2c-35.4,87.4-110.4,154.4-202.8,178.8
	c30.1-40.3,53.3-103.5,65.2-178.8H600.1L600.1,433.2z"/>
</svg>
