<?xml version="1.0" encoding="utf-8"?>
<!-- Generator: Adobe Illustrator 28.0.0, SVG Export Plug-In . SVG Version: 6.00 Build 0)  -->
<svg version="1.1" id="Слой_1" xmlns="http://www.w3.org/2000/svg" xmlns:xlink="http://www.w3.org/1999/xlink" x="0px" y="0px"
	 viewBox="0 0 640 640" style="enable-background:new 0 0 640 640;" xml:space="preserve">
<style type="text/css">
	.st0{fill:#EB5757;}
</style>
<path class="st0" d="M320,25.1c10.6,0,20.3,6,24.9,15.6l79,162.8l176.5,26c10.4,1.5,19,8.8,22.2,18.8c3.2,10,0.6,20.9-6.8,28.2
	l-128,127L518,582.6c1.7,10.4-2.5,20.9-11.2,27.1c-8.6,6.2-19.9,6.9-29.1,2l-157.8-84.3l-157.6,84.2c-9.3,5-20.6,4.3-29.1-2
	c-8.5-6.2-12.9-16.7-11.2-27.1l30.2-179.3l-128-126.8c-7.5-7.4-10-18.3-6.8-28.2c3.2-9.9,11.9-17.2,22.2-18.8l176.5-26l79-162.8
	C299.8,31,309.4,25.1,320,25.1z M320,116.1l-60.5,124.6c-4,8.2-11.8,13.9-20.9,15.3l-136.3,20l99,98c6.3,6.3,9.3,15.3,7.8,24.2
	l-23.4,137.9L307,471.5c8.2-4.4,18-4.4,26,0l121.2,64.7L431,398.4c-1.5-8.9,1.4-17.9,7.8-24.2l99-98L401.5,256
	c-9-1.4-16.8-7-20.9-15.3L320,116.1z"/>
</svg>
