<?xml version="1.0" encoding="utf-8"?>
<!-- Generator: Adobe Illustrator 28.0.0, SVG Export Plug-In . SVG Version: 6.00 Build 0)  -->
<svg version="1.1" id="Слой_1" xmlns="http://www.w3.org/2000/svg" xmlns:xlink="http://www.w3.org/1999/xlink" x="0px" y="0px"
	 viewBox="0 0 15.9 15.9" style="enable-background:new 0 0 15.9 15.9;" xml:space="preserve">
<style type="text/css">
	.st0{fill:#013F4E;}
</style>
<path class="st0" d="M15.5,1.5C15.9,1.4,16.1,1,16,0.6c-0.1-0.4-0.6-0.7-1-0.6L1.6,4C1.3,4.1,1.1,4.2,0.8,4.4C0.3,4.7,0,5.3,0,6v0.1
	v3.4V14c0,1.1,0.9,2,2,2h12c1.1,0,2-0.9,2-2V6c0-1.1-0.9-2-2-2H6.8L15.5,1.5z M11.5,7.5c1.4,0,2.5,1.1,2.5,2.5s-1.1,2.5-2.5,2.5
	S9,11.4,9,10S10.1,7.5,11.5,7.5z M2.5,8c0-0.3,0.2-0.5,0.5-0.5h3c0.3,0,0.5,0.2,0.5,0.5S6.3,8.5,6,8.5H3C2.7,8.5,2.5,8.3,2.5,8z
	 M2,10c0-0.3,0.2-0.5,0.5-0.5h4C6.8,9.5,7,9.7,7,10s-0.2,0.5-0.5,0.5h-4C2.2,10.5,2,10.3,2,10z M2.5,12c0-0.3,0.2-0.5,0.5-0.5h3
	c0.3,0,0.5,0.2,0.5,0.5S6.3,12.5,6,12.5H3C2.7,12.5,2.5,12.3,2.5,12z"/>
</svg>
