<?xml version="1.0" encoding="utf-8"?>
<!-- Generator: Adobe Illustrator 28.0.0, SVG Export Plug-In . SVG Version: 6.00 Build 0)  -->
<svg version="1.1" id="Слой_1" xmlns="http://www.w3.org/2000/svg" xmlns:xlink="http://www.w3.org/1999/xlink" x="0px" y="0px"
	 viewBox="0 0 16 16" style="enable-background:new 0 0 16 16;" xml:space="preserve">
<style type="text/css">
	.st0{fill:#EB5757;}
</style>
<path class="st0" d="M8,7.5V1.1c0-0.3,0.2-0.5,0.5-0.5c3.6,0,6.4,2.9,6.4,6.4c0,0.3-0.2,0.5-0.5,0.5H8z M0.2,8.5
	c0-3.5,2.6-6.4,5.9-6.8c0.3,0,0.5,0.2,0.5,0.4v6.8l4.5,4.5c0.2,0.2,0.2,0.5,0,0.7c-1.1,0.8-2.5,1.3-4,1.3C3.3,15.4,0.2,12.3,0.2,8.5
	z M15.3,8.9c0.3,0,0.5,0.2,0.4,0.5c-0.2,1.6-1,3-2.1,4.1c-0.2,0.2-0.4,0.1-0.6,0L8.5,8.9H15.3z"/>
</svg>
