<?xml version="1.0" encoding="utf-8"?>
<!-- Generator: Adobe Illustrator 28.0.0, SVG Export Plug-In . SVG Version: 6.00 Build 0)  -->
<svg version="1.1" id="Слой_1" xmlns="http://www.w3.org/2000/svg" xmlns:xlink="http://www.w3.org/1999/xlink" x="0px" y="0px"
	 viewBox="0 0 640 640" style="enable-background:new 0 0 640 640;" xml:space="preserve">
<style type="text/css">
	.st0{fill:#013F4E;}
</style>
<path class="st0" d="M224,320c70.7,0,128-57.3,128-128S294.7,64,224,64S96,121.3,96,192S153.3,320,224,320z M178.3,368
	C79.8,368,0,447.8,0,546.3C0,562.7,13.3,576,29.7,576h388.6c1.8,0,3.5-0.2,5.3-0.5c-76.3-55.1-99.8-141-103.1-200.2
	c-16.1-4.8-33.1-7.3-50.7-7.3H178.3z M487.1,289.7l-120,48C358,341.4,352,350.2,352,360c0,63.3,25.9,168.8,134.8,214.2
	c5.9,2.5,12.6,2.5,18.5,0C614.1,528.8,640,423.3,640,360c0-9.8-6-18.6-15.1-22.3l-120-48C499.2,287.4,492.8,287.4,487.1,289.7
	L487.1,289.7z M591.4,376c-3.9,50.7-27.2,116.7-95.4,149.7V337.8L591.4,376z"/>
</svg>
