<?xml version="1.0" encoding="utf-8"?>
<!-- Generator: Adobe Illustrator 28.0.0, SVG Export Plug-In . SVG Version: 6.00 Build 0)  -->
<svg version="1.1" id="Слой_1" xmlns="http://www.w3.org/2000/svg" xmlns:xlink="http://www.w3.org/1999/xlink" x="0px" y="0px"
	 viewBox="0 0 640 640" style="enable-background:new 0 0 640 640;" xml:space="preserve">
<style type="text/css">
	.st0{fill:#013F4E;}
</style>
<path class="st0" d="M633.8,319.5c0,19.6-16.4,35-34.9,35h-34.9l0.8,174.7c0,2.9-0.2,5.9-0.5,8.8v17.6c0,24.1-19.5,43.6-43.6,43.6
	h-17.4c-1.2,0-2.4,0-3.6-0.1c-1.5,0.1-3.1,0.1-4.6,0.1h-35.4h-26.2c-24.1,0-43.6-19.5-43.6-43.6v-26.2v-69.8
	c0-19.3-15.6-34.9-34.9-34.9h-69.8c-19.3,0-34.9,15.6-34.9,34.9v69.8v26.2c0,24.1-19.5,43.6-43.6,43.6h-26.2h-34.8
	c-1.6,0-3.3-0.1-4.9-0.2c-1.3,0.1-2.6,0.2-3.9,0.2h-17.4c-24.1,0-43.6-19.5-43.6-43.6V433.4c0-1,0-2.1,0.1-3.1v-75.9h-35
	c-19.6,0-34.9-15.3-34.9-35c0-9.8,3.3-18.5,10.9-26.2L296.5,49.6c7.6-7.6,16.4-8.7,24-8.7s16.4,2.2,22.9,7.6l278.5,244.8
	C630.6,300.9,634.9,309.6,633.8,319.5z"/>
</svg>
