<?xml version="1.0" encoding="utf-8"?>
<!-- Generator: Adobe Illustrator 28.0.0, SVG Export Plug-In . SVG Version: 6.00 Build 0)  -->
<svg version="1.1" id="Слой_1" xmlns="http://www.w3.org/2000/svg" xmlns:xlink="http://www.w3.org/1999/xlink" x="0px" y="0px"
	 viewBox="0 0 640 640" style="enable-background:new 0 0 640 640;" xml:space="preserve">
<style type="text/css">
	.st0{fill:#013F4E;}
</style>
<path class="st0" d="M358.4,51.4c0-21.2-17.1-38.4-38.4-38.4s-38.4,17.1-38.4,38.4v291.1l-88-88c-15-15-39.3-15-54.3,0
	c-15,15-15,39.3,0,54.3l153.5,153.5c15,15,39.3,15,54.3,0l153.5-153.5c15-15,15-39.3,0-54.3s-39.3-15-54.3,0l-87.9,88V51.4z
	 M89.8,435.1c-42.3,0-76.8,34.4-76.8,76.8v38.4c0,42.3,34.4,76.8,76.8,76.8h460.5c42.3,0,76.8-34.4,76.8-76.8v-38.4
	c0-42.3-34.4-76.8-76.8-76.8H428.5l-54.3,54.3c-30,30-78.5,30-108.5,0l-54.2-54.3H89.8z M531.1,502.3c15.9,0,28.8,12.9,28.8,28.8
	s-12.9,28.8-28.8,28.8s-28.8-12.9-28.8-28.8S515.2,502.3,531.1,502.3z"/>
</svg>
