<?xml version="1.0" encoding="utf-8"?>
<!-- Generator: Adobe Illustrator 27.2.0, SVG Export Plug-In . SVG Version: 6.00 Build 0)  -->
<svg version="1.1" id="Слой_1" xmlns="http://www.w3.org/2000/svg" xmlns:xlink="http://www.w3.org/1999/xlink" x="0px" y="0px"
	 viewBox="0 0 576 512" style="enable-background:new 0 0 576 512;" xml:space="preserve">
<style type="text/css">
	.st0{fill:#FFFFFF;}
	.st1{fill:#5098C7;}
</style>
<g>
	<path class="st0" d="M288,42.2c-77.1,0-138.9,35.1-183.8,76.9c-44.7,41.4-74.5,91-88.7,125.1c-3.1,7.5-3.1,15.9,0,23.5
		c14.1,34.1,44,83.7,88.7,125.1c44.9,41.8,106.7,76.9,183.8,76.9s138.9-35.1,183.8-76.9c44.7-41.5,74.5-91,88.8-125.1
		c3.1-7.5,3.1-15.9,0-23.5c-14.2-34.1-44.1-83.7-88.8-125.1C426.8,77.4,365.1,42.2,288,42.2z M150.5,256
		c0-75.9,61.5-137.4,137.4-137.4S425.4,180.1,425.4,256S363.8,393.4,288,393.4S150.5,331.9,150.5,256z M288,194.9
		c0,33.7-27.4,61.1-61.1,61.1c-6.8,0-13.3-1.1-19.4-3.1c-5.2-1.7-11.4,1.5-11.2,7.1c0.3,6.6,1.2,13.2,3.1,19.8
		c13.1,48.9,63.4,77.9,112.2,64.8s77.9-63.4,64.8-112.2c-10.6-39.6-45.6-66.2-84.6-67.9c-5.5-0.2-8.8,5.8-7.1,11.2
		C286.8,181.7,288,188.1,288,194.9L288,194.9z"/>
	<path class="st1" d="M288,118.6c-75.9,0-137.4,61.5-137.4,137.4c0,75.9,61.5,137.4,137.4,137.4c75.9,0,137.4-61.5,137.4-137.4
		C425.4,180.1,363.9,118.6,288,118.6z M311.7,344.5c-48.8,13.1-99.1-15.9-112.2-64.8c-1.8-6.6-2.8-13.2-3-19.8
		c-0.2-5.5,5.9-8.8,11.2-7.1c6.1,2,12.6,3.2,19.4,3.2c33.7,0,61.1-27.4,61.1-61.1c0-6.8-1.1-13.3-3.2-19.4
		c-1.7-5.3,1.5-11.3,7.1-11.2c38.9,1.6,74,28.3,84.6,67.8C389.5,281.1,360.5,331.4,311.7,344.5z"/>
</g>
</svg>
