<svg width="14" height="18" viewBox="0 0 14 18" fill="none" xmlns="http://www.w3.org/2000/svg">
<g clip-path="url(#clip0_263_116)">
<path d="M7.03139 0C3.14948 0 0 3.02344 0 6.75C0 9.4721 0.983558 10.2355 6.27803 17.6384C6.55008 18.0201 7.10463 18.1205 7.50224 17.8493C7.58595 17.7891 7.65919 17.7188 7.72197 17.6384C13.0478 10.2355 14 9.4721 14 6.75C14 3.04353 10.8924 0.0301339 7.03139 0ZM7.03139 11.6618C4.20628 11.6618 1.9148 9.46205 1.9148 6.75C1.9148 4.03795 4.20628 1.83817 7.03139 1.83817C9.8565 1.83817 12.148 4.03795 12.148 6.75C12.148 9.46205 9.8565 11.6618 7.03139 11.6618Z" fill="#013F4E"/>
<path d="M10.8924 7.42301C10.003 7.39287 9.17638 7.47323 8.6009 7.56363C7.72197 7.70426 7.07324 7.90515 6.86397 7.97546C6.65471 8.04578 6.01644 8.26676 5.24215 8.67859C4.89686 8.85939 4.19581 9.30136 3.90284 9.48216C3.85052 9.52234 3.82959 9.58261 3.82959 9.65292V9.6931C3.82959 9.6931 3.80867 9.74332 3.77728 9.74332H3.66218C3.66218 9.74332 3.60986 9.72323 3.60986 9.6931V3.80694C3.60986 3.80694 3.63079 3.75671 3.66218 3.75671H3.77728C3.77728 3.75671 3.82959 3.7768 3.82959 3.80694V4.91185L4.10164 3.8672C4.11211 3.80694 4.13303 3.78685 4.15396 3.78685C4.17489 3.78685 4.18535 3.79689 4.20628 3.82703C4.2272 3.85716 4.23767 3.89734 4.24813 3.93752C4.25859 3.9777 4.26906 4.02792 4.26906 4.07814C4.26906 4.08819 4.26906 4.10828 4.26906 4.12837C4.26906 4.14846 4.26906 4.16854 4.25859 4.18863L3.97608 5.16296L4.32137 6.60939C4.32137 6.60939 4.33184 6.6797 4.33184 6.70984C4.33184 6.76006 4.33184 6.80024 4.31091 6.84042C4.30045 6.8806 4.27952 6.92078 4.26906 6.95091C4.24813 6.98104 4.2272 6.99109 4.20628 6.99109C4.19581 6.99109 4.17489 6.99109 4.16442 6.96095C4.15396 6.94087 4.1435 6.92078 4.13303 6.8806L3.84006 5.63506L3.81913 5.70537V7.36274C3.81913 7.20203 3.95515 7.07145 4.12257 7.07145H4.44693C4.38415 7.09154 4.33184 7.11162 4.30045 7.12167C4.28998 7.12167 4.15396 7.17189 4.04933 7.2422C4.00747 7.26229 3.95515 7.29243 3.90284 7.34265C3.87145 7.38283 3.85052 7.41296 3.82959 7.45314C3.80867 7.49332 3.80867 7.5335 3.7982 7.57368C3.7982 7.60381 3.7982 7.6239 3.82959 7.64399C3.88191 7.68417 3.96562 7.65404 3.96562 7.58372C3.96562 7.5335 3.98654 7.49332 4.0284 7.45314C4.05979 7.41296 4.10164 7.39287 4.1435 7.37279C4.25859 7.31252 4.35276 7.28238 4.35276 7.28238C4.46786 7.2422 4.80269 7.12167 4.95964 7.08149H5.8281C5.59791 7.14176 5.3991 7.20203 5.22122 7.27234C4.75037 7.4431 4.19581 7.73439 3.93423 7.92524C3.85052 8.0056 3.81913 8.06587 3.80867 8.14622C3.80867 8.17636 3.80867 8.20649 3.84006 8.21654C3.89237 8.25671 3.96562 8.22658 3.97608 8.16631C3.97608 8.11609 3.99701 8.08596 4.04933 8.03573C4.76083 7.58372 5.23169 7.36274 6.49776 7.07145H7.58595C6.47683 7.26229 5.34678 7.64399 4.41554 8.16631C4.19581 8.2768 3.98654 8.40738 3.92376 8.4777C3.85052 8.55805 3.82959 8.62837 3.81913 8.70872C3.81913 8.7489 3.85052 8.78908 3.89237 8.78908C3.93423 8.78908 3.97608 8.75895 3.97608 8.71877C3.97608 8.66854 3.99701 8.63841 4.03886 8.58819C4.08072 8.54801 4.24813 8.42747 4.48879 8.30694C5.70254 7.6239 7.17788 7.20203 8.74738 7.08149C8.94619 7.09154 9.1136 7.11162 9.21823 7.12167C9.3438 7.13171 9.46936 7.1518 9.60538 7.17189C7.76382 7.2422 5.91181 7.76453 4.36323 8.70872C4.15396 8.8393 3.95515 8.97993 3.89237 9.06029C3.86098 9.10046 3.84006 9.1306 3.82959 9.16073C3.80867 9.20091 3.80867 9.25113 3.80867 9.29131C3.80867 9.33149 3.85052 9.37167 3.89237 9.37167C3.93423 9.37167 3.97608 9.33149 3.97608 9.29131C3.97608 9.26118 3.97608 9.24109 3.98654 9.21096C3.98654 9.21096 3.99701 9.18082 4.01793 9.15069C4.04933 9.10046 4.20628 8.97993 4.44693 8.8393C6.20478 7.76453 8.39163 7.23216 10.5471 7.33261C10.704 7.36274 10.8296 7.39287 10.8924 7.41296V7.42301Z" fill="#013F4E"/>
<path d="M4.67716 4.02791V5.22322C4.67716 5.22322 4.69809 5.2634 4.71902 5.2634H5.03292C5.03292 5.2634 5.07477 5.28349 5.07477 5.30358V5.43416C5.07477 5.43416 5.05384 5.47434 5.03292 5.47434H4.71902C4.71902 5.47434 4.67716 5.49443 4.67716 5.51452V6.70983C4.67716 6.70983 4.69809 6.75001 4.71902 6.75001H5.13755C5.13755 6.75001 5.17941 6.7701 5.17941 6.79019V6.92077C5.17941 6.92077 5.15848 6.96095 5.13755 6.96095H4.56207C4.56207 6.96095 4.52021 6.94086 4.49929 6.91072C4.47836 6.88059 4.4679 6.83037 4.4679 6.7701V3.96764C4.4679 3.90737 4.4679 3.85715 4.49929 3.82702C4.52021 3.79688 4.54114 3.77679 4.56207 3.77679H5.13755C5.13755 3.77679 5.17941 3.79688 5.17941 3.81697V3.94755C5.17941 3.94755 5.15848 3.98773 5.13755 3.98773H4.71902C4.71902 3.98773 4.67716 4.00782 4.67716 4.02791Z" fill="#013F4E"/>
<path d="M5.54557 4.02791V5.22322C5.54557 5.22322 5.5665 5.2634 5.58743 5.2634H5.90133C5.90133 5.2634 5.94318 5.28349 5.94318 5.30358V5.43416C5.94318 5.43416 5.92225 5.47434 5.90133 5.47434H5.58743C5.58743 5.47434 5.54557 5.49443 5.54557 5.51452V6.70983C5.54557 6.70983 5.5665 6.75001 5.58743 6.75001H6.00596C6.00596 6.75001 6.04781 6.7701 6.04781 6.79019V6.92077C6.04781 6.92077 6.02689 6.96095 6.00596 6.96095H5.43047C5.43047 6.96095 5.38862 6.94086 5.36769 6.91072C5.34677 6.88059 5.3363 6.83037 5.3363 6.7701V3.96764C5.3363 3.90737 5.3363 3.85715 5.36769 3.82702C5.38862 3.79688 5.40955 3.77679 5.43047 3.77679H6.00596C6.00596 3.77679 6.04781 3.79688 6.04781 3.81697V3.94755C6.04781 3.94755 6.02689 3.98773 6.00596 3.98773H5.58743C5.58743 3.98773 5.54557 4.00782 5.54557 4.02791Z" fill="#013F4E"/>
<path d="M6.8849 6.80023V6.93081C6.8849 6.93081 6.86397 6.97099 6.84305 6.97099H6.31988C6.31988 6.97099 6.27803 6.9509 6.2571 6.92077C6.23617 6.89063 6.22571 6.84041 6.22571 6.78014V3.81697C6.22571 3.81697 6.24663 3.77679 6.26756 3.77679H6.39312C6.39312 3.77679 6.43498 3.79688 6.43498 3.81697V6.71987C6.43498 6.71987 6.4559 6.76005 6.47683 6.76005H6.84305C6.84305 6.76005 6.8849 6.78014 6.8849 6.80023Z" fill="#013F4E"/>
<path d="M7.26157 6.99108C7.26157 6.99108 7.20925 6.97099 7.17786 6.94086C7.14647 6.91072 7.13601 6.8605 7.12555 6.80023L6.81165 4.05804C6.81165 4.05804 6.81165 4.02791 6.81165 4.00782C6.81165 3.96764 6.81165 3.92746 6.83257 3.88729C6.84304 3.85715 6.86396 3.82702 6.88489 3.80693C6.90582 3.78684 6.92674 3.77679 6.94767 3.77679C6.9686 3.77679 6.97906 3.77679 6.98952 3.80693C6.99999 3.83706 7.01045 3.85715 7.01045 3.89733L7.26157 6.25782L7.39759 4.74108C7.39759 4.69086 7.41852 4.65068 7.43945 4.62054C7.46037 4.59041 7.4813 4.58037 7.50223 4.58037C7.52316 4.58037 7.54408 4.59041 7.56501 4.62054C7.58594 4.65068 7.5964 4.69086 7.5964 4.74108L7.73242 6.25782L7.98354 3.89733C7.98354 3.89733 7.99401 3.82702 8.00447 3.80693C8.01493 3.78684 8.03586 3.77679 8.04632 3.77679C8.06725 3.77679 8.08818 3.78684 8.1091 3.80693C8.13003 3.82702 8.14049 3.85715 8.16142 3.88729C8.17188 3.91742 8.18235 3.9576 8.18235 4.00782C8.18235 4.02791 8.18235 4.03796 8.18235 4.05804L7.86845 6.80023C7.86845 6.8605 7.84752 6.91072 7.81613 6.94086C7.78474 6.97099 7.76381 6.99108 7.73242 6.99108C7.70103 6.99108 7.68011 6.97099 7.64872 6.94086C7.61733 6.91072 7.60686 6.8605 7.60686 6.80023L7.50223 5.62501L7.39759 6.80023C7.39759 6.8605 7.37667 6.91072 7.35574 6.94086C7.33481 6.97099 7.30342 6.99108 7.27203 6.99108H7.26157Z" fill="#013F4E"/>
<path d="M9.0508 6.68975L8.74736 3.94756C8.74736 3.88729 8.72643 3.83707 8.69504 3.80694C8.67412 3.7768 8.64273 3.75671 8.61134 3.75671C8.57995 3.75671 8.55902 3.7768 8.52763 3.80694C8.5067 3.83707 8.48578 3.88729 8.47531 3.94756L8.17188 6.68975C8.17188 6.68975 8.17188 6.71988 8.17188 6.72993C8.17188 6.78015 8.17187 6.82033 8.1928 6.85046C8.20327 6.8806 8.22419 6.91073 8.24512 6.93082C8.26605 6.95091 8.28697 6.96095 8.3079 6.96095C8.32883 6.96095 8.33929 6.96095 8.34975 6.94087C8.36022 6.92078 8.37068 6.89064 8.37068 6.85046L8.43346 6.26787V6.17747C8.43346 6.17747 8.46485 6.14734 8.47531 6.14734H8.74736C8.74736 6.14734 8.77875 6.15738 8.77875 6.17747V6.26787L8.85199 6.85046C8.85199 6.89064 8.86246 6.92078 8.87292 6.94087C8.88338 6.96095 8.90431 6.96095 8.91478 6.96095C8.9357 6.96095 8.95663 6.95091 8.97756 6.93082C8.99848 6.91073 9.01941 6.8806 9.02987 6.85046C9.04034 6.82033 9.0508 6.77011 9.0508 6.72993C9.0508 6.72993 9.0508 6.70984 9.0508 6.68975ZM8.5067 5.94645C8.5067 5.94645 8.47531 5.92636 8.47531 5.91631V5.83595L8.6218 4.50002L8.76829 5.91631C8.76829 5.91631 8.75782 5.94645 8.7369 5.94645H8.51717H8.5067Z" fill="#013F4E"/>
<path d="M9.83553 6.99111C9.83553 6.99111 9.80414 6.98106 9.79368 6.96097C9.78321 6.94088 9.77275 6.9007 9.76229 6.86053L9.54256 5.65517H9.40653V6.79021C9.40653 6.85048 9.39607 6.9007 9.37514 6.93084C9.35422 6.96097 9.33329 6.98106 9.3019 6.98106C9.27051 6.98106 9.24958 6.96097 9.22866 6.93084C9.20773 6.9007 9.19727 6.85048 9.19727 6.79021V3.96767C9.19727 3.96767 9.19727 3.87727 9.21819 3.83709C9.22866 3.80695 9.24958 3.78687 9.27051 3.78687H9.58441C9.65765 3.78687 9.72043 3.817 9.77275 3.86722C9.82507 3.92749 9.87739 4.01789 9.90878 4.14847C9.94017 4.27905 9.96109 4.45986 9.96109 4.69088C9.96109 4.86164 9.96109 5.00227 9.9297 5.1228C9.90878 5.24334 9.88785 5.33374 9.85646 5.40405C9.82507 5.47437 9.79368 5.52459 9.75182 5.56477L9.96109 6.61945C9.96109 6.61945 9.96109 6.63954 9.96109 6.65963C9.96109 6.66968 9.96109 6.67972 9.96109 6.68977C9.96109 6.73999 9.96109 6.78017 9.94017 6.83039C9.91924 6.88062 9.90878 6.91075 9.88785 6.94088C9.86692 6.97102 9.846 6.98106 9.82507 6.98106L9.83553 6.99111ZM9.40653 5.47436H9.58441C9.58441 5.47436 9.67858 5.44423 9.70997 5.37392C9.74136 5.30361 9.75182 4.92191 9.75182 4.75115C9.75182 4.58039 9.74136 4.16856 9.70997 4.09825C9.67858 4.02794 9.63673 3.9978 9.58441 3.9978H9.40653V5.47436Z" fill="#013F4E"/>
<path d="M10.8296 4.19867C10.7982 4.048 10.7564 3.94755 10.6936 3.87724C10.6413 3.80693 10.5785 3.77679 10.5053 3.77679H10.2227C10.2227 3.77679 10.1704 3.79688 10.16 3.82702C10.1495 3.85715 10.139 3.90737 10.139 3.9576V6.78014C10.139 6.78014 10.139 6.87054 10.16 6.91072C10.1809 6.94086 10.2018 6.96095 10.2227 6.96095H10.5053C10.5785 6.96095 10.6413 6.93081 10.6936 6.8605C10.7459 6.79019 10.7982 6.68974 10.8296 6.53907C10.861 6.3884 10.8819 6.19755 10.8819 5.95648V4.78126C10.8819 4.54019 10.861 4.33929 10.8296 4.19867ZM10.6727 5.95648C10.6727 6.12724 10.6622 6.53907 10.6308 6.61943C10.5994 6.69979 10.5576 6.73996 10.5053 6.73996H10.3692C10.3692 6.73996 10.3378 6.72992 10.3378 6.70983V4.01787C10.3378 4.01787 10.3483 3.98773 10.3692 3.98773H10.5053C10.5053 3.98773 10.5994 4.02791 10.6308 4.10827C10.6622 4.18862 10.6727 4.60046 10.6727 4.77121V5.94644V5.95648Z" fill="#013F4E"/>
</g>
<defs>
<clipPath id="clip0_263_116">
<rect width="14" height="18" fill="white"/>
</clipPath>
</defs>
</svg>
