<svg width="11" height="15" viewBox="0 0 11 15" fill="none" xmlns="http://www.w3.org/2000/svg">
<g clip-path="url(#clip0_251_98)">
<path d="M8.91456 13.0412C9.02567 13.0584 9.13678 13.0326 9.2308 12.9639C9.32482 12.8952 9.38465 12.7921 9.40174 12.6804L9.5043 12.0103C9.5214 11.8729 9.60687 11.7612 9.72653 11.701L10.3248 11.4003C10.4274 11.3488 10.5043 11.2629 10.5385 11.1512C10.5812 11.0481 10.5812 10.9278 10.5385 10.8247L10.2052 10.2148C10.1453 10.0945 10.1453 9.95704 10.2052 9.83677L10.5129 9.23539C10.5641 9.1323 10.5641 9.00344 10.5129 8.90034C10.4787 8.78866 10.4017 8.70275 10.2992 8.6512L9.70089 8.35052C9.58123 8.29038 9.49576 8.17869 9.47866 8.04124L9.3761 7.37113C9.359 7.25945 9.29918 7.15636 9.20516 7.08763C9.11114 7.0189 9.00003 7.00172 8.88892 7.0189L8.22225 7.13058C8.0855 7.14777 7.95729 7.10481 7.85473 7.01031L7.41029 6.56357C7.33336 6.48625 7.22225 6.4433 7.11114 6.4433C6.99148 6.4433 6.87182 6.47766 6.78635 6.56357L6.31627 7.05326C6.22225 7.14777 6.0855 7.19072 5.95729 7.17354L5.29063 7.06186C5.17952 7.04467 5.05986 7.07045 4.96584 7.13918C4.87182 7.19931 4.812 7.30241 4.80345 7.41409L4.70088 8.08419C4.68379 8.21306 4.59832 8.33333 4.47866 8.39347L3.87183 8.70275C3.76926 8.7543 3.69234 8.84021 3.65815 8.95189C3.61541 9.05498 3.61541 9.17526 3.65815 9.27835L3.96584 9.87972C4.03422 10 4.03422 10.1375 3.96584 10.2577L3.65815 10.8677C3.61541 10.9708 3.61541 11.0911 3.65815 11.1942C3.69234 11.3058 3.76926 11.3918 3.87183 11.4433L4.47866 11.744C4.59832 11.8041 4.67524 11.9244 4.70088 12.0533L4.80345 12.7234C4.82054 12.8351 4.87182 12.9381 4.96584 13.0069C5.05986 13.0756 5.17952 13.1014 5.29063 13.0842L5.95729 12.9725C6.0855 12.9553 6.22225 12.9983 6.31627 13.0928L6.78635 13.5739C6.86328 13.6598 6.97439 13.7027 7.09405 13.7027C7.20516 13.7027 7.31627 13.6598 7.39319 13.5739L7.86328 13.0928C7.95729 12.9983 8.09405 12.9553 8.2308 12.9725L8.91456 13.0412ZM7.11114 12.5773C5.69234 12.5773 4.54704 11.4261 4.54704 10C4.54704 8.57388 5.69234 7.42268 7.11114 7.42268C8.52994 7.42268 9.67524 8.57388 9.67524 10C9.67524 11.4261 8.52994 12.5773 7.11114 12.5773Z" fill="#013F4E"/>
<path d="M7.11113 7.74915C5.89746 7.77492 4.93165 8.78007 4.95729 10C4.98293 11.2199 5.98293 12.1907 7.1966 12.165C8.37609 12.1392 9.32481 11.1856 9.35045 10C9.36754 8.78007 8.40173 7.76633 7.17951 7.74915C7.15387 7.74915 7.13677 7.74915 7.11113 7.74915Z" fill="#013F4E"/>
<path d="M10.9402 13.5223L9.7436 12.3196L9.68377 12.7234C9.64958 12.9124 9.54701 13.0756 9.40172 13.1959C9.24787 13.3076 9.05984 13.3505 8.8718 13.3247L8.19659 13.2131C8.19659 13.2131 8.11966 13.1959 8.08548 13.2131L7.97437 13.3333L9.53847 14.8969C9.5983 14.957 9.68377 14.9828 9.76069 14.957C9.84616 14.9313 9.90599 14.8625 9.92308 14.7766L10.0598 14.0206L10.8205 13.8746C10.906 13.8574 10.9744 13.7972 11 13.7199C11.0086 13.6512 10.9915 13.5739 10.9402 13.5223Z" fill="#013F4E"/>
<path d="M6.03418 13.2131L5.35042 13.3247C5.16239 13.3505 4.97435 13.3076 4.82051 13.1959C4.66666 13.0842 4.5641 12.9124 4.52991 12.7234L4.47008 12.3196L3.2735 13.5223C3.22222 13.5825 3.19658 13.677 3.22222 13.7543C3.24786 13.8316 3.31623 13.8917 3.39316 13.9089L4.15384 14.055L4.29914 14.811C4.31623 14.8969 4.37606 14.9656 4.45299 14.9914C4.53846 15.0172 4.62393 14.9914 4.68376 14.9313L6.23931 13.3677L6.1282 13.2474C6.1282 13.2474 6.06837 13.2131 6.03418 13.2131Z" fill="#013F4E"/>
<path d="M7.78637 2.51716H2.18808C1.9915 2.4828 1.80346 2.62026 1.76927 2.82644C1.73509 3.02404 1.87184 3.21304 2.07697 3.24741C2.11115 3.24741 2.15389 3.24741 2.18808 3.24741H7.78637C7.98295 3.28177 8.17098 3.14431 8.20517 2.93813C8.23936 2.74053 8.10261 2.55153 7.89748 2.51716C7.86329 2.51716 7.82056 2.51716 7.78637 2.51716Z" fill="#013F4E"/>
<path d="M7.78637 4.39863H2.18808C1.9915 4.36427 1.80346 4.50173 1.76927 4.70791C1.73509 4.90551 1.87184 5.09451 2.07697 5.12887C2.11115 5.12887 2.15389 5.12887 2.18808 5.12887H7.78637C7.98295 5.16324 8.17098 5.02578 8.20517 4.8196C8.23936 4.622 8.10261 4.433 7.89748 4.39863C7.86329 4.39863 7.82056 4.39863 7.78637 4.39863Z" fill="#013F4E"/>
<path d="M3.90598 12.0619L3.62393 11.9244C3.55556 11.89 3.48718 11.8385 3.4359 11.7869H1.07692C0.923077 11.7698 0.803419 11.6495 0.803419 11.4948V1.07388C0.803419 0.910653 0.940171 0.781787 1.10256 0.781787H8.92308C9.08547 0.781787 9.21368 0.910653 9.21368 1.07388V6.45189C9.35043 6.47766 9.47009 6.5378 9.5812 6.62371C9.79487 6.77835 9.94017 7.0189 9.98291 7.28522V1.07388C9.98291 0.4811 9.51282 0 8.92308 0H1.07692C0.487179 0 0 0.4811 0 1.07388V11.4948C0 12.0962 0.478632 12.5773 1.07692 12.5773H3.36752L3.90598 12.0619Z" fill="#013F4E"/>
</g>
<defs>
<clipPath id="clip0_251_98">
<rect width="11" height="15" fill="white"/>
</clipPath>
</defs>
</svg>
