<?xml version="1.0" encoding="utf-8"?>
<!-- Generator: Adobe Illustrator 28.0.0, SVG Export Plug-In . SVG Version: 6.00 Build 0)  -->
<svg version="1.1" id="Слой_1" xmlns="http://www.w3.org/2000/svg" xmlns:xlink="http://www.w3.org/1999/xlink" x="0px" y="0px"
	 viewBox="0 0 17 17" style="enable-background:new 0 0 17 17;" xml:space="preserve">
<style type="text/css">
	.st0{fill:#FFFFFF;}
	.st1{clip-path:url(#SVGID_00000053504308123543298100000017920705195277015687_);}
	.st2{fill:#EB5757;}
</style>
<rect class="st0" width="17" height="17"/>
<g>
	<defs>
		<rect id="SVGID_1_" x="4.5" y="3.5" width="8" height="9.7"/>
	</defs>
	<clipPath id="SVGID_00000042738031408870776970000005849297395986257795_">
		<use xlink:href="#SVGID_1_"  style="overflow:visible;"/>
	</clipPath>
	<g style="clip-path:url(#SVGID_00000042738031408870776970000005849297395986257795_);">
		<path class="st2" d="M11.7,7l0.6-0.6c0.1-0.1,0.1-0.2,0.1-0.3c0-0.1,0-0.2-0.1-0.3c-0.2-0.2-0.5-0.2-0.6,0l-0.6,0.6l0,0
			c0,0,0,0,0,0c-0.6-0.5-1.3-0.9-2.2-1v-1h0.6c0.1,0,0.2,0,0.3-0.1C10,4.1,10,4,10,3.9c0-0.2-0.2-0.4-0.5-0.4H7.4
			c-0.1,0-0.2,0-0.3,0.1C7,3.7,7,3.8,7,3.9c0,0.2,0.2,0.4,0.5,0.4H8v1c0,0,0,0,0,0C6,5.6,4.5,7.2,4.5,9.2c0,2.2,1.8,3.9,4,3.9
			c2.2,0,4-1.8,4-3.9C12.5,8.4,12.2,7.6,11.7,7L11.7,7z M8.5,12.3c-1.7,0-3.1-1.4-3.1-3c0-1.7,1.4-3,3.1-3c0.8,0,1.4,0.3,2,0.7
			c0.2,0.2,0.4,0.4,0.6,0.7c0.3,0.5,0.5,1,0.5,1.7C11.6,10.9,10.2,12.3,8.5,12.3z"/>
		<path class="st2" d="M9,7.6c0-0.3-0.2-0.5-0.5-0.5C8.2,7.1,8,7.3,8,7.6v1.9C8,9.8,8.2,10,8.5,10C8.7,10,9,9.8,9,9.5V7.6z"/>
	</g>
</g>
</svg>
