<svg width="12" height="15" viewBox="0 0 12 15" fill="none" xmlns="http://www.w3.org/2000/svg">
<path d="M9.67758 5.76786C10.9352 5.76786 11.9546 4.73491 11.9546 3.46071C11.9546 2.18651 10.9352 1.15356 9.67758 1.15356C8.41999 1.15356 7.40051 2.18651 7.40051 3.46071C7.40051 4.73491 8.41999 5.76786 9.67758 5.76786Z" fill="#013F4E"/>
<path d="M2.28061 4.6143C3.5382 4.6143 4.55767 3.58135 4.55767 2.30715C4.55767 1.03295 3.5382 0 2.28061 0C1.02302 0 0.00354004 1.03295 0.00354004 2.30715C0.00354004 3.58135 1.02302 4.6143 2.28061 4.6143Z" fill="#013F4E"/>
<path d="M12 13.7792C12 14.4515 11.4657 14.9964 10.8021 15C10.8021 15 10.7986 15 10.7951 15H8.52154C7.92433 15 7.43888 14.5081 7.43888 13.903V9.67797C7.43888 9.64258 7.43888 9.6072 7.43888 9.57181C7.42142 9.41258 7.37602 9.25688 7.30617 9.1118C7.27125 9.03041 7.22934 8.94902 7.18044 8.87471C7.08265 8.72255 6.9674 8.58101 6.8312 8.4607C6.70547 8.33685 6.55879 8.23423 6.39814 8.15638C6.25844 8.09623 6.11525 8.05023 5.96857 8.01838C5.92666 8.00776 5.88126 8.00069 5.83586 7.99715C5.78696 7.99715 5.74156 7.99715 5.69267 7.99715H5.14086C5.08498 7.99715 5.04307 8.01484 4.96275 8.03253L4.72177 8.09977C4.67986 8.11746 4.63446 8.13515 4.59604 8.15992C4.57858 8.17054 4.56112 8.18469 4.55064 8.20238C4.54366 8.22362 4.54366 8.24131 4.55064 8.26254V13.7792C4.55064 14.4515 4.0163 14.9964 3.35274 15C3.35274 15 3.34924 15 3.34575 15H1.08265C0.485448 15 0 14.5081 0 13.903V5.98016C0 5.83508 0.0419092 5.69708 0.11525 5.57323C0.178114 5.47061 0.261932 5.38214 0.363213 5.31845C0.408615 5.29014 0.457509 5.26537 0.509895 5.24768C0.63213 5.20168 0.76135 5.17337 0.894063 5.16275C1.26077 5.13444 1.63097 5.13091 2.00116 5.15214C2.25262 5.15214 2.37136 5.18398 2.41327 5.18752C2.60186 5.20875 2.78696 5.25476 2.96508 5.31845C3.1362 5.38568 3.29336 5.47769 3.43655 5.59092C3.85215 5.91293 4.28172 6.21017 4.73225 6.4791C4.96275 6.61003 5.20373 6.72326 5.45518 6.81173C5.74854 6.92142 6.05588 6.99219 6.36671 7.0205H7.2014C7.5681 6.98866 7.93132 6.9285 8.28754 6.84357C8.87078 6.71972 8.92317 6.69142 9.30035 6.62772C9.53085 6.58526 9.76484 6.56049 9.99884 6.54987H10.3865C10.5297 6.54987 10.6729 6.56403 10.8126 6.58172C10.9488 6.59587 11.0815 6.62064 11.2142 6.65603C11.3644 6.68788 11.5076 6.74096 11.6403 6.81527C11.8009 6.89665 11.9267 7.03466 11.9895 7.20805C11.9895 7.22574 11.9895 7.24343 11.9895 7.26113V13.7792H12Z" fill="#013F4E"/>
</svg>
