<?xml version="1.0" encoding="UTF-8"?>
<svg id="_Слой_1" data-name="Слой 1" xmlns="http://www.w3.org/2000/svg" viewBox="0 0 100 100">
  <defs>
    <style>
      .cls-1 {
        fill: #003f4d;
      }

      .cls-1, .cls-2 {
        stroke-width: 0px;
      }

      .cls-2 {
        fill: #fff;
      }
    </style>
  </defs>
  <circle class="cls-2" cx="50" cy="50" r="50.01"/>
  <g>
    <path class="cls-1" d="m99.96,50c0,27.59-22.37,49.96-49.96,49.96S.04,77.6.04,50c0-.22,0-.43,0-.65.33,25.96,21.48,46.9,47.51,46.9s47.52-21.27,47.52-47.52S73.79,1.22,47.55,1.22c-10.04,0-19.36,3.12-27.04,8.44C28.78,3.61,38.97.04,50,.04c27.59,0,49.96,22.37,49.96,49.96Z"/>
    <path class="cls-1" d="m89.61,65.44c1.29-3.82,1.99-7.91,1.99-12.16,0-20.94-16.98-37.92-37.92-37.92S15.75,32.33,15.75,53.27s16.98,37.92,37.92,37.92c8.21,0,15.81-2.61,22.02-7.04-7.72,6.15-17.51,9.82-28.14,9.82-24.98,0-45.24-20.25-45.24-45.24S22.57,3.5,47.55,3.5s45.24,20.25,45.24,45.24c0,5.9-1.13,11.53-3.18,16.7Z"/>
    <path class="cls-1" d="m56.95,60.26l.92,1.01-10.12,11.31c-2.01-2.23-3.92-3.67-5.72-4.32-1.8-.65-3.75-.9-5.83-.73-1.34.11-2.44.68-3.29,1.71-.85,1.03-1.31,2.13-1.36,3.29-.09,1.38.34,2.5,1.31,3.36.96.86,2.13,1.53,3.49,2,1.37.47,2.78.79,4.24.95,1.46.16,2.65.26,3.58.3,1.69.02,3.33-.08,4.94-.3s3.01-.7,4.23-1.44c1.96-1.21,3.01-3.64,3.15-7.29l.76.16c.49,3.39-.7,6.56-3.58,9.5-2.87,2.95-6.02,4.33-9.45,4.15-5.58-.31-9.51-2.24-11.77-5.79-1.36-2.18-2.03-4.76-2.03-7.76,0-3,1.01-5.9,3-8.69.71-.98,1.58-1.85,2.62-2.61,1.04-.76,2.1-1.46,3.17-2.09v-8.95l-4.79-.22c-1.78-.04-2.82,1.47-3.13,4.51l-.49-.03v-6.09c0-.92.21-2.21.63-3.86.42-1.65,2.09-2.47,5.03-2.47h2.75v-8.29c-.98.22-1.96.41-2.94.58-.98.17-1.97.34-2.96.5-.11.02-.15-.09-.11-.33.04-.24.12-.37.24-.41,4.55-.85,8.8-2.24,12.75-4.17,3.95-1.93,7.44-4.71,10.47-8.33.34-.4.59-.4.73,0,1.31,3.59,3.15,5.43,5.52,5.53,2.37.1,3.66-1.3,3.86-4.2,0-.11.1-.14.3-.1.2.05.3.11.3.2,0,3.06-.69,5.55-2.08,7.46-1.39,1.91-3.01,3.1-4.88,3.58-1.99.51-3.88.2-5.66-.92v9.25l10.77-7.72.87.14c1.87,1.09,3.2,2.38,4,3.89.8,1.5,1.24,3.01,1.33,4.51.11,2.36-.64,4.49-2.26,6.4-1.61,1.91-3.97,3.01-7.07,3.3-.11.02-.12.1-.04.26.08.15.18.23.29.23,1.81.15,3.19.43,4.12.86.93.43,1.65.84,2.13,1.24.6.53,1.02,1.18,1.25,1.97.24.79.39,2.16.46,4.12l.11,3.56c0,.53.38.99,1.13,1.4.75.41,1.3.41,1.65.01l2.07-2.37.98.35-9.49,11.04-1.31.08-5.98-5.6v-8.48c0-1.69-.06-3.29-.19-4.83-.13-1.53-1.44-2.37-3.94-2.52l-.87-.05v10.22c.05.04.1.07.15.11.05.04.1.06.15.08l1.88-2.18Zm-20.07-.46c.45-.24.94-.45,1.47-.65,2.77-1.01,5.16-1.42,7.17-1.21,2,.21,4.63,1.34,7.87,3.39v-18.76l-3.48,2.39v10.31c-2.01-.07-3.81.16-5.38.69-1.58.54-2.97,1.02-4.19,1.45-1.12.42-2.28,1.21-3.45,2.39Zm13.03-32.31v16.21l3.48-2.47v-11.37c-.89-.83-1.63-1.87-2.23-3.1-.29.16-.71.41-1.25.73Zm4.87,14.11v9.54l2.26-.27c2.12-.25,3.47-1.01,4.05-2.26.58-1.25.76-2.56.54-3.94-.27-1.56-.92-2.85-1.96-3.86-1.03-1.01-2.22-1.06-3.56-.14l-1.33.92Z"/>
  </g>
</svg>