<svg  xmlns="http://www.w3.org/2000/svg" xmlns:xlink="http://www.w3.org/1999/xlink" x="0px"
	 y="0px" viewBox="0 0 724.1 96" style="enable-background:new 0 0 724.1 96;" xml:space="preserve">
<style type="text/css">
	.st0{fill:none;stroke:#013F4E;stroke-miterlimit:10;}
</style>
<g>
	<path class="st0" d="M44.9,35.3c3.1,0,5.7,1.1,8,3.3c2.2,2.3,3.2,5,3.2,8.1s-1.1,5.7-3.2,7.9s-4.9,3.4-8,3.4H33.6v11.3
		c0,3.1-1.1,5.7-3.3,7.9c-2.2,2.2-4.9,3.4-8,3.4s-5.8-1.1-7.9-3.4C12.1,75,11,72.4,11,69.2V24c0-3,1.1-5.7,3.4-8
		c2.2-2.2,4.8-3.3,7.9-3.3s5.7,1.1,8,3.3c2.2,2.3,3.3,5,3.3,8v11.3C33.6,35.4,44.9,35.4,44.9,35.3z M67.5,35.3
		c-3.1,0-5.7-1.1-7.9-3.4c-2.3-2.2-3.4-4.8-3.4-7.9s1.1-5.7,3.4-8s4.8-3.3,7.9-3.3s5.7,1.1,8.1,3.3c2.2,2.3,3.3,4.9,3.3,8
		s-1.1,5.7-3.3,7.9C73.2,34.2,70.6,35.3,67.5,35.3z M67.5,57.9c3.1,0,5.7,1.1,8.1,3.3c2.2,2.3,3.3,5,3.3,8s-1.1,5.8-3.3,7.9
		c-2.2,2.2-4.9,3.4-8.1,3.4s-5.8-1.1-7.9-3.4c-2.3-2.2-3.4-4.8-3.4-7.9s1.1-5.7,3.4-8S64.4,57.9,67.5,57.9z"/>
	<path class="st0" d="M157.8,57.9c3,0,5.7,1.1,8,3.3c2.2,2.3,3.3,4.9,3.3,8s-1.1,5.8-3.3,7.9c-2.2,2.2-4.9,3.4-8,3.4h-45.2
		c-3.1,0-5.8-1.1-7.9-3.4c-2.3-2.2-3.4-4.8-3.4-7.9V24c0-3,1.1-5.7,3.4-8c2.2-2.2,4.8-3.3,7.9-3.3h45.2c3,0,5.7,1.1,8,3.3
		c2.2,2.3,3.3,5,3.3,8s-1.1,5.7-3.3,7.9c-2.3,2.3-5,3.4-8,3.4H124v11.3h11.3c3,0,5.7,1.1,8,3.3c2.2,2.3,3.2,5,3.2,8L157.8,57.9
		L157.8,57.9z"/>
	<path class="st0" d="M248.2,57.9c3,0,5.7,1.1,8.1,3.3c2.2,2.3,3.3,4.9,3.3,8s-1.1,5.8-3.3,7.9c-2.2,2.2-4.9,3.4-8.1,3.4H203
		c-3.1,0-5.8-1.1-7.9-3.4c-2.3-2.2-3.4-4.8-3.4-7.9V24c0-3,1.1-5.7,3.4-8c2.2-2.2,4.8-3.3,7.9-3.3h45.2c3,0,5.7,1.1,8.1,3.3
		c2.2,2.3,3.3,5,3.3,8s-1.1,5.7-3.3,7.9c-2.3,2.3-5,3.4-8.1,3.4h-33.9v11.3h11.3c3,0,5.7,1.1,8,3.3c2.2,2.3,3.2,5,3.2,8L248.2,57.9
		L248.2,57.9z"/>
	<path class="st0" d="M338.6,57.9c3,0,5.7,1.1,8,3.3c2.2,2.3,3.3,4.9,3.3,8s-1.1,5.8-3.3,7.9c-2.2,2.2-4.9,3.4-8,3.4h-45.2
		c-3.1,0-5.8-1.1-7.9-3.4c-2.3-2.2-3.4-4.8-3.4-7.9V24c0-3,1.1-5.7,3.4-8c2.2-2.2,4.8-3.3,7.9-3.3s5.7,1.1,8,3.3
		c2.2,2.3,3.3,5,3.3,8v33.9L338.6,57.9L338.6,57.9z"/>
	<path class="st0" d="M429,12.7c3,0,5.7,1.1,8,3.3c2.2,2.3,3.3,4.9,3.3,8v45.2c0,3.1-1.1,5.8-3.3,7.9c-2.2,2.2-4.9,3.4-8,3.4
		s-5.8-1.1-7.9-3.4c-2.3-2.2-3.4-4.8-3.4-7.9h-11.3c0,3.1-1.1,5.7-3.3,7.9s-4.9,3.4-8,3.4h-11.3c-3.1,0-5.8-1.1-7.9-3.4
		c-2.3-2.2-3.4-4.8-3.4-7.9V24c0-3,1.1-5.7,3.4-8c2.2-2.2,4.8-3.3,7.9-3.3s5.7,1.1,8,3.3c2.2,2.3,3.3,5,3.3,8v33.9h11.3
		c0-3.1,1.1-5.8,3.4-8s4.8-3.3,7.9-3.3V24c0-3,1.1-5.7,3.4-8S425.9,12.7,429,12.7L429,12.7z"/>
	<path class="st0" d="M519.4,12.7c3,0,5.7,1.1,8,3.3c2.2,2.3,3.3,4.9,3.3,8v45.2c0,3.1-1.1,5.8-3.3,7.9c-2.2,2.2-4.9,3.4-8,3.4
		s-5.8-1.1-7.9-3.4c-2.3-2.2-3.4-4.8-3.4-7.9h-22.6c0,3.1-1.1,5.7-3.3,7.9c-2.2,2.2-4.9,3.4-8,3.4s-5.8-1.1-7.9-3.4
		c-2.3-2.2-3.4-4.8-3.4-7.9V24c0-3,1.1-5.7,3.4-8c2.2-2.2,4.8-3.3,7.9-3.3L519.4,12.7L519.4,12.7z M485.5,46.7H508V35.3h-22.6V46.7z
		"/>
	<path class="st0" d="M598.4,35.3h-22.6v11.3h11.3c3,0,5.7,1.1,8,3.3c2.2,2.3,3.2,5,3.2,8h11.3c3,0,5.7,1.1,8,3.3
		c2.2,2.3,3.3,5,3.3,8s-1.1,5.8-3.3,7.9c-2.2,2.2-4.9,3.4-8,3.4s-5.8-1.1-7.9-3.4c-2.3-2.2-3.4-4.8-3.4-7.9h-22.6
		c0,3.1-1.1,5.7-3.3,7.9c-2.2,2.2-4.9,3.4-8,3.4s-5.8-1.1-7.9-3.4c-2.3-2.2-3.4-4.8-3.4-7.9V24c0-3,1.1-5.7,3.4-8
		c2.2-2.2,4.8-3.3,7.9-3.3h45.2c3,0,5.7,1.1,8,3.3c2.2,2.3,3.3,5,3.3,8v11.3c0,3.1-1.1,5.7-3.3,7.9c-2.3,2.3-5,3.4-8,3.4
		s-5.7-1.1-7.9-3.4C599.5,41.1,598.4,38.4,598.4,35.3L598.4,35.3z"/>
	<path class="st0" d="M700.1,24c3.1,0,5.8,1.1,8,3.3c2.2,2.3,3.3,5,3.3,8.1v33.9c0,3.1-1.1,5.8-3.3,7.9c-2.2,2.2-4.9,3.4-8,3.4
		h-45.2c-3.1,0-5.8-1.1-7.9-3.4c-2.3-2.2-3.4-4.8-3.4-7.9V24c0-3,1.1-5.7,3.4-8c2.2-2.2,4.8-3.3,7.9-3.3h22.6c3,0,5.7,1.1,8,3.3
		c2.2,2.3,3.2,5,3.2,8H700.1L700.1,24z M666.2,35.4v22.6h22.6V35.4H666.2z"/>
</g>
</svg>
