<?xml version="1.0" encoding="utf-8"?>
<!-- Generator: Adobe Illustrator 28.0.0, SVG Export Plug-In . SVG Version: 6.00 Build 0)  -->
<svg version="1.1" id="Слой_1" xmlns="http://www.w3.org/2000/svg" xmlns:xlink="http://www.w3.org/1999/xlink" x="0px" y="0px"
	 viewBox="0 0 17.9 14" style="enable-background:new 0 0 17.9 14;" xml:space="preserve">
<style type="text/css">
	.st0{fill:#013F4E;}
</style>
<path class="st0" d="M13.7,2.3l3.8,3.8c0.2,0.2,0.4,0.5,0.4,0.9c0,0.3-0.1,0.6-0.4,0.9l-3.8,3.8C13.5,11.9,13.2,12,13,12
	c-0.6,0-1.1-0.5-1.1-1.1V9h-4c-0.6,0-1-0.4-1-1V6c0-0.6,0.4-1,1-1h4V3.1C11.9,2.5,12.4,2,13,2C13.2,2,13.5,2.1,13.7,2.3z M6.9,2h-2
	c-0.6,0-1,0.4-1,1v8c0,0.6,0.4,1,1,1h2c0.6,0,1,0.4,1,1c0,0.6-0.4,1-1,1h-2c-1.7,0-3-1.3-3-3V3c0-1.7,1.3-3,3-3h2c0.6,0,1,0.4,1,1
	S7.5,2,6.9,2z"/>
</svg>
