<?xml version="1.0" encoding="UTF-8"?>
<svg id="_Слой_1" data-name="Слой 1" xmlns="http://www.w3.org/2000/svg" viewBox="0 0 862 96">
  <defs>
    <style>
      .cls-1 {
        fill: #fff;
      }

      .cls-2, .cls-3 {
        fill: none;
      }

      .cls-4 {
        fill: #013f4e;
      }

      .cls-3 {
        stroke: #013f4e;
        stroke-miterlimit: 10;
      }
    </style>
  </defs>
  <g>
    <path class="cls-4" d="m85.18,53.96c-10.07-.4-19.39.62-25.86,1.69-9.92,1.63-17.2,4.06-19.59,4.9-2.31.81-9.55,3.4-18.37,8.27-3.94,2.17-11.85,7.28-15.09,9.49-.59.45-.83,1.16-.83,1.96v.42c0,.31-.25.56-.56.56h-1.34c-.31,0-.56-.25-.56-.56V11.36c0-.31.25-.56.56-.56h1.34c.31,0,.56.25.56.56v12.98l3.13-12.26c.15-.65.36-.97.62-.97.2,0,.41.17.61.51.21.34.38.77.53,1.28.14.51.21,1.06.21,1.64,0,.17-.01.37-.04.61-.02.24-.06.46-.12.67l-3.15,11.49,3.86,17.03c.08.38.13.77.13,1.18,0,.55-.07,1.08-.2,1.59-.14.51-.31.93-.53,1.25-.21.33-.43.49-.65.49-.17,0-.32-.1-.45-.31-.14-.21-.26-.53-.36-.97l-3.33-14.61-.24.87v19.52c0-1.86,1.5-3.37,3.37-3.37h3.63c-.72.25-1.31.47-1.66.6-.13.02-1.7.63-2.89,1.36-.45.25-1.06.6-1.61,1.24-.37.44-.64.85-.83,1.31-.18.44-.29.91-.32,1.39-.02.31.11.58.32.77.57.51,1.52.13,1.56-.65.04-.62.25-1.09.69-1.59.41-.47.87-.68,1.35-.96,1.27-.75,2.31-1.08,2.32-1.09h.03c1.25-.48,5.09-1.84,6.83-2.39h9.77c-2.61.74-4.87,1.47-6.89,2.23-5.31,1.98-11.55,5.44-14.53,7.73-.95.9-1.26,1.65-1.44,2.58-.05.33.08.65.31.86.54.48,1.44.17,1.55-.56.11-.54.25-.9.84-1.49,7.99-5.34,13.34-7.88,27.64-11.35h12.24c-12.47,2.26-25.3,6.74-35.83,12.92-2.53,1.32-4.83,2.85-5.61,3.72-.83.98-1.06,1.72-1.15,2.71-.03.52.36.97.88,1,.52.03.97-.36,1-.88.06-.59.18-.97.68-1.58.45-.51,2.33-1.87,5.09-3.31l.04-.02c13.76-8.01,30.36-12.98,48.11-14.4h0c2.27.14,4.08.32,5.27.45,1.42.15,2.88.33,4.33.55-20.77.81-41.66,6.93-59.17,18.04-2.42,1.51-4.6,3.22-5.31,4.16-.36.5-.54.87-.67,1.21-.19.51-.28,1.05-.27,1.59,0,.52.45.94.96.92.52-.01.93-.44.92-.96,0-.3.04-.61.15-.9,0-.02.15-.38.41-.72.41-.55,2.18-2.06,4.81-3.7h0c19.85-12.64,44.6-18.93,68.88-17.7h0c1.78.38,3.16.7,3.92.89Z"/>
    <path class="cls-4" d="m15.01,14.04v14.03c0,.27.22.48.48.48h3.55c.27,0,.48.22.48.48v1.48c0,.27-.22.48-.48.48h-3.55c-.27,0-.48.22-.48.48v14.03c0,.27.22.48.48.48h4.77c.27,0,.48.22.48.48v1.48c0,.27-.22.48-.48.48h-6.55c-.25,0-.48-.18-.69-.54-.21-.36-.32-.9-.32-1.62V13.26c0-.72.11-1.25.32-1.62.21-.36.44-.54.69-.54h6.55c.27,0,.48.22.48.48v1.48c0,.27-.22.48-.48.48h-4.77c-.27,0-.48.22-.48.48Z"/>
    <path class="cls-4" d="m24.8,14.04v14.03c0,.27.22.48.48.48h3.55c.27,0,.48.22.48.48v1.48c0,.27-.22.48-.48.48h-3.55c-.27,0-.48.22-.48.48v14.03c0,.27.22.48.48.48h4.77c.27,0,.48.22.48.48v1.48c0,.27-.22.48-.48.48h-6.55c-.25,0-.48-.18-.69-.54-.21-.36-.32-.9-.32-1.62V13.26c0-.72.11-1.25.32-1.62.21-.36.44-.54.69-.54h6.55c.27,0,.48.22.48.48v1.48c0,.27-.22.48-.48.48h-4.77c-.27,0-.48.22-.48.48Z"/>
    <path class="cls-4" d="m39.89,46.63v1.48c0,.27-.22.48-.48.48h-5.94c-.25,0-.48-.18-.69-.54-.21-.36-.32-.9-.32-1.62V11.56c0-.25.21-.46.46-.46h1.39c.25,0,.46.21.46.46v34.1c0,.27.22.48.48.48h4.16c.27,0,.48.22.48.48Z"/>
    <path class="cls-4" d="m44.22,48.9c-.33,0-.64-.19-.94-.56-.3-.38-.48-.94-.57-1.69l-3.51-32.25c-.02-.21-.04-.41-.04-.62,0-.51.08-.97.23-1.36.15-.39.35-.71.58-.95.23-.24.45-.36.66-.36.18,0,.34.1.49.31.15.21.24.55.27,1.03l2.8,27.79,1.51-17.84c.06-.62.2-1.08.42-1.38.22-.31.46-.46.72-.46s.5.15.72.46c.22.31.35.77.4,1.38l1.51,17.84,2.8-27.79c.05-.48.14-.82.28-1.03.14-.21.3-.31.48-.31.22,0,.45.12.67.36.22.24.41.56.57.95.15.39.23.85.23,1.36,0,.21-.01.41-.04.62l-3.51,32.25c-.09.75-.28,1.32-.57,1.69s-.6.56-.94.56-.64-.19-.94-.56-.47-.94-.53-1.69l-1.13-13.85-1.15,13.85c-.06.75-.24,1.32-.53,1.69s-.61.56-.94.56Z"/>
    <path class="cls-4" d="m64.43,45.31l-3.42-32.25c-.08-.75-.27-1.32-.55-1.69-.28-.38-.6-.56-.94-.56s-.64.19-.93.56c-.29.38-.47.94-.56,1.69l-3.42,32.25c-.01.24-.02.41-.02.51,0,.55.08,1.03.23,1.44.15.41.34.73.57.97.22.24.44.36.66.36.19,0,.35-.09.5-.28.14-.19.24-.54.28-1.05l.66-6.82.11-1.12c.02-.2.19-.36.39-.36h3.08c.2,0,.37.15.39.36l.11,1.12.67,6.82c.05.51.14.86.28,1.05.13.19.3.28.49.28.21,0,.43-.12.66-.36.22-.24.42-.57.58-1,.16-.43.24-.9.24-1.41,0-.1-.01-.28-.04-.51Zm-6.18-8.8c-.21,0-.38-.18-.36-.39l.09-.91,1.54-15.74,1.63,16.65c.02.21-.15.39-.36.39h-2.54Z"/>
    <path class="cls-4" d="m73.26,48.85c-.15,0-.3-.14-.45-.41-.15-.27-.26-.67-.35-1.18l-2.52-14.15h-1.49v13.33c0,.72-.12,1.26-.35,1.61-.24.36-.5.54-.8.54s-.55-.18-.79-.54c-.24-.36-.36-.9-.36-1.61V13.21c0-.58.07-1.08.2-1.49.14-.41.32-.62.54-.62h3.51c.78,0,1.49.33,2.12.97.63.65,1.14,1.75,1.52,3.31s.57,3.7.57,6.43c0,1.98-.1,3.67-.3,5.05-.2,1.38-.48,2.5-.82,3.33-.35.84-.75,1.46-1.2,1.87l2.34,12.46c.02.14.04.28.05.44.01.15.02.28.02.38,0,.55-.07,1.09-.21,1.64-.14.55-.32.99-.54,1.33s-.45.51-.68.51Zm-4.8-17.91h1.95c.58,0,1.04-.41,1.38-1.23s.51-5.28.51-7.27-.17-6.85-.51-7.65c-.34-.8-.8-1.2-1.38-1.2h-1.95v17.35Z"/>
    <path class="cls-4" d="m84.47,16c-.37-1.72-.88-2.97-1.51-3.74-.63-.77-1.34-1.15-2.12-1.15h-3.14c-.31,0-.55.21-.73.62-.18.41-.28.9-.28,1.48v33.21c0,.58.09,1.08.28,1.48.18.41.43.62.73.62h3.14c.78,0,1.49-.39,2.12-1.15.63-.77,1.14-2.02,1.51-3.74.37-1.73.56-4.03.56-6.9v-13.82c0-2.87-.19-5.17-.56-6.9Zm-1.75,20.72c0,2.02-.17,6.88-.5,7.85-.33.98-.79,1.46-1.37,1.46h-1.5c-.2,0-.36-.16-.36-.36V13.95c0-.2.16-.36.36-.36h1.5c.58,0,1.03.48,1.37,1.46.33.97.5,5.84.5,7.85v13.82Z"/>
    <line class="cls-2" x1="61.18" y1="36.51" x2="61.06" y2="35.21"/>
    <path class="cls-1" d="m60.93,50.14c-17.75,1.42-34.35,6.38-48.11,14.4l-.04.02c-2.76,1.44-4.63,2.8-5.09,3.31-.5.6-.62.98-.68,1.58-.03.52-.49.92-1,.88-.52-.03-.91-.48-.88-1,.09-.99.32-1.72,1.15-2.71.77-.87,3.08-2.4,5.6-3.72,10.54-6.18,23.37-10.66,35.83-12.92,0,0,0,0,0,0,4.05.02,9.46-.09,13.21.16Z"/>
    <path class="cls-1" d="m81.26,53.07c-24.28-1.23-49.03,5.06-68.88,17.7h0c-2.63,1.65-4.4,3.16-4.81,3.7-.26.34-.4.7-.41.72-.1.29-.16.6-.15.9.01.52-.4.95-.92.96-.52.01-.95-.4-.96-.92-.01-.54.08-1.08.27-1.59.13-.34.31-.71.67-1.21.71-.94,2.89-2.65,5.31-4.16,17.52-11.1,38.4-17.23,59.17-18.04h0s0,0,0,0t0,0h0c3.95.57,7.85,1.32,10.72,1.93Z"/>
    <path class="cls-1" d="m35.48,49.98c-14.3,3.48-19.65,6.01-27.64,11.36-.6.58-.73.95-.84,1.49-.11.73-1.01,1.04-1.55.56-.24-.21-.36-.53-.31-.86.18-.93.49-1.68,1.43-2.58,2.98-2.29,9.23-5.75,14.53-7.73,2.02-.76,4.29-1.49,6.89-2.24h7.48Z"/>
    <path class="cls-1" d="m18.23,49.98c-1.74.56-5.58,1.91-6.84,2.39h-.03s-1.06.34-2.32,1.09c-.48.28-.93.5-1.35.96-.43.49-.64.96-.69,1.58-.05.78-.99,1.16-1.56.65-.21-.19-.34-.47-.32-.77.03-.48.14-.95.32-1.39.19-.46.45-.87.83-1.31.56-.64,1.17-.98,1.61-1.24,1.19-.74,2.76-1.35,2.89-1.36.35-.13.94-.35,1.66-.61h5.79Z"/>
  </g>
  <g>
    <path class="cls-3" d="m190.91,35.35c3.05,0,5.72,1.09,8,3.26,2.17,2.28,3.25,4.97,3.25,8.06s-1.08,5.72-3.25,7.89-4.91,3.37-8,3.37h-11.31v11.31c0,3.09-1.1,5.74-3.31,7.95-2.24,2.24-4.91,3.37-8,3.37s-5.76-1.12-7.89-3.37c-2.28-2.17-3.42-4.82-3.42-7.95V24.04c0-3.05,1.14-5.72,3.42-8,2.21-2.21,4.84-3.31,7.89-3.31s5.68,1.1,8,3.31c2.21,2.32,3.31,4.98,3.31,8v11.31h11.31Zm22.57,0c-3.09,0-5.72-1.14-7.89-3.42-2.28-2.17-3.42-4.8-3.42-7.89s1.14-5.72,3.42-8,4.84-3.31,7.89-3.31,5.74,1.1,8.05,3.31c2.17,2.28,3.26,4.95,3.26,8s-1.08,5.72-3.26,7.89c-2.28,2.28-4.96,3.42-8.05,3.42Zm0,22.57c3.05,0,5.74,1.1,8.05,3.31,2.17,2.28,3.26,4.95,3.26,8s-1.08,5.78-3.26,7.95c-2.24,2.24-4.93,3.37-8.05,3.37s-5.76-1.12-7.89-3.37c-2.28-2.17-3.42-4.82-3.42-7.95s1.14-5.72,3.42-8,4.84-3.31,7.89-3.31Z"/>
    <path class="cls-3" d="m303.86,57.91c3.05,0,5.74,1.1,8.05,3.31,2.17,2.28,3.26,4.95,3.26,8s-1.08,5.78-3.26,7.95c-2.24,2.24-4.93,3.37-8.05,3.37h-45.19c-3.13,0-5.76-1.12-7.89-3.37-2.28-2.17-3.42-4.82-3.42-7.95V24.04c0-3.05,1.14-5.72,3.42-8,2.21-2.21,4.84-3.31,7.89-3.31h45.19c3.05,0,5.74,1.1,8.05,3.31,2.17,2.28,3.26,4.95,3.26,8s-1.08,5.72-3.26,7.89c-2.28,2.28-4.96,3.42-8.05,3.42h-33.88v11.31h11.31c3.05,0,5.72,1.09,8,3.26,2.17,2.28,3.25,4.95,3.25,8h11.31Z"/>
    <path class="cls-3" d="m394.23,57.91c3.05,0,5.74,1.1,8.05,3.31,2.17,2.28,3.26,4.95,3.26,8s-1.08,5.78-3.26,7.95c-2.24,2.24-4.93,3.37-8.05,3.37h-45.19c-3.13,0-5.76-1.12-7.89-3.37-2.28-2.17-3.42-4.82-3.42-7.95V24.04c0-3.05,1.14-5.72,3.42-8,2.21-2.21,4.84-3.31,7.89-3.31h45.19c3.05,0,5.74,1.1,8.05,3.31,2.17,2.28,3.26,4.95,3.26,8s-1.08,5.72-3.26,7.89c-2.28,2.28-4.96,3.42-8.05,3.42h-33.88v11.31h11.31c3.05,0,5.72,1.09,8,3.26,2.17,2.28,3.25,4.95,3.25,8h11.31Z"/>
    <path class="cls-3" d="m484.61,57.91c3.05,0,5.74,1.1,8.05,3.31,2.17,2.28,3.26,4.95,3.26,8s-1.08,5.78-3.26,7.95c-2.24,2.24-4.93,3.37-8.05,3.37h-45.19c-3.13,0-5.76-1.12-7.89-3.37-2.28-2.17-3.42-4.82-3.42-7.95V24.04c0-3.05,1.14-5.72,3.42-8,2.21-2.21,4.84-3.31,7.89-3.31s5.68,1.1,8,3.31c2.21,2.32,3.31,4.98,3.31,8v33.88h33.88Z"/>
    <path class="cls-3" d="m574.99,12.72c3.05,0,5.74,1.1,8.05,3.31,2.17,2.28,3.26,4.95,3.26,8v45.19c0,3.13-1.08,5.78-3.26,7.95-2.24,2.24-4.93,3.37-8.05,3.37s-5.76-1.12-7.89-3.37c-2.28-2.17-3.42-4.82-3.42-7.95h-11.26c0,3.09-1.1,5.74-3.31,7.95s-4.91,3.37-8,3.37h-11.31c-3.13,0-5.76-1.12-7.89-3.37-2.28-2.17-3.42-4.82-3.42-7.95V24.04c0-3.05,1.14-5.72,3.42-8,2.21-2.21,4.84-3.31,7.89-3.31s5.68,1.1,8,3.31c2.21,2.32,3.31,4.98,3.31,8v33.88h11.31c0-3.09,1.12-5.76,3.37-8s4.8-3.26,7.89-3.26v-22.62c0-3.05,1.14-5.72,3.42-8s4.84-3.31,7.89-3.31Z"/>
    <path class="cls-3" d="m665.37,12.72c3.05,0,5.74,1.1,8.05,3.31,2.17,2.28,3.26,4.95,3.26,8v45.19c0,3.13-1.08,5.78-3.26,7.95-2.24,2.24-4.93,3.37-8.05,3.37s-5.76-1.12-7.89-3.37c-2.28-2.17-3.42-4.82-3.42-7.95h-22.57c0,3.09-1.1,5.74-3.31,7.95-2.24,2.24-4.91,3.37-8,3.37s-5.76-1.12-7.89-3.37c-2.28-2.17-3.42-4.82-3.42-7.95V24.04c0-3.05,1.14-5.72,3.42-8,2.21-2.21,4.84-3.31,7.89-3.31h45.19Zm-33.88,33.93h22.57v-11.31h-22.57v11.31Z"/>
    <path class="cls-3" d="m744.43,35.35h-22.57v11.31h11.31c3.05,0,5.72,1.09,8,3.26,2.17,2.28,3.25,4.95,3.25,8h11.31c3.05,0,5.74,1.1,8.05,3.31,2.17,2.28,3.26,4.95,3.26,8s-1.08,5.78-3.26,7.95c-2.24,2.24-4.93,3.37-8.05,3.37s-5.76-1.12-7.89-3.37c-2.28-2.17-3.42-4.82-3.42-7.95h-22.57c0,3.09-1.1,5.74-3.31,7.95-2.24,2.24-4.91,3.37-8,3.37s-5.76-1.12-7.89-3.37c-2.28-2.17-3.42-4.82-3.42-7.95V24.04c0-3.05,1.14-5.72,3.42-8,2.21-2.21,4.84-3.31,7.89-3.31h45.19c3.05,0,5.74,1.1,8.05,3.31,2.17,2.28,3.26,4.95,3.26,8v11.31c0,3.09-1.08,5.72-3.26,7.89-2.28,2.28-4.96,3.42-8.05,3.42s-5.72-1.14-7.89-3.42c-2.28-2.17-3.42-4.8-3.42-7.89Z"/>
    <path class="cls-3" d="m846.12,24.04c3.09,0,5.77,1.09,8.05,3.26,2.17,2.28,3.26,4.97,3.26,8.06v33.88c0,3.13-1.08,5.78-3.26,7.95-2.24,2.24-4.93,3.37-8.05,3.37h-45.19c-3.13,0-5.76-1.12-7.89-3.37-2.28-2.17-3.42-4.82-3.42-7.95V24.04c0-3.05,1.14-5.72,3.42-8,2.21-2.21,4.84-3.31,7.89-3.31h22.62c3.02,0,5.68,1.1,8,3.31,2.17,2.28,3.25,4.95,3.25,8h11.31Zm-33.88,11.31v22.57h22.57v-22.57h-22.57Z"/>
  </g>
  <circle class="cls-3" cx="119.5" cy="48.5" r="4"/>
</svg>