<?xml version="1.0" encoding="UTF-8"?>
<svg id="_Слой_1" data-name="Слой 1" xmlns="http://www.w3.org/2000/svg" viewBox="0 0 100 100">
  <defs>
    <style>
      .cls-1 {
        fill: #013f4e;
        stroke-width: 0px;
      }
    </style>
  </defs>
  <rect class="cls-1" x=".35" y="30.04" width="12.41" height="64.13" rx="6.21" ry="6.21"/>
  <rect class="cls-1" x="87.24" y="30.04" width="12.41" height="64.13" rx="6.21" ry="6.21"/>
  <polygon class="cls-1" points="81.03 36.25 81.03 87.97 18.97 87.97 18.97 36.25 43.79 36.25 43.79 27.97 56.21 27.97 56.21 36.25 81.03 36.25"/>
  <path class="cls-1" d="m81,18.25c0,3.23-2.62,5.85-5.85,5.85l-1.3-.15-18.23-2.06-5.81-.66-5.81.66-18.23,2.06-1.3.15c-3.23,0-5.85-2.62-5.85-5.85s2.62-5.85,5.85-5.85l1.27.14,18.25,2.02v-1.83c-.06-.34-.1-.69-.1-1.05,0-3.23,2.62-5.85,5.85-5.85.02,0,.04,0,.06,0,.02,0,.04,0,.06,0,3.23,0,5.85,2.62,5.85,5.85,0,.36-.03.71-.1,1.05v1.83l18.25-2.02,1.27-.14c3.23,0,5.85,2.62,5.85,5.85Z"/>
  <path class="cls-1" d="m25.74,12.54l-1.27-.14c.44,0,.86.05,1.27.14Z"/>
  <path class="cls-1" d="m25.76,23.95c-.42.1-.85.15-1.3.15l1.3-.15Z"/>
</svg>