<?xml version="1.0" encoding="utf-8"?>
<!-- Generator: Adobe Illustrator 28.0.0, SVG Export Plug-In . SVG Version: 6.00 Build 0)  -->
<svg version="1.1" id="Слой_1" xmlns="http://www.w3.org/2000/svg" xmlns:xlink="http://www.w3.org/1999/xlink" x="0px" y="0px"
	 viewBox="0 0 576 512" style="enable-background:new 0 0 576 512;" xml:space="preserve">
<style type="text/css">
	.st0{fill:#013F4E;}
</style>
<path class="st0" d="M175.9,6c-1.7,0-3.4,0.7-4.6,1.9c-28.9,29.3-46.8,69.7-46.8,114.2c0,25.4,5.8,49.3,16.1,70.6
	c-21.3,2.3-42.4,8.8-62.1,19.8C45,231.2,21.2,259.9,8.7,292.4c-0.7,1.6-0.5,3.6,0.5,5c2.1,3.6,7.2,4.2,10.3,1.3
	c51-46.6,141.8-55.5,187.2,20.8s-7.8,148.1-75.1,167.6c-4.1,1.2-6.1,5.7-4,9.3c1,1.5,2.5,2.6,4.4,2.9c35.3,5.7,72.8,0.1,106.2-18.6
	c19.7-11,36.2-25.6,48.9-42.4c12.7,16.7,29.1,31.4,48.9,42.4c33.4,18.7,70.9,24.4,106.2,18.6c1.8-0.3,3.4-1.4,4.4-2.9
	c2.1-3.6,0.1-8.1-4-9.3c-67.3-19.4-120.6-91.2-75.1-167.6s136.1-67.5,187.2-20.7c3.1,2.8,8.1,2.2,10.3-1.3c1-1.5,1.1-3.4,0.5-5
	c-12.5-32.5-36.3-61.2-69.8-79.8c-19.7-11-40.8-17.5-62.1-19.8c10.4-21.5,16.2-45.4,16.2-70.7c0-44.5-17.9-84.9-46.8-114.2
	c-1.3-1.3-2.9-1.9-4.6-1.9c-4.8,0-8.1,5-6.5,9.6c24.8,68.3-10.2,160.7-104.6,160.7S157.6,83.9,182.4,15.5C184.1,11,180.9,6,175.9,6z
	 M240.6,269.2c0-25.7,20.8-46.4,46.4-46.4s46.4,20.8,46.4,46.4s-20.8,46.4-46.4,46.4S240.6,294.8,240.6,269.2z M184.2,410.1
	c6.1-11.4,9.5-24.3,8.3-38.5c-18.9-17.4-32.9-40.1-39.9-65.6c-12.1-7.8-25.4-11.4-38.7-12c-8.7-0.4-17.5,0.6-26.2,2.6
	c7.5,55.3,37.4,103.3,80.2,134.9C174.5,425,180.1,417.8,184.2,410.1z M287,67.9c-27.9,0-54.5,5.7-78.6,16c1.9,8,4.8,15.7,8.7,22.7
	c6.6,12,16.2,22.4,29.1,29.3c12.9-4,26.6-6.1,40.8-6.1s27.9,2.1,40.8,6.1c13-7,22.5-17.3,29.1-29.3c3.9-7.1,6.8-14.7,8.7-22.7
	C341.5,73.6,314.9,67.9,287,67.9z M421.4,305.9c-7,25.5-21,48.1-39.9,65.6c-1.2,14.2,2.1,27.2,8.3,38.5c4.2,7.7,9.7,14.9,16.3,21.4
	c42.9-31.5,72.8-79.6,80.2-134.9c-8.7-2.1-17.5-3-26.2-2.6C446.8,294.5,433.5,298.2,421.4,305.9z"/>
</svg>
