<?xml version="1.0" encoding="UTF-8"?>
<svg id="_Слой_1" data-name="Слой 1" xmlns="http://www.w3.org/2000/svg" viewBox="0 0 100 100">
  <defs>
    <style>
      .cls-1 {
        fill: #fff;
      }

      .cls-1, .cls-2 {
        stroke-width: 0px;
      }

      .cls-2 {
        fill: #eb5757;
      }
    </style>
  </defs>
  <polygon class="cls-2" points="86.15 59.73 92.78 74.79 76.34 76.42 74.67 92.95 59.58 86.24 50 99.67 40.42 86.24 25.33 92.95 23.66 76.42 7.22 74.79 13.85 59.73 .42 50 13.85 40.27 7.22 25.21 23.66 23.58 25.33 7.05 40.42 13.76 50 .33 59.58 13.76 74.67 7.05 76.34 23.58 92.78 25.21 86.15 40.27 99.58 50 86.15 59.73"/>
  <g>
    <path class="cls-1" d="m36.5,42.08v16.66c-.2.18-.48.33-.83.44-.35.11-.75.17-1.19.17-.54,0-1.02-.1-1.45-.29-.42-.19-.79-.59-1.11-1.19l-5.03-8.74c-.28-.52-.58-1.07-.89-1.66-.31-.58-.61-1.14-.89-1.69-.28-.54-.51-1.01-.69-1.42l-.15.04c.06.54.11,1.12.15,1.74.06.84.1,1.69.12,2.55.02.85.03,1.67.03,2.45v7.95c-.12.04-.32.09-.59.15-.27.06-.55.09-.83.09-.58,0-1.01-.11-1.28-.33-.27-.22-.41-.58-.41-1.08v-16.57c.2-.22.48-.39.84-.51.36-.12.75-.18,1.17-.18.54,0,1.02.1,1.45.3.42.2.79.59,1.11,1.17l5.06,8.74c.3.5.6,1.05.9,1.64.3.59.59,1.16.86,1.7.27.54.5,1.01.68,1.42l.12-.03c-.15-1.43-.23-2.86-.26-4.29-.03-1.62-.05-3.18-.05-4.69v-5.75c.16-.04.37-.09.63-.14.26-.05.53-.08.81-.08.58,0,1.01.11,1.28.32.27.21.41.58.41,1.1Z"/>
    <path class="cls-1" d="m53.68,57.83c0,.42-.1.75-.3.99-.2.24-.48.36-.84.36h-9.34c-.5,0-.91-.16-1.22-.48-.31-.32-.47-.73-.47-1.24v-14.91c0-.52.15-.94.47-1.25.31-.31.72-.47,1.22-.47h10c.08.12.15.29.23.51.07.22.11.46.11.72,0,.42-.1.75-.3.99-.2.24-.48.36-.84.36h-7.77v5.06h7.68c.08.12.15.29.23.51.07.22.11.46.11.72,0,.42-.1.75-.3.98-.2.23-.48.35-.84.35h-6.87v5.54h8.74c.08.12.15.29.23.51.07.22.11.46.11.72Z"/>
    <path class="cls-1" d="m65.85,45.39c.16-.1.39-.19.69-.26.3-.07.61-.11.93-.11.5,0,.93.08,1.28.24.35.16.57.39.65.69.46,1.37.87,2.63,1.24,3.78.36,1.16.71,2.27,1.05,3.34.34,1.07.68,2.19,1.02,3.36h.12c.34-1.77.67-3.48.99-5.14.32-1.66.63-3.32.92-5,.29-1.68.57-3.45.83-5.32.4-.2.85-.3,1.36-.3.46,0,.84.11,1.14.32s.45.54.45.98c0,.4-.05.99-.15,1.76-.1.77-.24,1.68-.42,2.71-.18,1.03-.39,2.12-.63,3.25-.24,1.13-.49,2.26-.75,3.39-.26,1.13-.53,2.17-.8,3.15-.27.97-.53,1.8-.77,2.49-.22.14-.52.27-.9.38-.38.11-.79.17-1.24.17-.56,0-1.04-.09-1.43-.26-.39-.17-.65-.4-.77-.68-.24-.66-.54-1.51-.89-2.55-.35-1.03-.72-2.17-1.1-3.4-.38-1.24-.75-2.47-1.11-3.69-.32,1.21-.67,2.45-1.05,3.74-.38,1.29-.75,2.48-1.11,3.58-.36,1.1-.68,2.01-.96,2.71-.18.14-.45.27-.81.38-.36.11-.77.17-1.24.17-.54,0-1.02-.09-1.43-.27-.41-.18-.68-.4-.8-.66-.2-.5-.44-1.24-.72-2.21-.28-.97-.58-2.1-.89-3.37-.31-1.28-.62-2.6-.92-3.96-.3-1.37-.58-2.69-.83-3.98-.25-1.29-.45-2.43-.59-3.43.16-.18.4-.34.71-.48.31-.14.65-.21,1.01-.21.46,0,.83.11,1.1.32.27.21.45.57.53,1.07.28,1.45.54,2.79.77,4.02.23,1.24.46,2.41.68,3.52.22,1.11.45,2.23.68,3.34.23,1.11.48,2.27.74,3.48h.15c.24-.88.48-1.72.72-2.52.24-.79.49-1.6.74-2.43.25-.82.52-1.73.81-2.71.29-.98.63-2.12,1.01-3.4Z"/>
  </g>
</svg>