<?xml version="1.0" encoding="utf-8"?>
<!-- Generator: Adobe Illustrator 28.0.0, SVG Export Plug-In . SVG Version: 6.00 Build 0)  -->
<svg version="1.1" id="Слой_1" xmlns="http://www.w3.org/2000/svg" xmlns:xlink="http://www.w3.org/1999/xlink" x="0px" y="0px"
	 viewBox="0 0 576 512" style="enable-background:new 0 0 576 512;" xml:space="preserve">
<style type="text/css">
	.st0{fill:#013F4E;}
</style>
<path class="st0" d="M192.7,35.3c0-17.6,14.2-31.8,31.8-31.8h127.1c17.6,0,31.8,14.2,31.8,31.8v31.8H431c26.3,0,47.7,21.3,47.7,47.7
	v127.1l44.1,14.7c22.9,7.6,29.3,37.2,11.4,53.5l-100.3,92c-16.1,9.3-34.5,15-50.5,15c-19.5,0-40.5-7.6-58.8-20.2
	c-21.9-15.4-51.2-15.4-73.2,0c-17,11.7-37.7,20.2-58.8,20.2c-16.1,0-34.5-5.7-50.5-15l-100.3-92c-17.9-16.4-11.5-45.9,11.4-53.5
	l44.2-14.7V114.8c0-26.3,21.3-47.7,47.7-47.7h47.7V35.3z M160.9,220.7l107-35.6c13-4.4,27.1-4.4,40.2,0l106.9,35.6v-90.1H160.9
	V220.7z M306.4,422.5c22.3,15.4,49.6,25.9,77,25.9c26.7,0,55-10.7,76.9-25.9l0,0c11.8-8.4,27.9-7.7,38.9,1.7
	c14.3,11.8,32.3,20.9,50.2,25c17.1,4,27.7,21.1,23.7,38.1c-4,17.1-21.1,27.7-38.1,23.7c-24.3-5.7-44.6-16.4-57.8-24.8
	c-28.8,15.5-61.1,25.7-93.8,25.7c-31.7,0-60.2-9.8-79.8-18.8c-5.8-2.7-11-5.3-15.5-7.6c-4.5,2.4-9.6,5.1-15.5,7.6
	c-19.7,8.9-48.2,18.8-79.8,18.8c-32.8,0-65-10.2-93.8-25.6c-13.3,8.3-33.5,19.2-57.8,24.8c-17.1,4-34.2-6.7-38.1-23.7
	c-4-17.1,6.7-34.2,23.7-38.1c18-4.2,35.9-13.2,50.2-25c11-9.3,27.1-10,38.9-1.7l0,0c21.9,15.1,50.1,25.8,76.9,25.8
	c27.3,0,54.6-10.5,77-25.9C280.7,414.6,295.3,414.6,306.4,422.5z"/>
</svg>
