<?xml version="1.0" encoding="utf-8"?>
<!-- Generator: Adobe Illustrator 28.0.0, SVG Export Plug-In . SVG Version: 6.00 Build 0)  -->
<svg version="1.1" id="Слой_1" xmlns="http://www.w3.org/2000/svg" xmlns:xlink="http://www.w3.org/1999/xlink" x="0px" y="0px"
	 viewBox="0 0 576 512" style="enable-background:new 0 0 576 512;" xml:space="preserve">
<style type="text/css">
	.st0{fill:#013F4E;}
</style>
<path class="st0" d="M431,67.1h-47.6V35.3c0-17.6-14.2-31.8-31.8-31.8H224.5c-17.6,0-31.8,14.2-31.8,31.8h0.1v31.8h-47.7
	c-26.4,0-47.7,21.4-47.7,47.7v127.1l-44.2,14.7c-22.9,7.6-29.3,37.1-11.4,53.5l100.3,92c16,9.3,34.4,15,50.5,15
	c3.2,0,6.3-0.2,9.5-0.6L288,264l117.7-46.4l-97.6-32.5c-13.1-4.4-27.2-4.4-40.2,0l-107,35.6v-90.1H415v83.3l63.7-25.1v-74
	C478.7,88.4,457.3,67.1,431,67.1z M152.5,441.2c-13.1-4.6-25.7-11-36.6-18.6c-11.8-8.3-27.9-7.6-38.9,1.7
	c-14.3,11.8-32.2,20.8-50.2,25c-17,3.9-27.7,21-23.7,38.1c3.9,17,21,27.7,38.1,23.7c24.3-5.6,44.5-16.5,57.8-24.8
	c16.5,8.8,34.1,15.9,52.3,20.4l33-58.7C173.7,447.2,162.9,444.8,152.5,441.2z"/>
<path class="st0" d="M363.9,268.5c-4.5-3.5-10.9-3.1-14.9,0.9l-18.9,18.9c-4,4-4.4,10.4-1,14.9l37.7,49.1c2.1,2.8,5.5,4.4,9,4.4
	h25.5l51.4,51.4c-6.9,13.7-4.7,30.9,6.7,42.3l52.8,52.8c5.9,5.9,15.5,5.9,21.4,0l30.2-30.2c5.9-5.9,5.9-15.5,0-21.4l-52.8-52.8
	c-11.4-11.4-28.6-13.7-42.3-6.7l-51.4-51.4v-25.5c0-3.5-1.7-6.8-4.4-9L363.9,268.5z M336.2,453c-6,6-9.4,14.2-9.4,22.6
	c0,17.7,14.3,32,32,32c8.5,0,16.7-3.4,22.6-9.4l55.6-55.6c-3.7-9.9-4.2-20.6-1.7-30.7l-29.1-29.1L336.2,453z M568.3,334.1
	c0-5-0.5-9.8-1.5-14.4c-1.1-5.3-7.6-6.7-11.4-2.8L525.3,347c-1.4,1.4-3.3,2.2-5.3,2.2h-27.1c-4.2,0-7.5-3.4-7.5-7.5v-27.1
	c0-2,0.8-3.9,2.2-5.3l30.1-30.1c3.8-3.8,2.5-10.3-2.8-11.4c-4.7-1-9.5-1.5-14.4-1.5c-37.5,0-67.9,30.4-67.9,67.9v0.4l40.2,40.2
	c17-4.3,35.8,0.2,49.1,13.5l7.4,7.4C552.3,384.8,568.3,361.3,568.3,334.1z M353.2,470c0-6.3,5.1-11.3,11.3-11.3
	c6.3,0,11.3,5.1,11.3,11.3s-5.1,11.3-11.3,11.3C358.3,481.3,353.2,476.2,353.2,470z"/>
</svg>
