<?xml version="1.0" encoding="utf-8"?>
<!-- Generator: Adobe Illustrator 28.0.0, SVG Export Plug-In . SVG Version: 6.00 Build 0)  -->
<svg version="1.1" id="Слой_1" xmlns="http://www.w3.org/2000/svg" xmlns:xlink="http://www.w3.org/1999/xlink" x="0px" y="0px"
	 viewBox="0 0 576 512" style="enable-background:new 0 0 576 512;" xml:space="preserve">
<style type="text/css">
	.st0{fill:#013F4E;}
</style>
<path class="st0" d="M68,124.7l220,68.7l220-68.7L288,56L68,124.7z M278.8,10.4c6-1.8,12.5-1.8,18.4,0l247.1,77.2
	c12.8,4,21.6,15.9,21.6,29.4v15.4l0,0v20.5l-273.3,85.4c-3,1-6.2,1-9.2,0L10,152.9v-20.5V117c0-13.5,8.8-25.5,21.7-29.4L278.8,10.4z
	 M301.9,267.9L566,185.4v44.9l-51,15.9c-8.1,2.5-12.6,11.2-10.1,19.3c2.5,8.1,11.2,12.6,19.3,10.1l41.8-13V395
	c0,13.5-8.8,25.5-21.7,29.4l-247.1,77.2c-6,1.8-12.5,1.8-18.4,0L31.7,424.4C18.8,420.5,10,408.5,10,395V262.6l41.7,13
	c8.1,2.5,16.8-2,19.3-10.1s-2-16.8-10.1-19.3l-50.9-16v-44.8l264.2,82.5C283.2,270.7,292.8,270.7,301.9,267.9L301.9,267.9z
	 M122.9,265.4c-8.1-2.5-16.8,2-19.3,10.1c-2.5,8.1,2,16.8,10.1,19.3l61.8,19.3c8.1,2.5,16.8-2,19.3-10.1c2.5-8.1-2-16.8-10.1-19.3
	L122.9,265.4z M462.6,294.8c8.1-2.5,12.6-11.2,10.1-19.3s-11.2-12.6-19.3-10.1l-61.8,19.3c-8.1,2.5-12.6,11.2-10.1,19.3
	s11.2,12.6,19.3,10.1L462.6,294.8z M246.4,304c-8.1-2.5-16.8,2-19.3,10.1c-2.5,8.1,2,16.8,10.1,19.3l37.2,11.6
	c9,2.8,18.6,2.8,27.6,0l37.2-11.6c8.1-2.5,12.6-11.2,10.1-19.3S338.1,301.5,330,304l-37.2,11.6c-3,1-6.2,1-9.2,0L246.4,304
	L246.4,304z"/>
</svg>
