<svg xmlns="http://www.w3.org/2000/svg" viewBox="0 0 85.78 85.78"><defs><style>.cls-1{fill:#b42903;}</style></defs><g id="Слой_2" data-name="Слой 2"><g id="Слой_1-2" data-name="Слой 1"><path class="cls-1" d="M.91,37.84A1.29,1.29,0,0,0,0,39.13v7.65a1.57,1.57,0,0,0,.91,1.3L6.09,49.5A37,37,0,0,0,8,54.17L5.31,59a1.2,1.2,0,0,0,.26,1.56L11,65.83a1.38,1.38,0,0,0,1.56.26l4.79-2.72A30.42,30.42,0,0,0,22,65.31l1.42,5.18a1.29,1.29,0,0,0,1.3.91H32.4a1.56,1.56,0,0,0,1.29-.91l1.43-5.18a36.83,36.83,0,0,0,4.66-1.94l4.8,2.72a1.19,1.19,0,0,0,1.55-.26l5.44-5.44a1.38,1.38,0,0,0,.26-1.56L49.11,54a29.49,29.49,0,0,0,2-4.67L56.24,48a1.29,1.29,0,0,0,.91-1.3V39a1.56,1.56,0,0,0-.91-1.29l-5.18-1.43a29.38,29.38,0,0,0-2-4.66l2.72-4.8a1.19,1.19,0,0,0-.26-1.55L46,20a1.37,1.37,0,0,0-1.55-.26l-4.8,2.72a29.38,29.38,0,0,0-4.66-2l-1.43-5.18a1.29,1.29,0,0,0-1.29-.91H24.62a1.57,1.57,0,0,0-1.3.91L21.9,20.47a35.62,35.62,0,0,0-4.67,2L12.44,19.7a1.2,1.2,0,0,0-1.56.26L5.7,25.4A1.37,1.37,0,0,0,5.44,27l2.72,4.8a30.3,30.3,0,0,0-1.94,4.66Zm7.64-.13a20.75,20.75,0,0,1,2.21-5.31,1.22,1.22,0,0,0,0-1.3l-2.6-4.54,4-4,4.54,2.59a1.16,1.16,0,0,0,1.29,0,17.1,17.1,0,0,1,5.32-2.2,1.58,1.58,0,0,0,.9-.91L25.66,17h5.7L32.78,22a1.57,1.57,0,0,0,.91.91A20.37,20.37,0,0,1,39,25.14a1.18,1.18,0,0,0,1.3,0l4.54-2.59,4,4L46.26,31.1a1.18,1.18,0,0,0,0,1.3,20.37,20.37,0,0,1,2.2,5.31,1.57,1.57,0,0,0,.91.91L54.43,40v5.7l-5.06,1.43a1.57,1.57,0,0,0-.91.91,20.66,20.66,0,0,1-2.2,5.31,1.16,1.16,0,0,0,0,1.29l2.59,4.54-4,4L40.3,60.65a1.18,1.18,0,0,0-1.3,0A18,18,0,0,1,33.69,63a1.58,1.58,0,0,0-.91.9l-1.42,5.06h-5.7l-1.43-5.06a1.58,1.58,0,0,0-.91-.9A21.05,21.05,0,0,1,18,60.77a1.2,1.2,0,0,0-1.29,0l-4.54,2.6-4-4,2.6-4.54a1.2,1.2,0,0,0,0-1.29,17.18,17.18,0,0,1-2.21-5.31,1.58,1.58,0,0,0-.9-.91L2.59,45.87v-5.7l5.06-1.42A1.82,1.82,0,0,0,8.55,37.71Z"/><path class="cls-1" d="M21.64,48.08l-2.59,3.11a16.46,16.46,0,0,0,8.81,3.88v2.59h2.33V55.07c4.54-.26,8-2.72,8-7.25s-3.37-6.35-7.91-7.39h-.13V33.69a10.78,10.78,0,0,1,5.06,2.08l2.33-3.24a16,16,0,0,0-7.39-2.73V28H27.86V29.8c-4.41.26-7.77,2.86-7.77,7.13,0,4.54,3.11,6.09,7.77,7.13v6.87A10.55,10.55,0,0,1,21.64,48.08Zm8.42-3.24c2.08.64,3.76,1.29,3.76,3.37S32,51.06,30.06,51.32Zm-5.7-8.17c0-1.81,1.56-2.72,3.37-3v6.22C25.79,39.26,24.36,38.62,24.36,36.67Zm60.26,35a1.29,1.29,0,0,0,.91-1.3V65.83a1.57,1.57,0,0,0-.91-1.3l-2.85-.77a9.24,9.24,0,0,0-1-2.34l1.43-2.59a1.19,1.19,0,0,0-.26-1.55L78.66,54a1.38,1.38,0,0,0-1.56-.26L74.51,55.2a18.21,18.21,0,0,0-2.33-1l-.78-2.85a1.29,1.29,0,0,0-1.3-.91H65.57a1.57,1.57,0,0,0-1.3.91l-.77,2.85a9.19,9.19,0,0,0-2.34,1l-2.59-1.42A1.19,1.19,0,0,0,57,54l-3.24,3.24a1.36,1.36,0,0,0-.26,1.55l1.42,2.59a18.33,18.33,0,0,0-1,2.34l-2.85.77a1.29,1.29,0,0,0-.91,1.3v4.53a1.57,1.57,0,0,0,.91,1.3l2.85.78a9.66,9.66,0,0,0,1,2.33l-1.42,2.59a1.2,1.2,0,0,0,.26,1.56L57,82.16a1.4,1.4,0,0,0,1.55.26L61.16,81a18.42,18.42,0,0,0,2.34,1l.77,2.85a1.28,1.28,0,0,0,1.3.9H70.1a1.55,1.55,0,0,0,1.3-.9L72.18,82a9.18,9.18,0,0,0,2.33-1l2.59,1.43a1.23,1.23,0,0,0,1.56-.26l3.24-3.24a1.38,1.38,0,0,0,.26-1.56l-1.43-2.59a19,19,0,0,0,1-2.33ZM80.34,70.1a1.57,1.57,0,0,0-.91.91,10.18,10.18,0,0,1-1.29,3.11,1.18,1.18,0,0,0,0,1.3l1.29,2.33-1.81,1.81-2.33-1.29a1.18,1.18,0,0,0-1.3,0,10.76,10.76,0,0,1-3.11,1.29,1.53,1.53,0,0,0-.9.91l-.78,2.59H66.61l-.78-2.59a1.57,1.57,0,0,0-.91-.91,10.28,10.28,0,0,1-3.11-1.29,1.16,1.16,0,0,0-1.29,0l-2.34,1.29-1.81-1.81,1.29-2.33a1.18,1.18,0,0,0,0-1.3A11.48,11.48,0,0,1,56.37,71a1.57,1.57,0,0,0-.91-.91l-2.59-.77V66.74L55.46,66a1.57,1.57,0,0,0,.91-.91,10.82,10.82,0,0,1,1.29-3.11,1.16,1.16,0,0,0,0-1.29l-1.29-2.34,1.81-1.81,2.34,1.29a1.16,1.16,0,0,0,1.29,0,11.62,11.62,0,0,1,3.11-1.29,1.57,1.57,0,0,0,.91-.91L66.61,53H69.2L70,55.59a1.53,1.53,0,0,0,.9.91A10.71,10.71,0,0,1,74,57.79a1.18,1.18,0,0,0,1.3,0l2.33-1.29,1.81,1.81-1.29,2.34a1.16,1.16,0,0,0,0,1.29,10.88,10.88,0,0,1,1.29,3.11,1.57,1.57,0,0,0,.91.91l2.59.78v2.59Z"/><path class="cls-1" d="M68.94,66.61h0v-4a6.48,6.48,0,0,1,3.11,1.29l1.42-1.94a9.45,9.45,0,0,0-4.66-1.55v-1H67.38v1c-2.59.13-4.66,1.68-4.66,4.27s1.81,3.63,4.66,4.28v4.15a7.37,7.37,0,0,1-3.62-1.82L62.2,73.09a10,10,0,0,0,5.18,2.33V77h1.43V75.42c2.72-.13,4.79-1.69,4.79-4.28C73.6,68.29,71.66,67.25,68.94,66.61Zm-1.43-.39c-1.29-.39-2.07-.65-2.07-1.82s.91-1.68,2.07-1.81Zm1.3,6.87V69.2c1.29.39,2.2.78,2.2,1.94S70,73,68.81,73.09Zm-17.49-59a1.29,1.29,0,0,0-.91,1.3V20a1.56,1.56,0,0,0,.91,1.29l2.85.78a9.13,9.13,0,0,0,1,2.33L53.78,27A1.2,1.2,0,0,0,54,28.51l3.24,3.24a1.36,1.36,0,0,0,1.55.26l2.59-1.43a18.42,18.42,0,0,0,2.34,1l.77,2.85a1.29,1.29,0,0,0,1.3.91h4.53a1.57,1.57,0,0,0,1.3-.91l.78-2.85a9.33,9.33,0,0,0,2.33-1L77.36,32a1.2,1.2,0,0,0,1.56-.26l3.24-3.24A1.42,1.42,0,0,0,82.42,27L81,24.36A18.3,18.3,0,0,0,82,22l2.85-.78a1.28,1.28,0,0,0,.9-1.29V15.42a1.55,1.55,0,0,0-.9-1.3L82,13.35A9.24,9.24,0,0,0,81,11l1.43-2.59a1.21,1.21,0,0,0-.26-1.55L78.92,3.63a1.38,1.38,0,0,0-1.56-.26L74.77,4.79a20.48,20.48,0,0,0-2.33-1L71.66.91A1.29,1.29,0,0,0,70.36,0H65.83a1.57,1.57,0,0,0-1.3.91l-.77,2.85a9.56,9.56,0,0,0-2.34,1L58.83,3.37a1.19,1.19,0,0,0-1.55.26L54,6.87a1.37,1.37,0,0,0-.26,1.55L55.2,11a18.33,18.33,0,0,0-1,2.34Zm4.27,1.56a1.57,1.57,0,0,0,.91-.91,10.94,10.94,0,0,1,1.29-3.11,1.16,1.16,0,0,0,0-1.29L56.5,8l1.81-1.81,2.34,1.3a1.16,1.16,0,0,0,1.29,0,11.19,11.19,0,0,1,3.11-1.3A1.57,1.57,0,0,0,66,5.31l.78-2.59h2.59l.77,2.59a1.57,1.57,0,0,0,.91.91,10.47,10.47,0,0,1,3.11,1.3,1.18,1.18,0,0,0,1.3,0l2.33-1.3L79.56,8l-1.29,2.34a1.16,1.16,0,0,0,0,1.29,11,11,0,0,1,1.29,3.11,1.57,1.57,0,0,0,.91.91l2.59.78v2.59l-2.59.78a1.55,1.55,0,0,0-.91.9,10.18,10.18,0,0,1-1.29,3.11,1.18,1.18,0,0,0,0,1.3l1.29,2.33-1.94,1.82L75.29,28A1.18,1.18,0,0,0,74,28a11.06,11.06,0,0,1-3.11,1.3,1.51,1.51,0,0,0-.9.9l-.78,2.59H66.61l-.78-2.59a1.55,1.55,0,0,0-.91-.9A10.58,10.58,0,0,1,61.81,28a1.16,1.16,0,0,0-1.29,0l-2.34,1.3-1.81-1.95L57.66,25a1.18,1.18,0,0,0,0-1.3,11.35,11.35,0,0,1-1.29-3.11,1.58,1.58,0,0,0-.91-.9l-2.59-.78V16.33Z"/><path class="cls-1" d="M63.76,20.86,62.2,22.68A10,10,0,0,0,67.38,25v1.55h1.43V25c2.72-.13,4.79-1.68,4.79-4.28,0-2.85-2.07-3.75-4.79-4.4h0v-4a6.41,6.41,0,0,1,3.11,1.3l1.29-2.08A9.57,9.57,0,0,0,68.81,10v-1H67.38v1c-2.59.13-4.66,1.68-4.66,4.27s1.81,3.63,4.66,4.28v4.15A8,8,0,0,1,63.76,20.86Zm5.05-1.94c1.29.39,2.2.78,2.2,1.94s-1,1.69-2.2,1.82ZM65.44,14c0-1,.91-1.69,2.07-1.82v3.63C66.22,15.55,65.44,15.16,65.44,14Z"/></g></g></svg>