<svg xmlns="http://www.w3.org/2000/svg" viewBox="0 0 97.57 71.02"><defs><style>.cls-1{fill:#b42903;}</style></defs><g id="Слой_2" data-name="Слой 2"><g id="Слой_1-2" data-name="Слой 1"><path class="cls-1" d="M97.54,62.18,96,53a9.7,9.7,0,0,0-7.25-9.41l-3-1.17-.06,0-4-1.56-.25-.1a2.92,2.92,0,0,1-1.87-2.65V38h0a14.26,14.26,0,0,0,3.69-4.85A4.59,4.59,0,0,0,86,30.73a8,8,0,0,0,.91-3.1,3,3,0,0,0-1.08-2.48c-.34-8-5.92-14.34-12.72-14.34a11.58,11.58,0,0,0-8.25,3.64C62.88,6.11,56.41,0,48.77,0S34.71,6.05,32.64,14.48a11.6,11.6,0,0,0-8.32-3.67c-6.32,0-11.76,5.64-12.63,13.11-.06.49-.1,1-.12,1.49a3.13,3.13,0,0,0-1,2.21C10.8,30,12,32.4,14.29,33a13.88,13.88,0,0,0,3.92,5l0,0a2.66,2.66,0,0,1-1.85,2.51l-.06,0-4,1.31-.12.05L8.63,43.1a9.72,9.72,0,0,0-7.1,9.39L0,62.19a1.44,1.44,0,0,0,1.19,1.64H17.12l-.86,5.53A1.44,1.44,0,0,0,17.46,71H80a1.43,1.43,0,0,0,1.43-1.43,2,2,0,0,0,0-.23l-.9-5.52H96.14a1.43,1.43,0,0,0,1.43-1.43,1.79,1.79,0,0,0,0-.23ZM80.16,45.34l1.38-1.51,1.25.48L77.54,50.2A12.92,12.92,0,0,0,75.88,48,9.19,9.19,0,0,0,80.16,45.34Zm-6.87.12a6.84,6.84,0,0,1-.9-.08,11.92,11.92,0,0,0-2.31-.87,6.28,6.28,0,0,1-1.46-1.26l-.77-.9a5.52,5.52,0,0,0,1.83-2.7,9,9,0,0,0,3.53.76,9.25,9.25,0,0,0,3.7-.8,5.71,5.71,0,0,0,2,2.92l-.81.89a6.27,6.27,0,0,1-4.77,2Zm-.14-31.78c4.21,0,7.81,3.28,9.23,7.89a10.88,10.88,0,0,0-9-3.47,8.41,8.41,0,0,0-5.88,2,5.54,5.54,0,0,0-.68.69,3.88,3.88,0,0,0-1.24-1.62c0-.33,0-.65-.05-1a9.34,9.34,0,0,1,7.66-4.57ZM65.84,26.31c.1-.2.2-.4.29-.6l1.17-.51a2.34,2.34,0,0,0,1.4-2.05c.07-.59,2.09-2.38,4.53-2.19h.21c4.42-.32,6.31,1.8,9.73,5.65l.09.1a1.34,1.34,0,0,0,.63.52.76.76,0,0,1,.2.2,5.45,5.45,0,0,1-.57,1.93,1.6,1.6,0,0,1-1.36,1,1.43,1.43,0,0,0-1.27.89,11.52,11.52,0,0,1-3.19,4.48,3.92,3.92,0,0,1-.32.25,1.54,1.54,0,0,0-.29.21,6.76,6.76,0,0,1-3.89,1.33,6.9,6.9,0,0,1-3.82-1.3l-.18-.13a3.79,3.79,0,0,1-.4-.3,11.18,11.18,0,0,1-3.37-4.6,1.45,1.45,0,0,0-1.27-.91,1.7,1.7,0,0,1-1.43-1.16,5.71,5.71,0,0,0,3.1-2.82ZM36.5,45.75l-.57-.68-.61-.74,2.48-.81.26-.09,2,2.29a11.87,11.87,0,0,0,6.59,3.93,10.93,10.93,0,0,0,2.28.27h.22a12.74,12.74,0,0,0,1.63-.1,11.91,11.91,0,0,0,7.18-3.77l.12-.13.17-.05.08,0L61,45l1.21-.39,1-.34-.49.55-1,1.12L52.69,56.09,49.18,60l-.48.55-.31-.39-3.62-4.38ZM41,36.42a4.16,4.16,0,0,1-2.87,4l-.07,0-3.37,1.1-1.87-.72-.25-.1a2.92,2.92,0,0,1-1.87-2.65V38h0a14.49,14.49,0,0,0,3.69-4.85,4.33,4.33,0,0,0,2.3-1.59,18.49,18.49,0,0,0,4.06,4.58l.23.19Zm2.7,1.52a11.93,11.93,0,0,0,5.15,1.23,12.08,12.08,0,0,0,5.37-1.3,7.31,7.31,0,0,0,3.08,4.61l-.88,1-.61.67a9,9,0,0,1-1,.9l-.14.11q-.23.18-.45.33l-.23.16a9.34,9.34,0,0,1-1,.57l-.18.08-.17.08-.2.08a9.06,9.06,0,0,1-10.23-2.55l-1.42-1.63a6.94,6.94,0,0,0,2.88-4.3Zm18.57,3.59-2.48-1a4.48,4.48,0,0,1-2.87-4.06v-.39l.21-.17a18.23,18.23,0,0,0,3.77-4.39A4.23,4.23,0,0,0,63.1,33a14.09,14.09,0,0,0,3.92,5l0,0a2.69,2.69,0,0,1-1.85,2.51l-.06,0ZM35,17.7v-.06C36,9.22,41.89,2.87,48.76,2.87c6.5,0,12,5.51,13.5,12.94C58.61,12,55.16,9.48,49,9.89a10.91,10.91,0,0,0-7.65,2.65,5.42,5.42,0,0,0-2,3.44l-4.29,1.87-.15.06a1.33,1.33,0,0,0,0-.21ZM33.66,22l.12-.16c.12-.14.26-.29.4-.43l2-.88,4.42-1.93a2.7,2.7,0,0,0,1.6-2.34c0-.23.24-.81,1.06-1.53a7.93,7.93,0,0,1,5.63-1.93h.22c5.76-.42,8.44,2.05,12.55,6.63l1.09,1.22.15.17a1.36,1.36,0,0,0,.68.55,1.94,1.94,0,0,1,.31.26.68.68,0,0,1,.24.48,8.44,8.44,0,0,1-.28,1.5,7.31,7.31,0,0,1-.55,1.36l0,.06A2.53,2.53,0,0,1,61,26.58a1.59,1.59,0,0,0-.49.11,1.47,1.47,0,0,0-.78.79c-.08.22-.18.44-.28.65a16,16,0,0,1-4.2,5.63c-.15.13-.31.26-.48.38a1.54,1.54,0,0,0-.36.27,9.78,9.78,0,0,1-5.6,1.9,9.89,9.89,0,0,1-5.49-1.86,1.46,1.46,0,0,0-.24-.17h0c-.19-.13-.38-.27-.56-.42A15.73,15.73,0,0,1,38.08,28l-.26-.62a1.44,1.44,0,0,0-.92-.85,2,2,0,0,0-.35-.06,2.83,2.83,0,0,1-2.42-1.93,8.38,8.38,0,0,1-.61-2.36,1.76,1.76,0,0,1,.14-.23Zm-9.35-8.28A9.28,9.28,0,0,1,32,18.29c0,.42-.05.84-.07,1.26l-.36.4a10.33,10.33,0,0,0-7.09-1.84,8.42,8.42,0,0,0-5.88,2,4.54,4.54,0,0,0-1.57,2.56l-2.46,1.06c.87-5.78,5-10.09,9.73-10.09Zm-7.7,17.52a1.45,1.45,0,0,0-1.27-.91c-1.39-.05-1.77-2.06-1.86-2.69a2.83,2.83,0,0,1,.32-.37l4.67-2a2.34,2.34,0,0,0,1.4-2.05c.07-.59,2.09-2.38,4.52-2.19h.22a7.81,7.81,0,0,1,6.1,1.92c.3,2.18,1.44,5.21,4.14,6.16-.05.11-.1.22-.16.33a1.57,1.57,0,0,1-1.36,1,1.41,1.41,0,0,0-1.26.89,11.54,11.54,0,0,1-3.2,4.48l-.31.25a1.29,1.29,0,0,0-.3.22,6.82,6.82,0,0,1-3.89,1.32,6.87,6.87,0,0,1-3.81-1.3l-.2-.14L20,35.81A11.13,11.13,0,0,1,16.61,31.21ZM30,42.52l-.69.76-1.76.57A12.44,12.44,0,0,0,24,45.43a6.28,6.28,0,0,1-4.25-2.19l-.77-.9a5.52,5.52,0,0,0,1.83-2.7,9,9,0,0,0,3.53.76,9.08,9.08,0,0,0,3.7-.79,5.72,5.72,0,0,0,2,2.91ZM16.33,43.6l1.27,1.5a9.22,9.22,0,0,0,3.82,2.66,12.3,12.3,0,0,0-1.49,2.15L15.07,44ZM18.72,53a13.81,13.81,0,0,0-.41,3.19L17.56,61H12V54.13a1.43,1.43,0,0,0-2.86,0V61h-6l1.26-8.16a.82.82,0,0,0,0-.22,6.88,6.88,0,0,1,5-6.74l.08,0L12.15,45l6.57,8ZM69,68.15V59a1.43,1.43,0,1,0-2.86,0v9.17H31.5V58.33a1.43,1.43,0,1,0-2.86,0v9.82H19.35L20,63.84,20.46,61l.7-4.51a1.48,1.48,0,0,0,0-.21v-.33a10.47,10.47,0,0,1,.76-3.58,10,10,0,0,1,3-4,9.51,9.51,0,0,1,3.41-1.7l.08,0,2.48-.81,1.51-.49.32.4,1.84,2.22L45.33,61l2.22,2.7,0,0a.23.23,0,0,0,.07.07l0,0,.11.09.1.07h0l.1,0,.17.07.09,0,.08,0H49l.11,0,.1,0h0l.06,0,.1,0,.09-.06,0,0a.08.08,0,0,0,0,0l.05,0,.1-.1h0l0,0L52.13,61l5.79-6.52,1.57-1.76,4.07-4.58L65.48,46l.09-.1,3.34,1.29h0a9.17,9.17,0,0,0,2.48.93,9.64,9.64,0,0,1,4.08,4.39,10.6,10.6,0,0,1,1,4.43,1.64,1.64,0,0,0,0,.22L77.11,61l.47,2.87.7,4.31ZM88.43,61V54.61a1.43,1.43,0,0,0-2.86,0V61H80l-.68-4.19a13.58,13.58,0,0,0-.55-3.7l6.84-7.68,2.21.85.19.06a6.83,6.83,0,0,1,5.14,6.76,1.69,1.69,0,0,0,0,.23L94.45,61Z"/></g></g></svg>