<svg xmlns="http://www.w3.org/2000/svg" viewBox="0 0 81.57 81.63"><defs><style>.cls-1{fill:#b42903;}</style></defs><g id="Слой_2" data-name="Слой 2"><g id="Слой_1-2" data-name="Слой 1"><path class="cls-1" d="M68.87,25.32l4.6-7.06L63.74,8.53l-7.06,4.61a31.22,31.22,0,0,0-6.9-2.87L48.05,2H34.29l-1.73,8.24a31.25,31.25,0,0,0-6.91,2.87l-7-4.61L8.87,18.26l4.6,7a31.47,31.47,0,0,0-2.86,6.91L2.37,34V47.71l8.24,1.74a31.59,31.59,0,0,0,2.86,6.9l-4.6,7,9.73,9.73,7-4.6a31.7,31.7,0,0,0,6.91,2.86l1.73,8.24H48.05l1.73-8.24a31.19,31.19,0,0,0,6.9-2.86l7.06,4.6,9.73-9.73-4.6-7a31.83,31.83,0,0,0,2.86-6.9L80,47.71V34l-8.24-1.73A31.42,31.42,0,0,0,68.87,25.32Zm9.3,20.94-7.89,1.66-.14.54A29.81,29.81,0,0,1,67,55.93l-.27.48,4.4,6.75L63.5,70.84l-6.76-4.42-.48.28a29.54,29.54,0,0,1-7.47,3.1l-.54.14-1.66,7.9H35.74l-1.65-7.9-.54-.14a29.73,29.73,0,0,1-7.48-3.1l-.47-.28-6.76,4.42-7.67-7.68,4.41-6.76-.28-.48a29.33,29.33,0,0,1-3.1-7.47l-.14-.53-7.9-1.66V35.4l7.9-1.66.14-.53a29.33,29.33,0,0,1,3.1-7.47l.28-.48L11.17,18.5l7.67-7.67,6.76,4.41.47-.28a29.73,29.73,0,0,1,7.48-3.1l.54-.14,1.65-7.89H46.59l1.66,7.89.54.14A29.54,29.54,0,0,1,56.26,15l.48.28,6.76-4.41,7.67,7.67-4.4,6.76.27.48a29.51,29.51,0,0,1,3.1,7.47l.14.53,7.89,1.66V46.26Z"/><path class="cls-1" d="M41.17,15.74A25,25,0,0,0,28,19.48L28.93,21a23.36,23.36,0,1,1-3.06,2.26l-1.18-1.35a25.09,25.09,0,1,0,16.48-6.17Z"/><rect class="cls-1" width="18.1" height="1.79"/><rect class="cls-1" x="14.34" y="4.52" width="1.79" height="1.79"/><rect class="cls-1" x="7.17" y="4.52" width="1.79" height="1.79"/><rect class="cls-1" x="3.59" y="4.52" width="1.79" height="1.79"/><rect class="cls-1" y="4.52" width="1.79" height="1.79"/><rect class="cls-1" x="10.76" y="4.52" width="1.79" height="1.79"/><rect class="cls-1" x="61.81" y="75.31" width="18.1" height="1.79"/><rect class="cls-1" x="65.4" y="79.83" width="1.79" height="1.79"/><rect class="cls-1" x="61.81" y="79.83" width="1.79" height="1.79"/><rect class="cls-1" x="68.98" y="79.83" width="1.79" height="1.79"/><rect class="cls-1" x="72.57" y="79.83" width="1.79" height="1.79"/><rect class="cls-1" x="76.16" y="79.83" width="1.79" height="1.79"/><rect class="cls-1" x="0.57" y="57.32" width="1.79" height="1.79"/><rect class="cls-1" x="7.74" y="57.32" width="1.31" height="1.79"/><rect class="cls-1" x="4.15" y="57.32" width="1.79" height="1.79"/><rect class="cls-1" x="60.65" y="2.26" width="1.79" height="1.79"/><rect class="cls-1" x="64.24" y="2.26" width="1.79" height="1.79"/><rect class="cls-1" x="67.82" y="2.26" width="1.31" height="1.79"/><rect class="cls-1" x="76.67" y="56.51" width="1.79" height="1.79"/><rect class="cls-1" x="80.26" y="56.51" width="1.31" height="1.79"/><rect class="cls-1" x="73.08" y="56.51" width="1.79" height="1.79"/><rect class="cls-1" x="12.73" y="77.78" width="8.49" height="1.79"/><rect class="cls-1" x="75.87" y="25.23" width="5.7" height="1.79"/><path class="cls-1" d="M23.91,51.3H58.42V49.51h-2.2V31.85H50.48V49.51H48.19V37.61H42.45v11.9h-2.3V30.36H34.42V49.51h-2.3v-14H26.39v14H23.91V51.3ZM52.28,33.65h2.15V49.51H52.28Zm-8,5.75h2.15V49.51H44.24Zm-8-7.24h2.15V49.51H36.21Zm-8,5.12h2.15V49.51H28.18Z"/></g></g></svg>