<svg xmlns="http://www.w3.org/2000/svg" viewBox="0 0 65.45 72"><defs><style>.cls-1{fill:#b42903;}</style></defs><g id="Слой_2" data-name="Слой 2"><g id="Слой_1-2" data-name="Слой 1"><path class="cls-1" d="M6.22,58.91l-6.06-21A2.52,2.52,0,0,1,.29,36a2.34,2.34,0,0,1,1.43-1.27l4.83-1.64V14.73A4.58,4.58,0,0,1,8,11.29a5.06,5.06,0,0,1,3.47-1.47H23.73V0h18V9.82H54a4.88,4.88,0,0,1,4.91,4.91V33.14l4.91,1.55a2.39,2.39,0,0,1,1.35,1.23,2.36,2.36,0,0,1,.12,1.88L59.24,58.91a18.23,18.23,0,0,1-7.33-2.37,27.72,27.72,0,0,1-6-4.67,26.39,26.39,0,0,1-5.93,5,13.81,13.81,0,0,1-14.48,0,26.44,26.44,0,0,1-5.94-5,27.48,27.48,0,0,1-6,4.67A18.14,18.14,0,0,1,6.22,58.91ZM0,72V67.09H6.55A22.33,22.33,0,0,0,13.34,66a25.05,25.05,0,0,0,6.3-3,22.94,22.94,0,0,0,6.3,3,24,24,0,0,0,13.58,0,23.21,23.21,0,0,0,6.3-3,24.73,24.73,0,0,0,6.3,3,22.28,22.28,0,0,0,6.79,1.06h6.54V72H58.91a26.11,26.11,0,0,1-6.63-.86,31.84,31.84,0,0,1-6.46-2.49,31.26,31.26,0,0,1-6.55,2.49,25.34,25.34,0,0,1-13.09,0,31.18,31.18,0,0,1-6.54-2.49,31.92,31.92,0,0,1-6.47,2.49A26.09,26.09,0,0,1,6.55,72ZM11.45,31.5l21.28-6.87,21.27,7V14.73H11.45ZM32.73,54a10.15,10.15,0,0,0,7.44-3.35c2.18-2.24,4.07-4.31,5.65-6.22a53.18,53.18,0,0,0,4.54,4.78,29.81,29.81,0,0,0,5.44,4L60,38.62,32.73,29.78,5.4,38.62,9.65,53.1a28.1,28.1,0,0,0,5.45-3.89,42,42,0,0,0,4.54-4.78q2.45,2.94,5.64,6.26A10,10,0,0,0,32.73,54Z"/></g></g></svg>