<?xml version="1.0" encoding="utf-8"?>
<!-- Generator: Adobe Illustrator 28.0.0, SVG Export Plug-In . SVG Version: 6.00 Build 0)  -->
<svg version="1.1" id="Слой_1" xmlns="http://www.w3.org/2000/svg" xmlns:xlink="http://www.w3.org/1999/xlink" x="0px" y="0px"
	 viewBox="0 0 20.1 20" style="enable-background:new 0 0 20.1 20;" xml:space="preserve">
<style type="text/css">
	.st0{fill:#EB5757;}
</style>
<image style="overflow:visible;" width="48" height="56" xlink:href="1095D323.jpg"  transform="matrix(1 0 0 1 -66.2842 -27.6229)">
</image>
<g>
	<path class="st0" d="M11,4.9c0-0.5-0.4-0.9-0.9-0.9S9.1,4.4,9.1,4.9v4.2H4.9C4.4,9.1,4,9.5,4,10c0,0.5,0.4,0.9,0.9,0.9h4.2v4.2
		c0,0.5,0.4,0.9,0.9,0.9s0.9-0.4,0.9-0.9v-4.2h4.2c0.5,0,0.9-0.4,0.9-0.9c0-0.5-0.4-0.9-0.9-0.9H11V4.9z"/>
	<g>
		<path class="st0" d="M10,19.7c-5.3,0-9.7-4.3-9.7-9.7c0-5.3,4.3-9.7,9.7-9.7c5.3,0,9.7,4.3,9.7,9.7C19.7,15.3,15.4,19.7,10,19.7z
			 M10,2.1c-4.4,0-7.9,3.5-7.9,7.9s3.5,7.9,7.9,7.9S18,14.4,18,10S14.4,2.1,10,2.1z"/>
	</g>
</g>
</svg>
