<?xml version="1.0" encoding="UTF-8"?>
<svg id="_Слой_1" data-name="Слой 1" xmlns="http://www.w3.org/2000/svg" viewBox="0 0 50 50">
  <defs>
    <style>
      .cls-1 {
        fill: #29abe2;
        stroke-width: 0px;
      }
    </style>
  </defs>
  <path class="cls-1" d="m40,49.67H10c-4.53,0-8.22-3.69-8.22-8.22v-11.89c0-.98.8-1.78,1.78-1.78s1.78.8,1.78,1.78v11.89c0,2.57,2.09,4.67,4.67,4.67h29.99c2.57,0,4.67-2.09,4.67-4.67v-4.3c0-.98.8-1.78,1.78-1.78s1.78.8,1.78,1.78v4.3c0,4.53-3.69,8.22-8.22,8.22Z"/>
  <path class="cls-1" d="m40,3.48h-.99v-1.37c0-.98-.79-1.78-1.78-1.78s-1.78.79-1.78,1.78v1.37H14.38v-1.37c0-.98-.79-1.78-1.78-1.78s-1.78.79-1.78,1.78v1.37h-.82C5.47,3.48,1.78,7.17,1.78,11.7v9.63c0,.98.79,1.78,1.78,1.78s1.78-.79,1.78-1.78v-3.96h39.33v12.19c0,.98.79,1.78,1.78,1.78s1.78-.79,1.78-1.78V11.7c0-4.53-3.69-8.22-8.22-8.22Zm4.67,10.34H5.34v-2.12c0-2.57,2.09-4.67,4.67-4.67h.82v1.37c0,.98.79,1.78,1.78,1.78s1.78-.79,1.78-1.78v-1.37h21.08v1.37c0,.98.79,1.78,1.78,1.78s1.78-.79,1.78-1.78v-1.37h.99c2.57,0,4.67,2.09,4.67,4.67v2.12Z"/>
  <path class="cls-1" d="m38.24,37.34c.7.69.71,1.81.02,2.51-.35.36-.81.53-1.27.53s-.9-.17-1.24-.51l-2.87-2.82-2.87,2.82c-.35.34-.79.51-1.24.51s-.92-.18-1.27-.53c-.69-.7-.68-1.83.02-2.51l2.82-2.77-2.82-2.77c-.7-.69-.71-1.81-.02-2.51.69-.7,1.81-.71,2.51-.02l2.87,2.82,2.87-2.82c.7-.69,1.83-.68,2.51.02.69.7.68,1.83-.02,2.51l-2.82,2.77,2.82,2.77Z"/>
</svg>