<?xml version="1.0" encoding="UTF-8"?>
<svg id="_Слой_1" data-name="Слой 1" xmlns="http://www.w3.org/2000/svg" viewBox="0 0 50 50">
  <defs>
    <style>
      .cls-1 {
        fill: #9dd251;
        stroke-width: 0px;
      }
    </style>
  </defs>
  <path class="cls-1" d="m1.02,22.62C1.02,13.35,8.53,5.81,17.81,5.81h1.8c7.13,0,13.58,5.19,14.79,12.01.17.97.51,1.93,1.13,2.7l3.15,3.94c.46.58.72,1.3.72,2.05,0,1.81-1.47,3.28-3.28,3.28h-1.51v2.4l-8.15,1.02c-.82.1-1.44.8-1.44,1.63s.67,1.59,1.54,1.64l8.05.5v1.2c0,1.99-1.61,3.6-3.6,3.6h-6v.6c0,1-.8,1.8-1.8,1.8h-14.99c-1.33,0-2.4-1.07-2.4-2.4v-5.45c0-1.25-.52-2.44-1.28-3.43-2.27-2.93-3.51-6.55-3.51-10.29Zm26.38-.01c1.32,0,2.4-1.07,2.4-2.4s-1.07-2.4-2.4-2.4-2.4,1.07-2.4,2.4,1.07,2.4,2.4,2.4Zm8.39,11.99c0-.99.81-1.8,1.8-1.8s1.8.81,1.8,1.8-.81,1.8-1.8,1.8-1.8-.81-1.8-1.8Zm11.39-1.8c.99,0,1.8.81,1.8,1.8s-.81,1.8-1.8,1.8-1.8-.81-1.8-1.8.81-1.8,1.8-1.8Zm-1.8,8.99c0-.99.81-1.8,1.8-1.8s1.8.81,1.8,1.8-.81,1.8-1.8,1.8-1.8-.81-1.8-1.8Zm-3-12.59c.99,0,1.8.81,1.8,1.8s-.81,1.8-1.8,1.8-1.8-.81-1.8-1.8.81-1.8,1.8-1.8Zm3-1.8c0-.99.81-1.8,1.8-1.8s1.8.81,1.8,1.8-.81,1.8-1.8,1.8-1.8-.81-1.8-1.8Zm-3,8.99c.99,0,1.8.81,1.8,1.8s-.81,1.8-1.8,1.8-1.8-.81-1.8-1.8.81-1.8,1.8-1.8Z"/>
</svg>