<?xml version="1.0" encoding="utf-8"?>
<!-- Generator: Adobe Illustrator 28.0.0, SVG Export Plug-In . SVG Version: 6.00 Build 0)  -->
<svg version="1.1" id="Слой_1" xmlns="http://www.w3.org/2000/svg" xmlns:xlink="http://www.w3.org/1999/xlink" x="0px" y="0px"
	 viewBox="0 0 16 16" style="enable-background:new 0 0 16 16;" xml:space="preserve">
<style type="text/css">
	.st0{fill:#EDDF2F;}
</style>
<path class="st0" d="M8,1c0.4,0,0.9,0.2,1.1,0.6l6.8,11.5c0.2,0.4,0.2,0.9,0,1.3S15.2,15,14.8,15H1.2c-0.4,0-0.9-0.2-1.1-0.6
	s-0.2-0.9,0-1.3L6.9,1.6C7.1,1.2,7.6,1,8,1z M8,5C7.6,5,7.2,5.3,7.2,5.8v3.5C7.2,9.7,7.6,10,8,10c0.4,0,0.8-0.3,0.8-0.8V5.8
	C8.8,5.3,8.4,5,8,5z M9,12c0-0.6-0.4-1-1-1s-1,0.4-1,1s0.4,1,1,1S9,12.6,9,12z"/>
</svg>
