<?xml version="1.0" encoding="UTF-8"?>
<svg id="_Слой_1" data-name="Слой 1" xmlns="http://www.w3.org/2000/svg" viewBox="0 0 50 50">
  <defs>
    <style>
      .cls-1 {
        fill: #eb5757;
        stroke-width: 0px;
      }
    </style>
  </defs>
  <path class="cls-1" d="m9.36,8.62l-.47-.82c-.11-.18-.33-.24-.5-.14-.18.1-.24.33-.14.5l.47.82c.1.17.33.23.5.13.18-.1.23-.33.14-.5Zm4.15,1.72c-.59-.6-1.42-.96-2.32-.96s-1.73.37-2.32.96c-.6.6-.96,1.42-.96,2.32s.37,1.73.96,2.32c.6.6,1.42.96,2.32.96s1.73-.37,2.32-.96c.6-.6.96-1.42.96-2.32s-.37-1.73-.96-2.32Zm-2.24-3.41c-.21,0-.37.17-.37.37v.94c0,.21.17.37.37.37s.37-.17.37-.37v-.94c0-.21-.17-.37-.37-.37Zm2.85.81c-.18-.1-.4-.04-.5.13l-.46.82c-.1.18-.04.4.13.5.18.1.4.04.5-.14l.47-.82c.1-.18.04-.4-.14-.5Zm2.07,2.13c-.1-.18-.33-.24-.51-.14l-.81.47c-.18.1-.24.33-.14.5.1.18.33.24.5.14l.81-.47c.18-.1.23-.33.14-.5Zm.36,2.5h-.94c-.21,0-.37.16-.37.37s.17.37.37.37h.94c.21,0,.37-.16.37-.37s-.17-.37-.37-.37Zm-.57,2.72l-.81-.46c-.18-.1-.4-.04-.5.13-.1.18-.04.4.13.5l.82.47c.18.1.39.04.5-.14.1-.18.04-.4-.14-.5Zm-1.85,2.07l-.47-.82c-.1-.18-.33-.24-.5-.14-.18.1-.24.33-.14.5l.47.82c.1.18.33.24.51.14.18-.1.24-.33.14-.5Zm-3.02-.45c-.2,0-.36.17-.36.37v.94c0,.21.16.37.36.37s.38-.17.38-.37v-.94c0-.21-.17-.37-.38-.37Zm-2.01-.58c-.18-.1-.4-.04-.5.14l-.47.82c-.1.18-.04.4.14.5.18.1.4.04.5-.13l.46-.82c.1-.18.04-.4-.13-.5Zm-1.45-1.5c-.1-.18-.33-.24-.5-.14l-.82.47c-.17.1-.23.33-.13.5.1.18.33.24.5.14l.81-.47c.18-.1.24-.33.14-.5Zm-.87-2.41h-.95c-.21,0-.37.17-.37.37s.17.37.37.37h.95c.21,0,.37-.17.37-.37s-.17-.37-.37-.37Zm.81-2.15l-.82-.47c-.17-.1-.39-.04-.5.14-.1.18-.04.4.14.5l.81.46c.18.1.4.04.5-.13.1-.18.04-.4-.13-.5Z"/>
  <path class="cls-1" d="m36.14,15.05c4.57-1.41,8.85.39,12.86,3.94-2.15-8.11-8.29-10.07-13.77-5.44.75-5.81-1.65-7.21-4.86-8.48,1.51,2.3,2.65,4.69,2.49,7.44-4.95-4.55-9.08-2.86-12.88,1.14,3.65-.85,7.43-1.21,10.62.92-5.72-.73-8.93,2.5-10.91,6.74,2.39-2.19,4.65-3.62,7.04-3.87-1.04,1.9-1.46,3.71-1.46,5.5,0,2.49.81,4.93,1.85,7.5.55-6.37,1.64-11.6,6.21-13.68,2.54,7.69.57,17.53-2.38,26.07h-4.04s-14.42,0-14.42,0v-12.54h9.3c.32,0,.58-.26.58-.58-.01-2.89-1.22-5.51-3.15-7.4-1.89-1.84-4.47-3-7.33-3.05-.06-.02-.12-.03-.18-.03-.06,0-.12,0-.18.03-2.87.04-5.47,1.2-7.38,3.05-1.92,1.88-3.12,4.47-3.14,7.34,0,.02,0,.04,0,.06,0,.32.26.58.57.58h9.33v12.54h-3v2.1h30.78v-2.1h-3.1c2.86-13.61,1.38-21.09-.39-25.55,2.81,1.77,5.31,5.58,7.71,11.63,3.36-6.27,1.23-10.87-6.76-13.86ZM5.76,29.15h-3.58c.15-2.34,1.18-4.44,2.77-6,.79-.78,1.73-1.42,2.77-1.89-.41.57-.75,1.23-1.02,1.97-.62,1.64-.92,3.67-.94,5.92Zm5.38,0h-4.23c.03-2.12.31-4,.88-5.52.51-1.38,1.26-2.44,2.27-3.08.35-.06.71-.09,1.08-.12h0v8.71Zm7.28-6c1.59,1.56,2.63,3.66,2.78,6h-3.54c-.03-2.27-.33-4.3-.95-5.94-.27-.71-.6-1.35-.99-1.92,1,.46,1.93,1.09,2.7,1.85Zm-6.14-2.7c.38.02.74.07,1.09.13,1,.64,1.75,1.69,2.26,3.05.58,1.52.85,3.41.88,5.54h-4.23v-8.71Z"/>
</svg>