<?xml version="1.0" encoding="utf-8"?>
<!-- Generator: Adobe Illustrator 28.0.0, SVG Export Plug-In . SVG Version: 6.00 Build 0)  -->
<svg version="1.1" id="_Слой_1" xmlns="http://www.w3.org/2000/svg" xmlns:xlink="http://www.w3.org/1999/xlink" x="0px"
	 y="0px" viewBox="0 0 50 50" style="enable-background:new 0 0 50 50;" xml:space="preserve">
<style type="text/css">
	.st0{fill:#29ABE2;}
</style>
<path class="st0" d="M37.1,44.1H12.9c-3.7,0-6.6-3-6.6-6.6v-9.6c0-0.8,0.6-1.4,1.4-1.4s1.4,0.6,1.4,1.4v9.6c0,2.1,1.7,3.8,3.8,3.8
	h24.2c2.1,0,3.8-1.7,3.8-3.8V34c0-0.8,0.6-1.4,1.4-1.4s1.4,0.6,1.4,1.4v3.5C43.8,41.2,40.8,44.1,37.1,44.1L37.1,44.1z"/>
<path class="st0" d="M37.1,6.9h-0.8V5.7c0-0.8-0.6-1.4-1.4-1.4c-0.8,0-1.4,0.6-1.4,1.4v1.1h-17V5.7c0-0.8-0.6-1.4-1.4-1.4
	c-0.8,0-1.4,0.6-1.4,1.4v1.1h-0.7c-3.7,0-6.6,3-6.6,6.6v7.8c0,0.8,0.6,1.4,1.4,1.4s1.4-0.6,1.4-1.4v-3.2h31.7v9.8
	c0,0.8,0.6,1.4,1.4,1.4c0.8,0,1.4-0.6,1.4-1.4V13.5C43.8,9.8,40.8,6.9,37.1,6.9L37.1,6.9z M40.9,15.2H9.1v-1.7
	c0-2.1,1.7-3.8,3.8-3.8h0.7v1.1c0,0.8,0.6,1.4,1.4,1.4s1.4-0.6,1.4-1.4V9.7h17v1.1c0,0.8,0.6,1.4,1.4,1.4c0.8,0,1.4-0.6,1.4-1.4V9.7
	h0.8c2.1,0,3.8,1.7,3.8,3.8L40.9,15.2L40.9,15.2z"/>
<path class="st0" d="M35.7,34.2c0.6,0.6,0.6,1.5,0,2c-0.3,0.3-0.7,0.4-1,0.4c-0.4,0-0.7-0.1-1-0.4l-2.3-2.3L29,36.2
	c-0.3,0.3-0.6,0.4-1,0.4s-0.7-0.1-1-0.4c-0.6-0.6-0.5-1.5,0-2l2.3-2.2L27,29.7c-0.6-0.6-0.6-1.5,0-2c0.6-0.6,1.5-0.6,2,0l2.3,2.3
	l2.3-2.3c0.6-0.6,1.5-0.5,2,0c0.6,0.6,0.5,1.5,0,2l-2.3,2.2C33.4,31.9,35.7,34.2,35.7,34.2z"/>
</svg>
