<?xml version="1.0" encoding="UTF-8"?>
<svg id="_Слой_1" data-name="Слой 1" xmlns="http://www.w3.org/2000/svg" viewBox="0 0 15.72 16">
  <defs>
    <style>
      .cls-1 {
        stroke-width: 0px;
      }
    </style>
  </defs>
  <path class="cls-1" d="m13.31,9.43c-.38,1.42-1.29,2.61-2.57,3.34-1.57.91-3.47.99-5.17.18-1.97-.94-3.22-3.05-3.09-5.22.21-3.61,3.63-5.93,6.93-5.05.75.2,1.43.55,2.03,1.03l-1.48,1.48h4.74V.46l-1.48,1.48C11.83.75,10.06.06,8.14,0,5.02-.08,2.08,1.75.77,4.58c-2.16,4.64.45,9.88,5.16,11.15.69.18,1.39.28,2.08.28,1.39,0,2.75-.36,3.98-1.07,1.85-1.07,3.17-2.79,3.72-4.85l-2.4-.64Z"/>
  <circle class="cls-1" cx="8.02" cy="8" r="3.01"/>
</svg>