<?xml version="1.0" encoding="utf-8"?>
<!-- Generator: Adobe Illustrator 28.0.0, SVG Export Plug-In . SVG Version: 6.00 Build 0)  -->
<svg version="1.1" id="_Слой_1" xmlns="http://www.w3.org/2000/svg" xmlns:xlink="http://www.w3.org/1999/xlink" x="0px"
	 y="0px" viewBox="0 0 20.7 49.5" style="enable-background:new 0 0 20.7 49.5;" xml:space="preserve">
<style type="text/css">
	.st0{fill:#FFFFFF;}
	.st1{fill:#B42903;}
</style>
<path class="st0" d="M18.5,19.6V30c0,4.5-3.6,8.1-8.1,8.1S2.3,34.5,2.3,30V19.6c0-4.5,3.6-8.1,8.1-8.1S18.5,15.1,18.5,19.6z"/>
<path class="st1" d="M10.4,11.5c4.5,0,8.1,3.6,8.1,8.1V30c0,4.5-3.6,8.1-8.1,8.1S2.3,34.5,2.3,30V19.6C2.3,15.1,5.9,11.5,10.4,11.5
	 M10.4,9.2L10.4,9.2C4.6,9.2,0,13.8,0,19.6V30c0,5.7,4.6,10.4,10.4,10.4l0,0c5.7,0,10.4-4.6,10.4-10.4V19.6
	C20.7,13.8,16.1,9.2,10.4,9.2L10.4,9.2z"/>
<path class="st1" d="M10.4,15.5c-0.6,0-1.1,0.5-1.1,1.1V20c0,0.6,0.5,1.1,1.1,1.1s1.1-0.5,1.1-1.1v-3.4C11.5,16,11,15.5,10.4,15.5
	L10.4,15.5z"/>
<path class="st1" d="M10.3,2.8l-2,2c-0.4,0.4-1.2,0.4-1.6,0l0,0c-0.4-0.4-0.4-1.2,0-1.6l2.8-2.9c0.4-0.4,1.1-0.4,1.6,0l2.9,3
	c0.4,0.5,0.4,1.2,0,1.6l0,0c-0.4,0.5-1.2,0.5-1.6,0L10.3,2.8"/>
<path class="st1" d="M10.3,46.7l-2-2c-0.4-0.5-1.2-0.5-1.6,0l0,0c-0.4,0.5-0.4,1.2,0,1.6l2.9,2.9c0.4,0.4,1.1,0.4,1.6,0l2.9-3
	c0.4-0.5,0.4-1.2,0-1.6l0,0c-0.4-0.5-1.2-0.5-1.6,0L10.3,46.7"/>
</svg>
