<?xml version="1.0" encoding="utf-8"?>
<!-- Generator: Adobe Illustrator 28.0.0, SVG Export Plug-In . SVG Version: 6.00 Build 0)  -->
<svg version="1.1" id="Слой_1" xmlns="http://www.w3.org/2000/svg" xmlns:xlink="http://www.w3.org/1999/xlink" x="0px" y="0px"
	 viewBox="0 0 512 512" style="enable-background:new 0 0 512 512;" xml:space="preserve">
<g>
	<path d="M83.2,31.7v448.6H7.9V31.7H83.2z"/>
	<path d="M458.7,73.8c-30.2-28.1-73-42.1-128.4-42.1H185v448.6h145c37.6,0,69.4-6.5,95.3-19.6c25.9-13.1,45.5-31.6,58.8-55.7
		c13.3-24.1,19.9-52.6,19.9-85.5V192.4C504.1,141.4,488.9,101.9,458.7,73.8z M428.2,322c0,27.8-8.4,49.3-25.1,64.6
		c-16.8,15.3-40.4,23-70.8,23h-73.4V102.3h73.4c30.4,0,54,7.6,70.8,22.8c16.8,15.2,25.1,36.8,25.1,64.8V322z"/>
</g>
</svg>
