<?xml version="1.0" encoding="utf-8"?>
<!-- Generator: Adobe Illustrator 28.0.0, SVG Export Plug-In . SVG Version: 6.00 Build 0)  -->
<svg version="1.1" id="Слой_1" xmlns="http://www.w3.org/2000/svg" xmlns:xlink="http://www.w3.org/1999/xlink" x="0px" y="0px"
	 viewBox="0 0 448 512" style="enable-background:new 0 0 448 512;" xml:space="preserve">
<style type="text/css">
	.st0{fill:#EB5757;}
</style>
<path class="st0" d="M135.2,17.7C140.6,6.8,151.7,0,163.8,0h120.4c12.1,0,23.2,6.8,28.6,17.7L320,32h96c17.7,0,32,14.3,32,32
	s-14.3,32-32,32H32C14.3,96,0,81.7,0,64s14.3-32,32-32h96L135.2,17.7z M32,128h384v320c0,35.3-28.7,64-64,64H96
	c-35.3,0-64-28.7-64-64V128z M128,192c-8.8,0-16,7.2-16,16v224c0,8.8,7.2,16,16,16s16-7.2,16-16V208C144,199.2,136.8,192,128,192z
	 M224,192c-8.8,0-16,7.2-16,16v224c0,8.8,7.2,16,16,16s16-7.2,16-16V208C240,199.2,232.8,192,224,192z M320,192c-8.8,0-16,7.2-16,16
	v224c0,8.8,7.2,16,16,16s16-7.2,16-16V208C336,199.2,328.8,192,320,192z"/>
</svg>
