<?xml version="1.0" encoding="utf-8"?>
<!-- Generator: Adobe Illustrator 28.0.0, SVG Export Plug-In . SVG Version: 6.00 Build 0)  -->
<svg version="1.1" id="Слой_1" xmlns="http://www.w3.org/2000/svg" xmlns:xlink="http://www.w3.org/1999/xlink" x="0px" y="0px"
	 viewBox="0 0 464.9 464.9" style="enable-background:new 0 0 464.9 464.9;" xml:space="preserve">
<path d="M432,200.4h8.5c13.3,0,24-10.7,24-24v-128c0-9.7-5.8-18.5-14.8-22.2s-19.3-1.7-26.2,5.2L381.9,73
	c-87.6-86.5-228.7-86.2-315.8,1c-87.5,87.5-87.5,229.3,0,316.8s229.3,87.5,316.8,0c12.5-12.5,12.5-32.8,0-45.3s-32.8-12.5-45.3,0
	c-62.5,62.5-163.8,62.5-226.3,0s-62.5-163.8,0-226.3c62.2-62.2,162.7-62.5,225.3-1l-41.1,41.2c-6.9,6.9-8.9,17.2-5.2,26.2
	s12.5,14.8,22.2,14.8H432z"/>
</svg>
