<?xml version="1.0" encoding="utf-8"?>
<!-- Generator: Adobe Illustrator 28.0.0, SVG Export Plug-In . SVG Version: 6.00 Build 0)  -->
<svg version="1.1" id="Слой_1" xmlns="http://www.w3.org/2000/svg" xmlns:xlink="http://www.w3.org/1999/xlink" x="0px" y="0px"
	 viewBox="0 0 41.6 42" style="enable-background:new 0 0 41.6 42;" xml:space="preserve">
<style type="text/css">
	.st0{fill:#013F4E;}
</style>
<path class="st0" d="M21.7,6.1C22.5,6.4,23,7.2,23,8V34c0,0.9-0.5,1.6-1.3,2c-0.8,0.4-1.7,0.2-2.3-0.4l-9.1-8.1H5.7
	c-2.4,0-4.3-1.9-4.3-4.3v-4.3c0-2.4,1.9-4.3,4.3-4.3h4.6l9.1-8.1C20,5.9,20.9,5.7,21.7,6.1z M30.1,15l3.7,3.7l3.7-3.7
	c0.6-0.6,1.7-0.6,2.3,0c0.6,0.6,0.6,1.7,0,2.3L36.1,21l3.7,3.7c0.6,0.6,0.6,1.7,0,2.3s-1.7,0.6-2.3,0l-3.7-3.7L30.1,27
	c-0.6,0.6-1.7,0.6-2.3,0c-0.6-0.6-0.6-1.7,0-2.3l3.7-3.7l-3.7-3.7c-0.6-0.6-0.6-1.7,0-2.3C28.4,14.4,29.4,14.4,30.1,15z"/>
</svg>
