<?xml version="1.0" encoding="utf-8"?>
<!-- Generator: Adobe Illustrator 28.0.0, SVG Export Plug-In . SVG Version: 6.00 Build 0)  -->
<svg version="1.1" id="Слой_1" xmlns="http://www.w3.org/2000/svg" xmlns:xlink="http://www.w3.org/1999/xlink" x="0px" y="0px"
	 viewBox="0 0 40 40" style="enable-background:new 0 0 40 40;" xml:space="preserve">
<style type="text/css">
	.st0{fill:#013F4E;}
</style>
<path class="st0" d="M8.9,1C6.3,1,4.2,3.1,4.2,5.7v28.5c0,2.6,2.1,4.8,4.8,4.8h3.2c2.6,0,4.8-2.1,4.8-4.8V5.7c0-2.6-2.1-4.8-4.8-4.8
	H8.9z M27.9,1c-2.6,0-4.8,2.1-4.8,4.8v28.5c0,2.6,2.1,4.8,4.8,4.8h3.2c2.6,0,4.8-2.1,4.8-4.8V5.7c0-2.6-2.1-4.8-4.8-4.8H27.9z"/>
</svg>
