<?xml version="1.0" encoding="utf-8"?>
<!-- Generator: Adobe Illustrator 28.0.0, SVG Export Plug-In . SVG Version: 6.00 Build 0)  -->
<svg version="1.1" id="Слой_1" xmlns="http://www.w3.org/2000/svg" xmlns:xlink="http://www.w3.org/1999/xlink" x="0px" y="0px"
	 viewBox="0 0 41.6 42" style="enable-background:new 0 0 41.6 42;" xml:space="preserve">
<style type="text/css">
	.st0{fill:#013F4E;}
</style>
<path class="st0" d="M33.7,7.5c3.9,3.2,6.4,8,6.4,13.5s-2.5,10.3-6.4,13.5c-0.6,0.5-1.5,0.4-2-0.2c-0.5-0.6-0.4-1.5,0.2-2
	c3.3-2.6,5.3-6.7,5.3-11.2s-2.1-8.6-5.3-11.2c-0.6-0.5-0.7-1.4-0.2-2C32.1,7.1,33,7,33.7,7.5L33.7,7.5z M30,12
	c2.6,2.1,4.3,5.4,4.3,9s-1.7,6.9-4.3,9c-0.6,0.5-1.5,0.4-2-0.2s-0.4-1.5,0.2-2c2-1.6,3.2-4,3.2-6.7s-1.2-5.1-3.2-6.7
	c-0.6-0.5-0.7-1.4-0.2-2C28.5,11.6,29.4,11.5,30,12L30,12z M26.4,16.5c1.3,1.1,2.1,2.7,2.1,4.5c0,1.8-0.8,3.4-2.1,4.5
	c-0.6,0.5-1.5,0.4-2-0.2c-0.5-0.6-0.4-1.5,0.2-2c0.7-0.5,1.1-1.3,1.1-2.2c0-0.9-0.4-1.7-1.1-2.2c-0.6-0.5-0.7-1.4-0.2-2
	C24.8,16.1,25.8,16,26.4,16.5L26.4,16.5z M19.7,7.7c0.7,0.3,1.1,1,1.1,1.8v23.1c0,0.8-0.4,1.4-1.1,1.8c-0.7,0.3-1.5,0.2-2.1-0.3
	l-8.1-7.2H5.4c-2.1,0-3.9-1.7-3.9-3.9v-3.9c0-2.1,1.7-3.9,3.9-3.9h4.1L17.6,8C18.2,7.5,19,7.4,19.7,7.7z"/>
</svg>
